<svg width="55" height="55" viewBox="0 0 55 55" fill="none" xmlns="http://www.w3.org/2000/svg">
<g clip-path="url(#clip0_18_2673)">
<g clip-path="url(#clip1_18_2673)">
<path d="M55 27.5C55 12.3122 42.6878 0 27.5 0C12.3122 0 0 12.3122 0 27.5C0 42.6878 12.3122 55 27.5 55C42.6878 55 55 42.6878 55 27.5Z" fill="#F0F5F2"/>
<path d="M32.5927 30.0463V26.9846C32.5927 26.8013 32.5927 26.7096 32.5652 26.6302C32.5405 26.5587 32.5001 26.4937 32.4471 26.4397C32.388 26.3786 32.3055 26.3379 32.1415 26.2564L27.5001 23.9331M19.352 24.9517V31.8847C19.352 32.2636 19.352 32.4531 19.4111 32.6181C19.463 32.7651 19.548 32.8982 19.6596 33.0071C19.7859 33.1294 19.958 33.2088 20.3023 33.3667L26.8208 36.354C27.0713 36.4681 27.1956 36.5261 27.326 36.5475C27.4411 36.5679 27.5592 36.5679 27.6743 36.5475C27.8047 36.5261 27.9289 36.4681 28.1795 36.354L34.698 33.3667C35.0423 33.2088 35.2144 33.1294 35.3397 33.0071C35.4514 32.8986 35.5368 32.7658 35.5892 32.6191C35.6483 32.4531 35.6483 32.2636 35.6483 31.8857V24.9537M17.3149 23.9352L27.1355 19.0239C27.2689 18.9577 27.3361 18.9241 27.4064 18.9119C27.4683 18.9002 27.5319 18.9002 27.5938 18.9119C27.6641 18.9241 27.7313 18.9577 27.8648 19.0239L37.6853 23.9352L27.8648 28.8444C27.7313 28.9117 27.6641 28.9463 27.5938 28.9585C27.5319 28.9701 27.4684 28.9701 27.4064 28.9585C27.3361 28.9453 27.2689 28.9117 27.1355 28.8455L17.3149 23.9352Z" stroke="#0D1714" stroke-width="2.03704" stroke-linecap="round" stroke-linejoin="round"/>
</g>
</g>
<defs>
<clipPath id="clip0_18_2673">
<rect width="55" height="55" fill="white"/>
</clipPath>
<clipPath id="clip1_18_2673">
<rect width="55" height="55" fill="white"/>
</clipPath>
</defs>
</svg>
