<svg width="55" height="55" viewBox="0 0 55 55" fill="none" xmlns="http://www.w3.org/2000/svg">
<g clip-path="url(#clip0_18_2663)">
<g clip-path="url(#clip1_18_2663)">
<g clip-path="url(#clip2_18_2663)">
<path d="M55 27.5C55 12.3122 42.6878 0 27.5 0C12.3122 0 0 12.3122 0 27.5C0 42.6878 12.3122 55 27.5 55C42.6878 55 55 42.6878 55 27.5Z" fill="#F0F5F2"/>
<path d="M27.5001 36.6667L27.3983 36.5139C26.6904 35.4526 26.337 34.9219 25.8705 34.538C25.4566 34.1979 24.9796 33.9428 24.467 33.7873C23.8874 33.6111 23.2498 33.6111 21.9747 33.6111H20.5742C19.4335 33.6111 18.8631 33.6111 18.4272 33.3891C18.0439 33.1938 17.7323 32.8822 17.537 32.4989C17.3149 32.063 17.3149 31.4926 17.3149 30.3519V21.5926C17.3149 20.4519 17.3149 19.8815 17.537 19.4456C17.7323 19.0623 18.0439 18.7507 18.4272 18.5554C18.8631 18.3333 19.4335 18.3333 20.5742 18.3333H20.9816C23.2631 18.3333 24.4038 18.3333 25.2757 18.7774C26.0422 19.168 26.6655 19.7912 27.0561 20.5578C27.5001 21.4296 27.5001 22.5704 27.5001 24.8519M27.5001 36.6667V24.8519M27.5001 36.6667L27.602 36.5139C28.3098 35.4526 28.6633 34.9219 29.1298 34.538C29.5437 34.1979 30.0206 33.9428 30.5333 33.7873C31.1128 33.6111 31.7504 33.6111 33.0256 33.6111H34.4261C35.5668 33.6111 36.1372 33.6111 36.5731 33.3891C36.9564 33.1938 37.268 32.8822 37.4633 32.4989C37.6853 32.063 37.6853 31.4926 37.6853 30.3519V21.5926C37.6853 20.4519 37.6853 19.8815 37.4633 19.4456C37.268 19.0623 36.9564 18.7507 36.5731 18.5554C36.1372 18.3333 35.5668 18.3333 34.4261 18.3333H34.0186C31.7372 18.3333 30.5964 18.3333 29.7246 18.7774C28.958 19.168 28.3348 19.7912 27.9442 20.5578C27.5001 21.4296 27.5001 22.5704 27.5001 24.8519" stroke="#0D1714" stroke-width="2.03704" stroke-linecap="round" stroke-linejoin="round"/>
</g>
</g>
</g>
<defs>
<clipPath id="clip0_18_2663">
<rect width="55" height="55" rx="27.5" fill="white"/>
</clipPath>
<clipPath id="clip1_18_2663">
<rect width="55" height="55" fill="white"/>
</clipPath>
<clipPath id="clip2_18_2663">
<rect width="55" height="55" fill="white"/>
</clipPath>
</defs>
</svg>
