<svg width="120" height="30" viewBox="0 0 120 30" fill="none" xmlns="http://www.w3.org/2000/svg">
<g clip-path="url(#clip0_18_2525)">
<g clip-path="url(#clip1_18_2525)">
<mask id="mask0_18_2525" style="mask-type:luminance" maskUnits="userSpaceOnUse" x="0" y="0" width="120" height="30">
<path d="M0 0.483887H119.544V29.5161H0V0.483887Z" fill="white"/>
</mask>
<g mask="url(#mask0_18_2525)">
<path d="M36.4683 20.4085H44.8731V17.8595H39.4547V8.25757H36.4673L36.4683 20.4085ZM49.8521 18.7092C48.6541 18.7092 48.0299 17.6553 48.0299 16.075C48.0299 14.4947 48.6541 13.4234 49.8521 13.4234C51.0502 13.4234 51.6918 14.4947 51.6918 16.075C51.6918 17.6553 51.0492 18.7092 49.8521 18.7092ZM49.8686 20.6805C52.6537 20.6805 54.476 18.6918 54.476 16.074C54.476 13.4572 52.6537 11.4695 49.8695 11.4695C47.1018 11.4695 45.2447 13.4572 45.2447 16.075C45.2447 18.6918 47.1008 20.6805 49.8695 20.6805H49.8686ZM59.2963 23.4163C60.5795 23.4163 61.7099 23.1279 62.4695 22.4485C63.1615 21.8195 63.6173 20.8672 63.6173 19.5589V11.7076H60.985V12.6414H60.9502C60.4441 11.9108 59.6679 11.4521 58.5202 11.4521C56.3766 11.4521 54.8912 13.254 54.8912 15.8031C54.8912 18.4711 56.6979 19.9324 58.6383 19.9324C59.6844 19.9324 60.3424 19.5076 60.8495 18.9298H60.9173V19.7969C60.9173 20.8498 60.4276 21.4614 59.2624 21.4614C58.3518 21.4614 57.896 21.0714 57.7431 20.6127H55.077C55.3479 22.4311 56.9166 23.4163 59.2963 23.4163ZM59.2799 17.876C58.2502 17.876 57.5747 17.0263 57.5747 15.7179C57.5747 14.3921 58.2502 13.5424 59.2799 13.5424C60.4276 13.5424 61.0344 14.5285 61.0344 15.7005C61.0344 16.9247 60.4779 17.876 59.2799 17.876ZM69.0308 18.7092C67.8328 18.7092 67.2076 17.6553 67.2076 16.075C67.2076 14.4947 67.8328 13.4234 69.0308 13.4234C70.2289 13.4234 70.8695 14.4947 70.8695 16.075C70.8695 17.6553 70.2289 18.7092 69.0308 18.7092ZM69.0473 20.6805C71.8324 20.6805 73.6547 18.6918 73.6547 16.074C73.6547 13.4572 71.8324 11.4695 69.0483 11.4695C66.2805 11.4695 64.4224 13.4572 64.4224 16.075C64.4224 18.6918 66.2795 20.6805 69.0473 20.6805ZM74.4579 20.4085H77.2092V11.7076H74.4579V20.4076V20.4085ZM74.4579 10.5008H77.2092V8.25757H74.4579V10.5008ZM78.4024 23.2808H81.1537V19.5076H81.1876C81.7276 20.2382 82.5212 20.6805 83.635 20.6805C85.8966 20.6805 87.3986 18.8785 87.3986 16.0576C87.3986 13.4408 85.9973 11.4521 83.7018 11.4521C82.5212 11.4521 81.6773 11.9795 81.086 12.7605H81.0357V11.7076H78.4034L78.4024 23.2808ZM82.9257 18.5389C81.745 18.5389 81.0695 17.5711 81.0695 16.1601C81.0695 14.7492 81.6773 13.6789 82.8754 13.6789C84.056 13.6789 84.6134 14.664 84.6134 16.1601C84.6134 17.6379 83.9718 18.5389 82.9257 18.5389ZM91.8773 20.6805C94.1389 20.6805 95.8092 19.6943 95.8092 17.7908C95.8092 15.565 94.0199 15.174 92.5015 14.9195C91.4041 14.7153 90.4257 14.6301 90.4257 14.0185C90.4257 13.4747 90.9483 13.2201 91.6237 13.2201C92.3834 13.2201 92.907 13.4572 93.0076 14.2392H95.5392C95.4037 12.5234 94.0876 11.4521 91.6402 11.4521C89.5983 11.4521 87.9105 12.4043 87.9105 14.2392C87.9105 16.2782 89.5141 16.6866 91.017 16.9411C92.1637 17.1453 93.2099 17.2305 93.2099 18.0124C93.2099 18.5737 92.6873 18.8785 91.8599 18.8785C90.9492 18.8785 90.3753 18.4537 90.2728 17.5876H87.6744C87.7586 19.5076 89.3457 20.6805 91.8773 20.6805ZM99.5457 20.6631C100.745 20.6631 101.503 20.1879 102.129 19.3372H102.179V20.4085H104.812V11.7076H102.061V16.5676C102.061 17.604 101.487 18.3182 100.541 18.3182C99.6647 18.3182 99.2428 17.7918 99.2428 16.8395V11.7076H96.5079V17.4172C96.5079 19.3547 97.555 20.6631 99.5457 20.6631ZM106.008 20.4085H108.759V15.5311C108.759 14.4947 109.265 13.764 110.126 13.764C110.952 13.764 111.341 14.3069 111.341 15.2418V20.4085H114.092V15.5311C114.092 14.4947 114.581 13.764 115.459 13.764C116.286 13.764 116.674 14.3069 116.674 15.2418V20.4085H119.425V14.7482C119.425 12.7934 118.446 11.4511 116.488 11.4511C115.374 11.4511 114.446 11.9272 113.771 12.9801H113.738C113.298 12.0463 112.438 11.4511 111.307 11.4511C110.058 11.4511 109.231 12.0463 108.691 12.9472H108.641V11.7066H106.008V20.4066V20.4085Z" fill="#626965"/>
<path fill-rule="evenodd" clip-rule="evenodd" d="M14.5452 28.9064C22.3122 28.9064 28.6093 22.5648 28.6093 14.7435C28.6093 6.92219 22.3122 0.581543 14.5452 0.581543C6.77805 0.581543 0.480957 6.92219 0.480957 14.7435C0.480957 22.5648 6.77805 28.9064 14.5452 28.9064ZM18.9329 7.17864C19.1458 6.41412 18.4103 5.96316 17.7377 6.44606L8.3516 13.1786C7.62289 13.7012 7.73805 14.7435 8.52483 14.7435H10.9955V14.7241H15.8129L11.8877 16.1186L10.1574 22.3083C9.94451 23.0728 10.68 23.5238 11.3526 23.0419L20.7377 16.3093C21.4674 15.7867 21.3522 14.7435 20.5655 14.7435H16.8174L18.9329 7.17864Z" fill="#626965"/>
</g>
</g>
</g>
<defs>
<clipPath id="clip0_18_2525">
<rect width="120" height="30" fill="white"/>
</clipPath>
<clipPath id="clip1_18_2525">
<rect width="120" height="29.0323" fill="white" transform="translate(0 0.483887)"/>
</clipPath>
</defs>
</svg>
