<svg width="120" height="26" viewBox="0 0 120 26" fill="none" xmlns="http://www.w3.org/2000/svg">
<path d="M19.1355 11.4607C18.8114 11.7879 18.5633 12.1825 18.409 12.6164C18.2546 13.0503 18.1977 13.5129 18.2424 13.9713L18.227 13.9559C18.2721 14.4953 18.1996 15.0381 18.0145 15.5467C17.8294 16.0554 17.536 16.5177 17.1547 16.9019C16.7736 17.2843 16.3136 17.5789 15.8068 17.765C15.3 17.9511 14.7587 18.0243 14.2207 17.9793L14.2361 17.9947C13.5927 17.9348 12.9466 18.0755 12.3864 18.3976C11.8252 18.7203 11.3771 19.2082 11.1032 19.7947C10.8292 20.3819 10.742 21.039 10.8535 21.6773C10.9649 22.3156 11.2696 22.9043 11.7264 23.3639C12.1826 23.8214 12.7691 24.1267 13.4055 24.2381C14.042 24.3495 14.6973 24.2615 15.2818 23.9862C15.8667 23.7094 16.3519 23.2589 16.6712 22.6962C16.9916 22.1326 17.131 21.4842 17.0707 20.8387L17.087 20.8542C17.0418 20.3147 17.1143 19.7719 17.2996 19.2632C17.4849 18.7545 17.7785 18.2922 18.1601 17.9082C18.5411 17.5258 19.0009 17.2313 19.5076 17.0452C20.0142 16.8591 20.5554 16.7859 21.0932 16.8307L21.077 16.8153C21.6029 16.863 22.1323 16.7765 22.6158 16.564C23.0992 16.3514 23.5209 16.0197 23.8412 15.5999C24.1623 15.18 24.3727 14.6861 24.4531 14.1637C24.5334 13.6412 24.4812 13.107 24.3011 12.61C24.121 12.113 23.8189 11.6693 23.4225 11.3196C23.0261 10.9699 22.5482 10.7255 22.0327 10.6087C21.5175 10.4946 20.9818 10.5128 20.4756 10.6618C19.9694 10.8108 19.5092 11.0857 19.1381 11.4607H19.1355ZM12.839 15.9736L12.8218 15.9582C13.2793 16.0048 13.7414 15.9487 14.1745 15.7939C14.6075 15.6391 15.0005 15.3895 15.3247 15.0633C15.6499 14.7368 15.8987 14.3422 16.053 13.9079C16.2073 13.4736 16.2633 13.0104 16.217 12.5519L16.2341 12.5673C16.1889 12.028 16.2612 11.4853 16.4462 10.9766C16.6312 10.468 16.9244 10.0056 17.3055 9.62132C17.6866 9.23887 18.1466 8.9443 18.6534 8.75819C19.1602 8.57209 19.7015 8.49895 20.2395 8.54389L20.2232 8.52846C20.8667 8.58911 21.5132 8.44898 22.0738 8.12732C22.6353 7.8051 23.0837 7.31749 23.3578 6.73103C23.6325 6.14392 23.7203 5.4866 23.6094 4.84797C23.4984 4.20933 23.1939 3.62018 22.7372 3.16018C22.281 2.70234 21.6945 2.39672 21.0578 2.28517C20.4212 2.17362 19.7656 2.26159 19.181 2.53703C18.5959 2.81349 18.1104 3.26367 17.7907 3.82618C17.4701 4.39 17.3307 5.03873 17.3912 5.68446L17.3767 5.66818C17.4217 6.20764 17.3491 6.75045 17.1638 7.2591C16.9785 7.76775 16.685 8.23009 16.3035 8.61418C15.9225 8.99667 15.4625 9.29128 14.9557 9.47738C14.4489 9.66349 13.9075 9.7366 13.3695 9.6916L13.385 9.70789C12.9277 9.6615 12.4659 9.71776 12.0332 9.87257C11.6005 10.0274 11.2078 10.2768 10.8838 10.6027C10.5583 10.9292 10.3094 11.3238 10.1549 11.7581C10.0005 12.1924 9.94438 12.6556 9.99067 13.1142L9.97524 13.0987C10.0203 13.6382 9.94768 14.181 9.76239 14.6897C9.57711 15.1983 9.28358 15.6607 8.9021 16.0447C8.52106 16.427 8.06118 16.7214 7.55456 16.9075C7.04795 17.0936 6.50681 17.1669 5.96895 17.1222L5.98438 17.1376C5.3409 17.077 4.69442 17.2171 4.13381 17.5387C3.5724 17.8611 3.12403 18.3486 2.84981 18.935C2.57508 19.5221 2.48727 20.1795 2.59826 20.8181C2.70925 21.4567 3.01368 22.0459 3.47038 22.5059C3.92659 22.9637 4.51317 23.2693 5.1498 23.3809C5.78643 23.4924 6.44197 23.4045 7.02667 23.129C7.61171 22.8526 8.09722 22.4024 8.41695 21.8399C8.73747 21.2761 8.87691 20.6273 8.81638 19.9816L8.83267 19.997C8.78738 19.4576 8.85981 18.9148 9.04495 18.4062C9.2301 17.8975 9.52353 17.4351 9.90495 17.051C10.286 16.6686 10.746 16.374 11.2528 16.1879C11.7596 16.0018 12.3009 15.9287 12.839 15.9736ZM7.11838 14.2533C7.44251 13.926 7.69045 13.5312 7.84453 13.0971C7.99862 12.663 8.05505 12.2003 8.00981 11.7419L8.02695 11.7582C7.98171 11.2186 8.05424 10.6756 8.23953 10.1668C8.42482 9.65795 8.71845 9.19547 9.1001 8.81132C9.48133 8.42891 9.94152 8.13443 10.4485 7.94847C10.9554 7.76251 11.4969 7.68957 12.035 7.73475L12.0178 7.71932C12.6613 7.7794 13.3076 7.63931 13.8684 7.31818C14.4295 6.99582 14.8776 6.50823 15.1515 5.92189C15.426 5.33501 15.5137 4.67801 15.4027 4.0397C15.2917 3.40139 14.9874 2.81254 14.531 2.35275C14.075 1.89513 13.4888 1.58958 12.8525 1.47788C12.2162 1.36618 11.561 1.4538 10.9764 1.72875C10.3913 2.00511 9.90578 2.45531 9.5861 3.01789C9.26575 3.58147 9.12631 4.22987 9.18667 4.87532L9.17124 4.85989C9.21642 5.39936 9.14385 5.94221 8.95856 6.45087C8.77327 6.95954 8.47967 7.42187 8.0981 7.80589C7.7172 8.18832 7.25733 8.48289 6.75068 8.66899C6.24403 8.8551 5.70283 8.92825 5.16495 8.88332L5.18038 8.89875C4.65429 8.85082 4.12464 8.93719 3.64102 9.14977C3.15741 9.36234 2.73565 9.69417 2.41524 10.1142C2.09392 10.534 1.88333 11.0279 1.80285 11.5504C1.72238 12.0729 1.7746 12.6073 1.9547 13.1043C2.13481 13.6013 2.43702 14.0451 2.83354 14.3948C3.23006 14.7445 3.70814 14.9888 4.22381 15.1053C4.7391 15.2197 5.27497 15.2015 5.78133 15.0525C6.28769 14.9035 6.74715 14.6285 7.11838 14.2533ZM33.5587 5.70418H36.0932V18.0925H33.5587V5.70418ZM37.529 13.8513C37.525 12.9612 37.7845 12.0898 38.2747 11.3467C38.764 10.6057 39.4624 10.0266 40.2812 9.68303C41.0991 9.33934 42.0009 9.24734 42.8714 9.41881C43.7418 9.59027 44.5414 10.0174 45.1678 10.6456C45.7958 11.2755 46.2237 12.0769 46.3979 12.9492C46.572 13.8214 46.4846 14.7257 46.1467 15.5485C45.8092 16.3711 45.2353 17.0751 44.4975 17.5713C43.7613 18.0658 42.8944 18.3299 42.0075 18.3299C41.4186 18.3368 40.8343 18.2256 40.289 18.0031C39.7437 17.7805 39.2485 17.4509 38.8327 17.0339C38.4151 16.6163 38.0848 16.1198 37.8611 15.5732C37.6374 15.0266 37.5248 14.441 37.5298 13.8505L37.529 13.8513ZM43.9515 13.8513C43.9445 13.5651 43.8743 13.284 43.7461 13.028C43.6179 12.772 43.4348 12.5475 43.2098 12.3704C42.9849 12.1933 42.7236 12.068 42.4446 12.0036C42.1657 11.9391 41.876 11.9369 41.5961 11.9973C41.2214 12.0783 40.879 12.2683 40.6121 12.5434C40.3451 12.8186 40.1656 13.1666 40.0961 13.5436C40.0259 13.9206 40.0677 14.3098 40.2164 14.6633C40.3651 15.0167 40.6141 15.3188 40.9327 15.5322C41.2515 15.7439 41.6252 15.8579 42.0075 15.8579C42.2697 15.8649 42.5305 15.8172 42.7733 15.7179C43.016 15.6186 43.2354 15.4698 43.4175 15.281C43.6004 15.0923 43.7423 14.8678 43.8342 14.6216C43.9261 14.3754 43.966 14.1137 43.9515 13.8513ZM56.5892 9.60846V17.6656C56.5892 20.5156 54.3752 21.7207 52.1278 21.7207C51.3365 21.7801 50.5442 21.6196 49.8384 21.257C49.1315 20.8934 48.5384 20.3421 48.1241 19.6636L50.2858 18.4079C50.4589 18.7619 50.7365 19.0543 51.0811 19.2454C51.4257 19.4366 51.8207 19.5173 52.2127 19.4767C52.4628 19.5116 52.7176 19.4896 52.958 19.4123C53.1985 19.335 53.4183 19.2043 53.6012 19.0302C53.7851 18.8556 53.9273 18.642 54.0175 18.405C54.1077 18.1681 54.1436 17.9139 54.1224 17.6613V16.8856C53.8258 17.2497 53.448 17.5391 53.0193 17.7307C52.5905 17.9223 52.1229 18.0106 51.6538 17.9887C50.538 17.9531 49.4801 17.4836 48.7052 16.6799C47.9279 15.8743 47.4935 14.7985 47.4935 13.679C47.4935 12.5596 47.9279 11.4838 48.7052 10.6782C49.48 9.87419 50.5379 9.40429 51.6538 9.36846C52.123 9.34561 52.591 9.43356 53.0198 9.62521C53.4487 9.81687 53.8264 10.1068 54.1224 10.4716V9.60589L56.5892 9.6076V9.60846ZM54.1232 13.6799C54.1398 13.2703 54.0341 12.865 53.8194 12.5157C53.6048 12.1664 53.291 11.889 52.9181 11.7187C52.5454 11.5497 52.1305 11.4967 51.7272 11.5665C51.324 11.6364 50.9511 11.8259 50.657 12.1105C50.3628 12.3953 50.1602 12.7612 50.075 13.1616C49.9897 13.562 50.0256 13.9788 50.1782 14.3587C50.3308 14.7386 50.5931 15.0644 50.9316 15.2947C51.2701 15.5249 51.6696 15.6491 52.079 15.6513C52.3455 15.67 52.6129 15.6325 52.864 15.541C53.115 15.4496 53.344 15.3064 53.5361 15.1207C53.7289 14.9349 53.8808 14.7108 53.9819 14.4628C54.083 14.2148 54.1312 13.9484 54.1232 13.6807V13.6799ZM58.025 13.8513C58.021 12.9612 58.2804 12.0897 58.7707 11.3467C59.26 10.6057 59.9584 10.0266 60.7772 9.68303C61.5951 9.33934 62.4969 9.24734 63.3674 9.41881C64.2378 9.59027 65.0374 10.0174 65.6638 10.6456C66.2918 11.2755 66.7197 12.0769 66.8939 12.9492C67.068 13.8214 66.9806 14.7257 66.6427 15.5485C66.3052 16.3711 65.7313 17.0751 64.9935 17.5713C64.2573 18.0658 63.3904 18.3299 62.5035 18.3299C61.9146 18.3368 61.3303 18.2256 60.785 18.0031C60.2397 17.7805 59.7445 17.4509 59.3287 17.0339C58.9111 16.6163 58.5808 16.1198 58.3571 15.5732C58.1334 15.0266 58.0208 14.441 58.0258 13.8505L58.025 13.8513ZM64.4475 13.8513C64.4405 13.5651 64.3703 13.284 64.2421 13.028C64.1139 12.772 63.9308 12.5475 63.7058 12.3704C63.4809 12.1933 63.2196 12.068 62.9406 12.0036C62.6617 11.9391 62.372 11.9369 62.0921 11.9973C61.718 12.0785 61.3763 12.2685 61.1098 12.5433C60.9102 12.7493 60.7583 12.9966 60.6649 13.2678C60.5716 13.539 60.539 13.8274 60.5695 14.1126C60.6 14.3978 60.6929 14.6728 60.8415 14.9182C60.9901 15.1635 61.1909 15.3731 61.4295 15.5322C61.7475 15.7439 62.1212 15.8579 62.5035 15.8579C62.7657 15.8649 63.0265 15.8173 63.2693 15.718C63.5121 15.6186 63.7315 15.4698 63.9135 15.281C64.0964 15.0923 64.2383 14.8678 64.3302 14.6216C64.4221 14.3754 64.462 14.1137 64.4475 13.8513ZM68.1641 7.3336C68.1644 7.03208 68.2538 6.73736 68.4209 6.48639C68.588 6.23541 68.8255 6.03934 69.1035 5.92275C69.3815 5.80699 69.6876 5.77664 69.9828 5.83557C70.278 5.89449 70.549 6.04003 70.7612 6.2536C70.9733 6.46743 71.1176 6.7391 71.176 7.03457C71.2343 7.33004 71.2042 7.63616 71.0893 7.91458C70.9745 8.19299 70.78 8.43131 70.5303 8.59968C70.2806 8.76804 69.9867 8.85896 69.6855 8.86103C69.2829 8.85696 68.8981 8.69471 68.6141 8.40932C68.3295 8.12321 68.168 7.73716 68.1641 7.3336ZM68.4212 9.6076H70.9567V18.0933H68.417L68.4212 9.6076ZM81.9024 13.8505C81.9614 14.9823 81.5686 16.0913 80.8104 16.9336C80.4355 17.3491 79.9821 17.6863 79.4764 17.926C78.9706 18.1656 78.4225 18.3029 77.8635 18.3299C77.3933 18.3559 76.9232 18.2763 76.4876 18.0972C76.052 17.918 75.662 17.6438 75.3461 17.2945V21.4867H72.8115V9.6076H75.3461V10.4047C75.6626 10.0563 76.0527 9.78263 76.4882 9.60368C76.9236 9.42473 77.3934 9.34497 77.8635 9.37018C78.4229 9.39631 78.9715 9.53327 79.4775 9.7731C79.9835 10.0129 80.4369 10.3509 80.8112 10.7673C81.1871 11.1841 81.4769 11.6711 81.6641 12.2001C81.8514 12.7292 81.9324 13.29 81.9024 13.8505ZM79.367 13.8505C79.3574 13.4535 79.2313 13.0681 79.0044 12.7422C78.7777 12.4176 78.4603 12.1672 78.0919 12.0222C77.7236 11.8772 77.3206 11.8441 76.9335 11.927C76.5465 12.0107 76.1928 12.2069 75.917 12.491C75.6403 12.7759 75.4537 13.1358 75.3802 13.526C75.3067 13.9162 75.3497 14.3194 75.5038 14.6853C75.657 15.0506 75.9146 15.3626 76.2442 15.5823C76.5738 15.802 76.9608 15.9196 77.357 15.9205C77.6289 15.9328 77.9003 15.8872 78.1533 15.7867C78.4063 15.6862 78.635 15.5331 78.8244 15.3376C79.0143 15.1418 79.1609 14.9082 79.2544 14.6519C79.3479 14.3957 79.3862 14.1226 79.367 13.8505ZM89.7247 15.5467C89.7247 17.4985 88.0361 18.3299 86.2112 18.3299C85.4736 18.3971 84.7329 18.2405 84.0855 17.8807C83.4369 17.5201 82.9114 16.973 82.577 16.3105L84.7738 15.0547C84.8611 15.3612 85.0514 15.6281 85.3127 15.8105C85.5739 15.9928 85.8901 16.0795 86.2078 16.0559C86.8155 16.0559 87.1198 15.869 87.1198 15.5305C87.1198 14.5962 82.9627 15.089 82.9627 12.1533C82.9627 10.3027 84.5175 9.37018 86.2747 9.37018C86.9361 9.35011 87.5908 9.508 88.1703 9.82734C88.7499 10.1467 89.2331 10.6158 89.5695 11.1856L87.407 12.3565C87.3119 12.135 87.1539 11.9463 86.9527 11.8138C86.7514 11.6812 86.5157 11.6106 86.2747 11.6107C85.835 11.6107 85.565 11.7822 85.565 12.0847C85.5684 13.0533 89.7247 12.4062 89.7247 15.5467ZM98.9852 9.6076V18.0933H96.4498V17.2953C96.1584 17.6474 95.7874 17.925 95.3673 18.1051C94.9472 18.2852 94.4903 18.3625 94.0344 18.3307C92.327 18.3307 90.8767 17.1093 90.8767 14.8165V9.6076H93.4112V14.4436C93.3898 14.6456 93.4129 14.8498 93.479 15.0419C93.5435 15.2343 93.6495 15.4101 93.7895 15.5571C93.9294 15.704 94.0999 15.8184 94.289 15.8922C94.4767 15.9667 94.679 15.9985 94.8812 15.9865C95.8104 15.9865 96.4524 15.4439 96.4524 14.2387V9.61018L98.9852 9.6076ZM113.521 12.8827V18.0925H110.986V13.103C110.986 12.2545 110.581 11.7119 109.77 11.7119C108.925 11.7119 108.451 12.3059 108.451 13.307V18.0925H105.917V13.103C105.917 12.2545 105.512 11.7119 104.7 11.7119C103.855 11.7119 103.382 12.3059 103.382 13.307V18.0925H100.847V9.60675H103.382V10.3867C103.643 10.0409 103.988 9.76641 104.384 9.58862C104.78 9.41083 105.214 9.33541 105.646 9.36932C106.08 9.34797 106.513 9.43995 106.901 9.63621C107.289 9.83246 107.619 10.1263 107.859 10.4887C108.139 10.1092 108.511 9.80728 108.939 9.61141C109.368 9.41554 109.84 9.33222 110.31 9.36932C112.25 9.37018 113.521 10.7613 113.521 12.8827ZM115.665 9.55532C116.165 9.55396 116.644 9.35421 116.997 8.99998C117.349 8.64574 117.547 8.166 117.546 7.66618C117.547 7.16635 117.349 6.68661 116.997 6.33237C116.644 5.97814 116.165 5.7784 115.665 5.77703C115.165 5.77817 114.686 5.97781 114.333 6.33207C113.981 6.68633 113.783 7.1662 113.784 7.66618C113.783 8.16615 113.981 8.64602 114.333 9.00028C114.686 9.35454 115.165 9.55418 115.665 9.55532Z" fill="#626965"/>
</svg>
