<svg width="69" height="57" viewBox="0 0 69 57" fill="none" xmlns="http://www.w3.org/2000/svg">
<g clip-path="url(#clip0_18_2453)">
<g clip-path="url(#clip1_18_2453)">
<g clip-path="url(#clip2_18_2453)">
<path d="M34.3102 0.663574C34.3748 1.03397 34.4308 1.41728 34.476 1.81351C37.4176 20.3073 51.4936 26.1657 61.6223 27.1348C63.3666 27.0013 65.2078 27.012 67.1502 27.1886C65.5513 27.3275 63.667 27.3307 61.6223 27.1348C43.415 28.5377 35.8467 45.7545 34.3102 54.9756C32.5595 34.8366 16.7704 28.4182 6.01398 27.3383C4.4981 27.3406 2.9826 27.2904 1.47021 27.1875C2.98646 27.1313 4.50479 27.1816 6.01398 27.3383C31.15 27.2651 35.5711 11.2187 34.476 1.81351C34.4173 1.43076 34.3613 1.04743 34.3102 0.663574Z" fill="#FF985F"/>
</g>
</g>
</g>
<defs>
<clipPath id="clip0_18_2453">
<rect width="65.68" height="53.84" fill="white" transform="translate(1.47021 1.19995)"/>
</clipPath>
<clipPath id="clip1_18_2453">
<rect width="65.68" height="53.84" fill="white" transform="translate(1.47021 1.19995)"/>
</clipPath>
<clipPath id="clip2_18_2453">
<rect width="65.68" height="54.9128" fill="white" transform="translate(1.47021 0.663574)"/>
</clipPath>
</defs>
</svg>
