<svg width="66" height="54" viewBox="0 0 66 54" fill="none" xmlns="http://www.w3.org/2000/svg">
<g clip-path="url(#clip0_18_2448)">
<g clip-path="url(#clip1_18_2448)">
<g clip-path="url(#clip2_18_2448)">
<g clip-path="url(#clip3_18_2448)">
<path d="M32.7903 -1.76367C32.8577 -1.37726 32.9161 -0.977377 32.9633 -0.56401C36.0321 18.7294 50.7167 24.8412 61.2834 25.8521C63.1031 25.7128 65.0239 25.7241 67.0503 25.9083C65.3822 26.0532 63.4165 26.0566 61.2834 25.8521C42.2887 27.3158 34.3932 45.277 32.7903 54.8968C30.9638 33.8869 14.4921 27.1911 3.27051 26.0644C1.68909 26.0669 0.108055 26.0144 -1.46973 25.9072C0.112085 25.8485 1.69607 25.901 3.27051 26.0644C29.4934 25.9881 34.1056 9.24783 32.9633 -0.56401C32.902 -0.963313 32.8435 -1.36322 32.7903 -1.76367Z" fill="#B3FC6A"/>
</g>
</g>
</g>
</g>
<defs>
<clipPath id="clip0_18_2448">
<rect width="65.59" height="53.76" fill="white"/>
</clipPath>
<clipPath id="clip1_18_2448">
<rect width="68.52" height="56.16" fill="white" transform="translate(-1.46973 -1.19995)"/>
</clipPath>
<clipPath id="clip2_18_2448">
<rect width="68.52" height="56.16" fill="white" transform="translate(-1.46973 -1.19995)"/>
</clipPath>
<clipPath id="clip3_18_2448">
<rect width="68.52" height="57.2872" fill="white" transform="translate(-1.46973 -1.76367)"/>
</clipPath>
</defs>
</svg>
