<svg width="1920" height="175" viewBox="0 0 1920 175" fill="none" xmlns="http://www.w3.org/2000/svg">
<rect width="1920" height="174.41" fill="white"/>
<g clip-path="url(#clip0_18_2465)">
<path d="M312.705 49.375V47.8636H321.71V49.375H318.08V59.5H316.33V49.375H312.705ZM322.658 59.5V50.7727H324.3V52.1591H324.391C324.55 51.6894 324.83 51.3201 325.232 51.0511C325.637 50.7784 326.095 50.642 326.607 50.642C326.713 50.642 326.838 50.6458 326.982 50.6534C327.129 50.661 327.245 50.6705 327.328 50.6818V52.3068C327.26 52.2879 327.139 52.267 326.964 52.2443C326.79 52.2178 326.616 52.2045 326.442 52.2045C326.04 52.2045 325.682 52.2898 325.368 52.4602C325.057 52.6269 324.811 52.8598 324.629 53.1591C324.447 53.4545 324.357 53.7917 324.357 54.1705V59.5H322.658ZM334.327 55.8807V50.7727H336.031V59.5H334.361V57.9886H334.27C334.069 58.4545 333.747 58.8428 333.304 59.1534C332.865 59.4602 332.317 59.6136 331.662 59.6136C331.101 59.6136 330.605 59.4905 330.173 59.2443C329.745 58.9943 329.408 58.625 329.162 58.1364C328.92 57.6477 328.798 57.0436 328.798 56.3239V50.7727H330.497V56.1193C330.497 56.714 330.662 57.1875 330.991 57.5398C331.321 57.892 331.749 58.0682 332.276 58.0682C332.594 58.0682 332.91 57.9886 333.224 57.8295C333.543 57.6705 333.806 57.4299 334.014 57.108C334.226 56.786 334.33 56.3769 334.327 55.8807ZM344.854 52.9034L343.314 53.1761C343.25 52.9792 343.147 52.7917 343.007 52.6136C342.871 52.4356 342.685 52.2898 342.45 52.1761C342.215 52.0625 341.922 52.0057 341.57 52.0057C341.089 52.0057 340.687 52.1136 340.365 52.3295C340.043 52.5417 339.882 52.8163 339.882 53.1534C339.882 53.4451 339.99 53.6799 340.206 53.858C340.422 54.036 340.77 54.1818 341.251 54.2955L342.638 54.6136C343.441 54.7992 344.039 55.0852 344.433 55.4716C344.827 55.858 345.024 56.3598 345.024 56.9773C345.024 57.5 344.873 57.9659 344.57 58.375C344.27 58.7803 343.852 59.0985 343.314 59.3295C342.78 59.5606 342.161 59.6761 341.456 59.6761C340.479 59.6761 339.681 59.4678 339.064 59.0511C338.446 58.6307 338.068 58.0341 337.928 57.2614L339.57 57.0114C339.672 57.4394 339.882 57.7633 340.2 57.983C340.518 58.1989 340.933 58.3068 341.445 58.3068C342.001 58.3068 342.446 58.1913 342.78 57.9602C343.113 57.7254 343.28 57.4394 343.28 57.1023C343.28 56.8295 343.178 56.6004 342.973 56.4148C342.772 56.2292 342.464 56.089 342.047 55.9943L340.57 55.6705C339.755 55.4848 339.153 55.1894 338.763 54.7841C338.376 54.3788 338.183 53.8655 338.183 53.2443C338.183 52.7292 338.327 52.2784 338.615 51.892C338.903 51.5057 339.301 51.2045 339.808 50.9886C340.316 50.7689 340.897 50.6591 341.553 50.6591C342.496 50.6591 343.238 50.8636 343.78 51.2727C344.321 51.678 344.679 52.2216 344.854 52.9034ZM350.966 50.7727V52.1364H346.199V50.7727H350.966ZM347.477 48.6818H349.176V56.9375C349.176 57.267 349.225 57.5152 349.324 57.6818C349.422 57.8447 349.549 57.9564 349.705 58.017C349.864 58.0739 350.036 58.1023 350.222 58.1023C350.358 58.1023 350.477 58.0928 350.58 58.0739C350.682 58.0549 350.761 58.0398 350.818 58.0284L351.125 59.4318C351.027 59.4697 350.886 59.5076 350.705 59.5455C350.523 59.5871 350.295 59.6098 350.023 59.6136C349.576 59.6212 349.159 59.5417 348.773 59.375C348.386 59.2083 348.074 58.9508 347.835 58.6023C347.597 58.2538 347.477 57.8163 347.477 57.2898V48.6818ZM356.513 59.6761C355.653 59.6761 354.912 59.4924 354.291 59.125C353.674 58.7538 353.196 58.233 352.859 57.5625C352.526 56.8883 352.359 56.0985 352.359 55.1932C352.359 54.2992 352.526 53.5114 352.859 52.8295C353.196 52.1477 353.666 51.6155 354.268 51.233C354.875 50.8504 355.583 50.6591 356.393 50.6591C356.886 50.6591 357.363 50.7405 357.825 50.9034C358.287 51.0663 358.702 51.322 359.07 51.6705C359.437 52.0189 359.727 52.4716 359.939 53.0284C360.151 53.5814 360.257 54.2538 360.257 55.0455V55.6477H353.32V54.375H358.592C358.592 53.928 358.501 53.5322 358.32 53.1875C358.138 52.839 357.882 52.5644 357.553 52.3636C357.227 52.1629 356.844 52.0625 356.405 52.0625C355.928 52.0625 355.511 52.1799 355.155 52.4148C354.803 52.6458 354.53 52.9489 354.337 53.3239C354.147 53.6951 354.053 54.0985 354.053 54.5341V55.5284C354.053 56.1117 354.155 56.608 354.359 57.017C354.568 57.4261 354.857 57.7386 355.229 57.9545C355.6 58.1667 356.034 58.2727 356.53 58.2727C356.852 58.2727 357.145 58.2273 357.411 58.1364C357.676 58.0417 357.905 57.9015 358.098 57.7159C358.291 57.5303 358.439 57.3011 358.541 57.0284L360.149 57.3182C360.02 57.7917 359.789 58.2064 359.456 58.5625C359.126 58.9148 358.712 59.1894 358.212 59.3864C357.715 59.5795 357.149 59.6761 356.513 59.6761ZM365.409 59.6705C364.705 59.6705 364.076 59.4905 363.523 59.1307C362.973 58.767 362.542 58.25 362.227 57.5795C361.917 56.9053 361.761 56.0966 361.761 55.1534C361.761 54.2102 361.919 53.4034 362.233 52.733C362.551 52.0625 362.987 51.5492 363.54 51.1932C364.093 50.8371 364.72 50.6591 365.42 50.6591C365.962 50.6591 366.398 50.75 366.727 50.9318C367.061 51.1098 367.318 51.3182 367.5 51.5568C367.686 51.7955 367.83 52.0057 367.932 52.1875H368.034V47.8636H369.733V59.5H368.074V58.142H367.932C367.83 58.3277 367.682 58.5398 367.489 58.7784C367.299 59.017 367.038 59.2254 366.705 59.4034C366.371 59.5814 365.939 59.6705 365.409 59.6705ZM365.784 58.2216C366.273 58.2216 366.686 58.0928 367.023 57.8352C367.364 57.5739 367.621 57.2121 367.795 56.75C367.973 56.2879 368.062 55.75 368.062 55.1364C368.062 54.5303 367.975 54 367.801 53.5455C367.627 53.0909 367.371 52.7367 367.034 52.483C366.697 52.2292 366.28 52.1023 365.784 52.1023C365.273 52.1023 364.847 52.2348 364.506 52.5C364.165 52.7652 363.907 53.1269 363.733 53.5852C363.563 54.0436 363.477 54.5606 363.477 55.1364C363.477 55.7197 363.564 56.2443 363.739 56.7102C363.913 57.1761 364.17 57.5455 364.511 57.8182C364.856 58.0871 365.28 58.2216 365.784 58.2216ZM376.528 59.5V47.8636H378.227V52.1875H378.33C378.428 52.0057 378.57 51.7955 378.756 51.5568C378.941 51.3182 379.199 51.1098 379.528 50.9318C379.858 50.75 380.294 50.6591 380.835 50.6591C381.54 50.6591 382.169 50.8371 382.722 51.1932C383.275 51.5492 383.708 52.0625 384.023 52.733C384.341 53.4034 384.5 54.2102 384.5 55.1534C384.5 56.0966 384.343 56.9053 384.028 57.5795C383.714 58.25 383.282 58.767 382.733 59.1307C382.184 59.4905 381.557 59.6705 380.852 59.6705C380.322 59.6705 379.888 59.5814 379.551 59.4034C379.218 59.2254 378.956 59.017 378.767 58.7784C378.578 58.5398 378.432 58.3277 378.33 58.142H378.188V59.5H376.528ZM378.193 55.1364C378.193 55.75 378.282 56.2879 378.46 56.75C378.638 57.2121 378.896 57.5739 379.233 57.8352C379.57 58.0928 379.983 58.2216 380.472 58.2216C380.979 58.2216 381.403 58.0871 381.744 57.8182C382.085 57.5455 382.343 57.1761 382.517 56.7102C382.695 56.2443 382.784 55.7197 382.784 55.1364C382.784 54.5606 382.697 54.0436 382.523 53.5852C382.352 53.1269 382.095 52.7652 381.75 52.5C381.409 52.2348 380.983 52.1023 380.472 52.1023C379.979 52.1023 379.562 52.2292 379.222 52.483C378.884 52.7367 378.629 53.0909 378.455 53.5455C378.28 54 378.193 54.5303 378.193 55.1364ZM387.185 62.7727C386.931 62.7727 386.7 62.7519 386.491 62.7102C386.283 62.6723 386.128 62.6307 386.026 62.5852L386.435 61.1932C386.745 61.2765 387.022 61.3125 387.264 61.3011C387.507 61.2898 387.721 61.1989 387.906 61.0284C388.096 60.858 388.262 60.5795 388.406 60.1932L388.616 59.6136L385.423 50.7727H387.241L389.452 57.5455H389.543L391.753 50.7727H393.577L389.98 60.6648C389.813 61.1193 389.601 61.5038 389.344 61.8182C389.086 62.1364 388.779 62.375 388.423 62.5341C388.067 62.6932 387.654 62.7727 387.185 62.7727ZM403.226 59.6591C402.514 59.6591 401.874 59.5227 401.305 59.25C400.741 58.9735 400.29 58.5947 399.953 58.1136C399.616 57.6326 399.436 57.0833 399.413 56.4659H401.118C401.16 56.9659 401.381 57.3769 401.783 57.6989C402.184 58.0208 402.665 58.1818 403.226 58.1818C403.673 58.1818 404.069 58.0795 404.413 57.875C404.762 57.6667 405.035 57.3807 405.232 57.017C405.432 56.6534 405.533 56.2386 405.533 55.7727C405.533 55.2992 405.43 54.8769 405.226 54.5057C405.021 54.1345 404.739 53.8428 404.379 53.6307C404.023 53.4186 403.614 53.3106 403.152 53.3068C402.8 53.3068 402.446 53.3674 402.089 53.4886C401.733 53.6098 401.446 53.7689 401.226 53.9659L399.618 53.7273L400.271 47.8636H406.669V49.3693H401.732L401.362 52.625H401.43C401.658 52.4053 401.959 52.2216 402.334 52.0739C402.713 51.9261 403.118 51.8523 403.55 51.8523C404.258 51.8523 404.889 52.0208 405.442 52.358C405.999 52.6951 406.436 53.1553 406.754 53.7386C407.076 54.3182 407.235 54.9848 407.232 55.7386C407.235 56.4924 407.065 57.1648 406.72 57.7557C406.379 58.3466 405.906 58.8125 405.3 59.1534C404.697 59.4905 404.006 59.6591 403.226 59.6591ZM413.358 59.6932C412.46 59.6894 411.693 59.4527 411.057 58.983C410.42 58.5133 409.934 57.8295 409.597 56.9318C409.259 56.0341 409.091 54.9527 409.091 53.6875C409.091 52.4261 409.259 51.3485 409.597 50.4545C409.938 49.5606 410.426 48.8788 411.062 48.4091C411.703 47.9394 412.468 47.7045 413.358 47.7045C414.248 47.7045 415.011 47.9413 415.648 48.4148C416.284 48.8845 416.771 49.5663 417.108 50.4602C417.449 51.3504 417.619 52.4261 417.619 53.6875C417.619 54.9564 417.451 56.0398 417.114 56.9375C416.777 57.8314 416.29 58.5152 415.653 58.9886C415.017 59.4583 414.252 59.6932 413.358 59.6932ZM413.358 58.1761C414.146 58.1761 414.761 57.7917 415.205 57.0227C415.652 56.2538 415.875 55.142 415.875 53.6875C415.875 52.7216 415.773 51.9053 415.568 51.2386C415.367 50.5682 415.078 50.0606 414.699 49.7159C414.324 49.3674 413.877 49.1932 413.358 49.1932C412.574 49.1932 411.958 49.5795 411.511 50.3523C411.064 51.125 410.839 52.2367 410.835 53.6875C410.835 54.6572 410.936 55.4773 411.136 56.1477C411.341 56.8144 411.631 57.3201 412.006 57.6648C412.381 58.0057 412.831 58.1761 413.358 58.1761ZM423.686 59.6932C422.788 59.6894 422.021 59.4527 421.385 58.983C420.749 58.5133 420.262 57.8295 419.925 56.9318C419.588 56.0341 419.419 54.9527 419.419 53.6875C419.419 52.4261 419.588 51.3485 419.925 50.4545C420.266 49.5606 420.754 48.8788 421.391 48.4091C422.031 47.9394 422.796 47.7045 423.686 47.7045C424.576 47.7045 425.339 47.9413 425.976 48.4148C426.612 48.8845 427.099 49.5663 427.436 50.4602C427.777 51.3504 427.947 52.4261 427.947 53.6875C427.947 54.9564 427.779 56.0398 427.442 56.9375C427.105 57.8314 426.618 58.5152 425.982 58.9886C425.345 59.4583 424.58 59.6932 423.686 59.6932ZM423.686 58.1761C424.474 58.1761 425.089 57.7917 425.533 57.0227C425.98 56.2538 426.203 55.142 426.203 53.6875C426.203 52.7216 426.101 51.9053 425.896 51.2386C425.696 50.5682 425.406 50.0606 425.027 49.7159C424.652 49.3674 424.205 49.1932 423.686 49.1932C422.902 49.1932 422.286 49.5795 421.839 50.3523C421.393 51.125 421.167 52.2367 421.163 53.6875C421.163 54.6572 421.264 55.4773 421.464 56.1477C421.669 56.8144 421.959 57.3201 422.334 57.6648C422.709 58.0057 423.16 58.1761 423.686 58.1761ZM434.014 59.6932C433.116 59.6894 432.349 59.4527 431.713 58.983C431.077 58.5133 430.59 57.8295 430.253 56.9318C429.916 56.0341 429.747 54.9527 429.747 53.6875C429.747 52.4261 429.916 51.3485 430.253 50.4545C430.594 49.5606 431.082 48.8788 431.719 48.4091C432.359 47.9394 433.124 47.7045 434.014 47.7045C434.904 47.7045 435.668 47.9413 436.304 48.4148C436.94 48.8845 437.427 49.5663 437.764 50.4602C438.105 51.3504 438.276 52.4261 438.276 53.6875C438.276 54.9564 438.107 56.0398 437.77 56.9375C437.433 57.8314 436.946 58.5152 436.31 58.9886C435.673 59.4583 434.908 59.6932 434.014 59.6932ZM434.014 58.1761C434.802 58.1761 435.418 57.7917 435.861 57.0227C436.308 56.2538 436.531 55.142 436.531 53.6875C436.531 52.7216 436.429 51.9053 436.224 51.2386C436.024 50.5682 435.734 50.0606 435.355 49.7159C434.98 49.3674 434.533 49.1932 434.014 49.1932C433.23 49.1932 432.615 49.5795 432.168 50.3523C431.721 51.125 431.495 52.2367 431.491 53.6875C431.491 54.6572 431.592 55.4773 431.793 56.1477C431.997 56.8144 432.287 57.3201 432.662 57.6648C433.037 58.0057 433.488 58.1761 434.014 58.1761ZM443.734 57.5455V49.8636H445.263V57.5455H443.734ZM440.661 54.4659V52.9432H448.342V54.4659H440.661ZM322.943 78.6477H321.17C321.102 78.2689 320.975 77.9356 320.79 77.6477C320.604 77.3598 320.377 77.1155 320.108 76.9148C319.839 76.714 319.538 76.5625 319.205 76.4602C318.875 76.358 318.525 76.3068 318.153 76.3068C317.483 76.3068 316.883 76.4754 316.352 76.8125C315.826 77.1496 315.409 77.6439 315.102 78.2955C314.799 78.947 314.648 79.7424 314.648 80.6818C314.648 81.6288 314.799 82.428 315.102 83.0795C315.409 83.7311 315.828 84.2235 316.358 84.5568C316.888 84.8902 317.485 85.0568 318.148 85.0568C318.515 85.0568 318.864 85.0076 319.193 84.9091C319.527 84.8068 319.828 84.6572 320.097 84.4602C320.366 84.2633 320.593 84.0227 320.778 83.7386C320.968 83.4508 321.098 83.1212 321.17 82.75L322.943 82.7557C322.848 83.3277 322.665 83.8542 322.392 84.3352C322.123 84.8125 321.777 85.2254 321.352 85.5739C320.932 85.9186 320.451 86.1856 319.909 86.375C319.367 86.5644 318.777 86.6591 318.136 86.6591C317.129 86.6591 316.231 86.4205 315.443 85.9432C314.655 85.4621 314.034 84.7746 313.58 83.8807C313.129 82.9867 312.903 81.9205 312.903 80.6818C312.903 79.4394 313.131 78.3731 313.585 77.483C314.04 76.589 314.661 75.9034 315.449 75.4261C316.237 74.9451 317.133 74.7045 318.136 74.7045C318.754 74.7045 319.33 74.7936 319.864 74.9716C320.402 75.1458 320.884 75.4034 321.312 75.7443C321.741 76.0814 322.095 76.4943 322.375 76.983C322.655 77.4678 322.845 78.0227 322.943 78.6477ZM328.584 86.6761C327.766 86.6761 327.052 86.4886 326.442 86.1136C325.832 85.7386 325.358 85.214 325.021 84.5398C324.684 83.8655 324.516 83.0777 324.516 82.1761C324.516 81.2708 324.684 80.4792 325.021 79.8011C325.358 79.1231 325.832 78.5966 326.442 78.2216C327.052 77.8466 327.766 77.6591 328.584 77.6591C329.402 77.6591 330.116 77.8466 330.726 78.2216C331.336 78.5966 331.809 79.1231 332.146 79.8011C332.483 80.4792 332.652 81.2708 332.652 82.1761C332.652 83.0777 332.483 83.8655 332.146 84.5398C331.809 85.214 331.336 85.7386 330.726 86.1136C330.116 86.4886 329.402 86.6761 328.584 86.6761ZM328.589 85.25C329.12 85.25 329.559 85.1098 329.908 84.8295C330.256 84.5492 330.514 84.1761 330.68 83.7102C330.851 83.2443 330.936 82.7311 330.936 82.1705C330.936 81.6136 330.851 81.1023 330.68 80.6364C330.514 80.1667 330.256 79.7898 329.908 79.5057C329.559 79.2216 329.12 79.0795 328.589 79.0795C328.055 79.0795 327.612 79.2216 327.26 79.5057C326.911 79.7898 326.652 80.1667 326.482 80.6364C326.315 81.1023 326.232 81.6136 326.232 82.1705C326.232 82.7311 326.315 83.2443 326.482 83.7102C326.652 84.1761 326.911 84.5492 327.26 84.8295C327.612 85.1098 328.055 85.25 328.589 85.25ZM334.548 86.5V77.7727H336.179V79.1932H336.287C336.469 78.7121 336.766 78.3371 337.179 78.0682C337.592 77.7955 338.086 77.6591 338.662 77.6591C339.245 77.6591 339.734 77.7955 340.128 78.0682C340.526 78.3409 340.819 78.7159 341.009 79.1932H341.099C341.308 78.7273 341.639 78.3561 342.094 78.0795C342.548 77.7992 343.09 77.6591 343.719 77.6591C344.51 77.6591 345.156 77.9072 345.656 78.4034C346.16 78.8996 346.412 79.6477 346.412 80.6477V86.5H344.713V80.8068C344.713 80.2159 344.552 79.7879 344.23 79.5227C343.908 79.2576 343.524 79.125 343.077 79.125C342.524 79.125 342.094 79.2955 341.787 79.6364C341.48 79.9735 341.327 80.4072 341.327 80.9375V86.5H339.634V80.6989C339.634 80.2254 339.486 79.8447 339.19 79.5568C338.895 79.2689 338.51 79.125 338.037 79.125C337.715 79.125 337.418 79.2102 337.145 79.3807C336.876 79.5473 336.658 79.7803 336.491 80.0795C336.329 80.3788 336.247 80.7254 336.247 81.1193V86.5H334.548ZM348.689 89.7727V77.7727H350.348V79.1875H350.49C350.589 79.0057 350.731 78.7955 350.916 78.5568C351.102 78.3182 351.359 78.1098 351.689 77.9318C352.018 77.75 352.454 77.6591 352.996 77.6591C353.7 77.6591 354.329 77.8371 354.882 78.1932C355.435 78.5492 355.869 79.0625 356.183 79.733C356.501 80.4034 356.661 81.2102 356.661 82.1534C356.661 83.0966 356.503 83.9053 356.189 84.5795C355.875 85.25 355.443 85.767 354.893 86.1307C354.344 86.4905 353.717 86.6705 353.013 86.6705C352.482 86.6705 352.049 86.5814 351.712 86.4034C351.378 86.2254 351.117 86.017 350.928 85.7784C350.738 85.5398 350.592 85.3277 350.49 85.142H350.388V89.7727H348.689ZM350.354 82.1364C350.354 82.75 350.443 83.2879 350.621 83.75C350.799 84.2121 351.056 84.5739 351.393 84.8352C351.731 85.0928 352.143 85.2216 352.632 85.2216C353.14 85.2216 353.564 85.0871 353.905 84.8182C354.246 84.5455 354.503 84.1761 354.678 83.7102C354.856 83.2443 354.945 82.7197 354.945 82.1364C354.945 81.5606 354.857 81.0436 354.683 80.5852C354.513 80.1269 354.255 79.7652 353.911 79.5C353.57 79.2348 353.143 79.1023 352.632 79.1023C352.14 79.1023 351.723 79.2292 351.382 79.483C351.045 79.7367 350.789 80.0909 350.615 80.5455C350.441 81 350.354 81.5303 350.354 82.1364ZM361.104 86.6932C360.551 86.6932 360.051 86.5909 359.604 86.3864C359.157 86.178 358.803 85.8769 358.541 85.483C358.284 85.089 358.155 84.6061 358.155 84.0341C358.155 83.5417 358.25 83.1364 358.439 82.8182C358.628 82.5 358.884 82.2481 359.206 82.0625C359.528 81.8769 359.888 81.7367 360.286 81.642C360.683 81.5473 361.089 81.4754 361.501 81.4261C362.024 81.3655 362.448 81.3163 362.774 81.2784C363.1 81.2367 363.337 81.1705 363.484 81.0795C363.632 80.9886 363.706 80.8409 363.706 80.6364V80.5966C363.706 80.1004 363.566 79.7159 363.286 79.4432C363.009 79.1705 362.596 79.0341 362.047 79.0341C361.475 79.0341 361.024 79.161 360.695 79.4148C360.369 79.6648 360.143 79.9432 360.018 80.25L358.422 79.8864C358.611 79.3561 358.888 78.928 359.251 78.6023C359.619 78.2727 360.041 78.0341 360.518 77.8864C360.996 77.7348 361.498 77.6591 362.024 77.6591C362.373 77.6591 362.742 77.7008 363.132 77.7841C363.526 77.8636 363.893 78.0114 364.234 78.2273C364.579 78.4432 364.861 78.7519 365.081 79.1534C365.301 79.5511 365.411 80.0682 365.411 80.7045V86.5H363.751V85.3068H363.683C363.573 85.5265 363.409 85.7424 363.189 85.9545C362.969 86.1667 362.687 86.3428 362.342 86.483C361.998 86.6231 361.585 86.6932 361.104 86.6932ZM361.473 85.3295C361.943 85.3295 362.344 85.2367 362.678 85.0511C363.015 84.8655 363.27 84.6231 363.445 84.3239C363.623 84.0208 363.712 83.697 363.712 83.3523V82.2273C363.651 82.2879 363.534 82.3447 363.359 82.3977C363.189 82.447 362.994 82.4905 362.774 82.5284C362.554 82.5625 362.34 82.5947 362.132 82.625C361.924 82.6515 361.75 82.6742 361.609 82.6932C361.28 82.7348 360.979 82.8049 360.706 82.9034C360.437 83.0019 360.221 83.1439 360.058 83.3295C359.899 83.5114 359.82 83.7538 359.82 84.0568C359.82 84.4773 359.975 84.7955 360.286 85.0114C360.596 85.2235 360.992 85.3295 361.473 85.3295ZM369.372 81.3182V86.5H367.673V77.7727H369.304V79.1932H369.412C369.613 78.7311 369.927 78.3598 370.355 78.0795C370.787 77.7992 371.33 77.6591 371.986 77.6591C372.58 77.6591 373.101 77.7841 373.548 78.0341C373.995 78.2803 374.342 78.6477 374.588 79.1364C374.834 79.625 374.957 80.2292 374.957 80.9489V86.5H373.259V81.1534C373.259 80.5208 373.094 80.0265 372.764 79.6705C372.435 79.3106 371.982 79.1307 371.406 79.1307C371.012 79.1307 370.662 79.2159 370.355 79.3864C370.052 79.5568 369.812 79.8068 369.634 80.1364C369.459 80.4621 369.372 80.8561 369.372 81.3182ZM377.236 86.5V77.7727H378.935V86.5H377.236ZM378.094 76.4261C377.798 76.4261 377.545 76.3277 377.332 76.1307C377.124 75.9299 377.02 75.6913 377.02 75.4148C377.02 75.1345 377.124 74.8958 377.332 74.6989C377.545 74.4981 377.798 74.3977 378.094 74.3977C378.389 74.3977 378.641 74.4981 378.849 74.6989C379.062 74.8958 379.168 75.1345 379.168 75.4148C379.168 75.6913 379.062 75.9299 378.849 76.1307C378.641 76.3277 378.389 76.4261 378.094 76.4261ZM384.982 86.6761C384.122 86.6761 383.381 86.4924 382.76 86.125C382.143 85.7538 381.665 85.233 381.328 84.5625C380.995 83.8883 380.828 83.0985 380.828 82.1932C380.828 81.2992 380.995 80.5114 381.328 79.8295C381.665 79.1477 382.135 78.6155 382.737 78.233C383.343 77.8504 384.052 77.6591 384.862 77.6591C385.355 77.6591 385.832 77.7405 386.294 77.9034C386.756 78.0663 387.171 78.322 387.538 78.6705C387.906 79.0189 388.196 79.4716 388.408 80.0284C388.62 80.5814 388.726 81.2538 388.726 82.0455V82.6477H381.788V81.375H387.061C387.061 80.928 386.97 80.5322 386.788 80.1875C386.607 79.839 386.351 79.5644 386.021 79.3636C385.696 79.1629 385.313 79.0625 384.874 79.0625C384.396 79.0625 383.98 79.1799 383.624 79.4148C383.271 79.6458 382.999 79.9489 382.805 80.3239C382.616 80.6951 382.521 81.0985 382.521 81.5341V82.5284C382.521 83.1117 382.624 83.608 382.828 84.017C383.036 84.4261 383.326 84.7386 383.697 84.9545C384.069 85.1667 384.502 85.2727 384.999 85.2727C385.321 85.2727 385.614 85.2273 385.879 85.1364C386.144 85.0417 386.374 84.9015 386.567 84.7159C386.76 84.5303 386.908 84.3011 387.01 84.0284L388.618 84.3182C388.489 84.7917 388.258 85.2064 387.925 85.5625C387.595 85.9148 387.18 86.1894 386.68 86.3864C386.184 86.5795 385.618 86.6761 384.982 86.6761ZM397.151 79.9034L395.611 80.1761C395.546 79.9792 395.444 79.7917 395.304 79.6136C395.168 79.4356 394.982 79.2898 394.747 79.1761C394.512 79.0625 394.219 79.0057 393.866 79.0057C393.385 79.0057 392.984 79.1136 392.662 79.3295C392.34 79.5417 392.179 79.8163 392.179 80.1534C392.179 80.4451 392.287 80.6799 392.503 80.858C392.719 81.036 393.067 81.1818 393.548 81.2955L394.935 81.6136C395.738 81.7992 396.336 82.0852 396.73 82.4716C397.124 82.858 397.321 83.3598 397.321 83.9773C397.321 84.5 397.17 84.9659 396.866 85.375C396.567 85.7803 396.149 86.0985 395.611 86.3295C395.077 86.5606 394.457 86.6761 393.753 86.6761C392.776 86.6761 391.978 86.4678 391.361 86.0511C390.743 85.6307 390.365 85.0341 390.224 84.2614L391.866 84.0114C391.969 84.4394 392.179 84.7633 392.497 84.983C392.815 85.1989 393.23 85.3068 393.741 85.3068C394.298 85.3068 394.743 85.1913 395.077 84.9602C395.41 84.7254 395.577 84.4394 395.577 84.1023C395.577 83.8295 395.474 83.6004 395.27 83.4148C395.069 83.2292 394.76 83.089 394.344 82.9943L392.866 82.6705C392.052 82.4848 391.45 82.1894 391.06 81.7841C390.673 81.3788 390.48 80.8655 390.48 80.2443C390.48 79.7292 390.624 79.2784 390.912 78.892C391.2 78.5057 391.598 78.2045 392.105 77.9886C392.613 77.7689 393.194 77.6591 393.849 77.6591C394.793 77.6591 395.535 77.8636 396.077 78.2727C396.618 78.678 396.976 79.2216 397.151 79.9034ZM405.315 86.5L402.747 77.7727H404.503L406.213 84.1818H406.298L408.014 77.7727H409.77L411.474 84.1534H411.56L413.259 77.7727H415.014L412.452 86.5H410.719L408.946 80.1989H408.815L407.043 86.5H405.315ZM420.037 86.6761C419.219 86.6761 418.505 86.4886 417.895 86.1136C417.285 85.7386 416.812 85.214 416.474 84.5398C416.137 83.8655 415.969 83.0777 415.969 82.1761C415.969 81.2708 416.137 80.4792 416.474 79.8011C416.812 79.1231 417.285 78.5966 417.895 78.2216C418.505 77.8466 419.219 77.6591 420.037 77.6591C420.855 77.6591 421.569 77.8466 422.179 78.2216C422.789 78.5966 423.262 79.1231 423.599 79.8011C423.937 80.4792 424.105 81.2708 424.105 82.1761C424.105 83.0777 423.937 83.8655 423.599 84.5398C423.262 85.214 422.789 85.7386 422.179 86.1136C421.569 86.4886 420.855 86.6761 420.037 86.6761ZM420.043 85.25C420.573 85.25 421.012 85.1098 421.361 84.8295C421.709 84.5492 421.967 84.1761 422.134 83.7102C422.304 83.2443 422.389 82.7311 422.389 82.1705C422.389 81.6136 422.304 81.1023 422.134 80.6364C421.967 80.1667 421.709 79.7898 421.361 79.5057C421.012 79.2216 420.573 79.0795 420.043 79.0795C419.509 79.0795 419.065 79.2216 418.713 79.5057C418.365 79.7898 418.105 80.1667 417.935 80.6364C417.768 81.1023 417.685 81.6136 417.685 82.1705C417.685 82.7311 417.768 83.2443 417.935 83.7102C418.105 84.1761 418.365 84.5492 418.713 84.8295C419.065 85.1098 419.509 85.25 420.043 85.25ZM426.001 86.5V77.7727H427.643V79.1591H427.734C427.893 78.6894 428.174 78.3201 428.575 78.0511C428.981 77.7784 429.439 77.642 429.95 77.642C430.056 77.642 430.181 77.6458 430.325 77.6534C430.473 77.661 430.589 77.6705 430.672 77.6818V79.3068C430.604 79.2879 430.482 79.267 430.308 79.2443C430.134 79.2178 429.96 79.2045 429.786 79.2045C429.384 79.2045 429.026 79.2898 428.712 79.4602C428.401 79.6269 428.155 79.8598 427.973 80.1591C427.791 80.4545 427.7 80.7917 427.7 81.1705V86.5H426.001ZM433.841 74.8636V86.5H432.142V74.8636H433.841ZM439.393 86.6705C438.689 86.6705 438.06 86.4905 437.507 86.1307C436.958 85.767 436.526 85.25 436.212 84.5795C435.901 83.9053 435.746 83.0966 435.746 82.1534C435.746 81.2102 435.903 80.4034 436.217 79.733C436.536 79.0625 436.971 78.5492 437.524 78.1932C438.077 77.8371 438.704 77.6591 439.405 77.6591C439.946 77.6591 440.382 77.75 440.712 77.9318C441.045 78.1098 441.303 78.3182 441.484 78.5568C441.67 78.7955 441.814 79.0057 441.916 79.1875H442.018V74.8636H443.717V86.5H442.058V85.142H441.916C441.814 85.3277 441.666 85.5398 441.473 85.7784C441.284 86.017 441.022 86.2254 440.689 86.4034C440.356 86.5814 439.924 86.6705 439.393 86.6705ZM439.768 85.2216C440.257 85.2216 440.67 85.0928 441.007 84.8352C441.348 84.5739 441.606 84.2121 441.78 83.75C441.958 83.2879 442.047 82.75 442.047 82.1364C442.047 81.5303 441.96 81 441.786 80.5455C441.611 80.0909 441.356 79.7367 441.018 79.483C440.681 79.2292 440.265 79.1023 439.768 79.1023C439.257 79.1023 438.831 79.2348 438.49 79.5C438.149 79.7652 437.892 80.1269 437.717 80.5852C437.547 81.0436 437.462 81.5606 437.462 82.1364C437.462 82.7197 437.549 83.2443 437.723 83.7102C437.897 84.1761 438.155 84.5455 438.496 84.8182C438.84 85.0871 439.265 85.2216 439.768 85.2216ZM448.034 86.5L445.466 77.7727H447.222L448.932 84.1818H449.017L450.733 77.7727H452.489L454.193 84.1534H454.278L455.977 77.7727H457.733L455.17 86.5H453.438L451.665 80.1989H451.534L449.761 86.5H448.034ZM459.345 86.5V77.7727H461.044V86.5H459.345ZM460.203 76.4261C459.908 76.4261 459.654 76.3277 459.442 76.1307C459.233 75.9299 459.129 75.6913 459.129 75.4148C459.129 75.1345 459.233 74.8958 459.442 74.6989C459.654 74.4981 459.908 74.3977 460.203 74.3977C460.499 74.3977 460.75 74.4981 460.959 74.6989C461.171 74.8958 461.277 75.1345 461.277 75.4148C461.277 75.6913 461.171 75.9299 460.959 76.1307C460.75 76.3277 460.499 76.4261 460.203 76.4261ZM466.597 86.6705C465.892 86.6705 465.263 86.4905 464.71 86.1307C464.161 85.767 463.729 85.25 463.415 84.5795C463.104 83.9053 462.949 83.0966 462.949 82.1534C462.949 81.2102 463.106 80.4034 463.42 79.733C463.739 79.0625 464.174 78.5492 464.727 78.1932C465.28 77.8371 465.907 77.6591 466.608 77.6591C467.15 77.6591 467.585 77.75 467.915 77.9318C468.248 78.1098 468.506 78.3182 468.688 78.5568C468.873 78.7955 469.017 79.0057 469.119 79.1875H469.222V74.8636H470.92V86.5H469.261V85.142H469.119C469.017 85.3277 468.869 85.5398 468.676 85.7784C468.487 86.017 468.225 86.2254 467.892 86.4034C467.559 86.5814 467.127 86.6705 466.597 86.6705ZM466.972 85.2216C467.46 85.2216 467.873 85.0928 468.21 84.8352C468.551 84.5739 468.809 84.2121 468.983 83.75C469.161 83.2879 469.25 82.75 469.25 82.1364C469.25 81.5303 469.163 81 468.989 80.5455C468.814 80.0909 468.559 79.7367 468.222 79.483C467.884 79.2292 467.468 79.1023 466.972 79.1023C466.46 79.1023 466.034 79.2348 465.693 79.5C465.352 79.7652 465.095 80.1269 464.92 80.5852C464.75 81.0436 464.665 81.5606 464.665 82.1364C464.665 82.7197 464.752 83.2443 464.926 83.7102C465.1 84.1761 465.358 84.5455 465.699 84.8182C466.044 85.0871 466.468 85.2216 466.972 85.2216ZM477.107 86.6761C476.247 86.6761 475.506 86.4924 474.885 86.125C474.268 85.7538 473.79 85.233 473.453 84.5625C473.12 83.8883 472.953 83.0985 472.953 82.1932C472.953 81.2992 473.12 80.5114 473.453 79.8295C473.79 79.1477 474.26 78.6155 474.862 78.233C475.468 77.8504 476.177 77.6591 476.987 77.6591C477.48 77.6591 477.957 77.7405 478.419 77.9034C478.881 78.0663 479.296 78.322 479.663 78.6705C480.031 79.0189 480.321 79.4716 480.533 80.0284C480.745 80.5814 480.851 81.2538 480.851 82.0455V82.6477H473.913V81.375H479.186C479.186 80.928 479.095 80.5322 478.913 80.1875C478.732 79.839 478.476 79.5644 478.146 79.3636C477.821 79.1629 477.438 79.0625 476.999 79.0625C476.521 79.0625 476.105 79.1799 475.749 79.4148C475.396 79.6458 475.124 79.9489 474.93 80.3239C474.741 80.6951 474.646 81.0985 474.646 81.5341V82.5284C474.646 83.1117 474.749 83.608 474.953 84.017C475.161 84.4261 475.451 84.7386 475.822 84.9545C476.194 85.1667 476.627 85.2727 477.124 85.2727C477.446 85.2727 477.739 85.2273 478.004 85.1364C478.269 85.0417 478.499 84.9015 478.692 84.7159C478.885 84.5303 479.033 84.3011 479.135 84.0284L480.743 84.3182C480.614 84.7917 480.383 85.2064 480.05 85.5625C479.72 85.9148 479.305 86.1894 478.805 86.3864C478.309 86.5795 477.743 86.6761 477.107 86.6761Z" fill="#626965"/>
</g>
<rect width="65" height="2" transform="translate(557.29 66.21)" fill="#626965"/>
<g clip-path="url(#clip1_18_2465)">
<g clip-path="url(#clip2_18_2465)">
<g clip-path="url(#clip3_18_2465)">
<g clip-path="url(#clip4_18_2465)">
<g clip-path="url(#clip5_18_2465)">
<path d="M712.273 56.4314L728.514 72.7483V56.4314H724.119V61.5829L718.992 56.4314H712.273ZM710.67 56.9976V73.3591H715.065V68.2068L720.193 73.3591H726.953L710.67 56.9976ZM739.12 70.8137H743.057V73.1445H736.113V60.7452H739.12V70.8145V70.8137ZM748.429 73.2868C747.467 73.2868 746.6 73.0806 745.827 72.6683C745.07 72.2608 744.443 71.6489 744.017 70.9022C743.583 70.1368 743.366 69.2414 743.366 68.2175C743.366 67.2045 743.589 66.3152 744.034 65.5499C744.46 64.7919 745.094 64.1723 745.862 63.7652C746.636 63.3537 747.503 63.1476 748.464 63.1476C749.425 63.1476 750.292 63.3537 751.066 63.766C751.834 64.1728 752.469 64.792 752.894 65.5499C753.34 66.3152 753.562 67.2037 753.562 68.2168C753.562 69.2299 753.333 70.1245 752.877 70.9014C752.444 71.6553 751.803 72.2687 751.03 72.6683C750.257 73.0806 749.39 73.2868 748.429 73.2868ZM748.429 70.6722C749.003 70.6722 749.49 70.4606 749.888 70.036C750.298 69.6129 750.503 69.006 750.503 68.2168C750.503 67.4283 750.303 66.8214 749.906 66.3975C749.726 66.1931 749.504 66.0303 749.255 65.9204C749.006 65.8106 748.736 65.7563 748.464 65.7614C747.878 65.7614 747.392 65.9737 747.005 66.3975C746.618 66.8099 746.425 67.416 746.425 68.2168C746.425 69.006 746.612 69.6122 746.987 70.036C747.167 70.2404 747.389 70.4032 747.638 70.5131C747.887 70.623 748.157 70.6773 748.429 70.6722ZM758.357 63.1476C759.048 63.1476 759.651 63.2891 760.167 63.5714C760.694 63.8537 761.098 64.2252 761.38 64.6845V63.2891H764.386V73.1276C764.386 74.0345 764.204 74.8529 763.841 75.5829C763.49 76.3245 762.944 76.9137 762.206 77.3491C761.48 77.7852 760.571 78.0029 759.481 78.0029C758.028 78.0029 756.85 77.6552 755.948 76.9606C755.046 76.2775 754.53 75.3475 754.401 74.1699H757.372C757.466 74.5468 757.688 74.8406 758.04 75.0529C758.391 75.276 758.825 75.3883 759.341 75.3883C759.962 75.3883 760.454 75.206 760.818 74.8406C761.193 74.4875 761.38 73.9168 761.38 73.1276V71.7329C761.087 72.1922 760.683 72.5691 760.167 72.8637C759.652 73.146 759.047 73.2868 758.357 73.2868C757.548 73.2868 756.815 73.0814 756.159 72.6691C755.503 72.2452 754.981 71.6506 754.594 70.8845C754.22 70.1075 754.032 69.2129 754.032 68.1999C754.032 67.1876 754.22 66.2983 754.594 65.5329C754.981 64.7675 755.502 64.1791 756.159 63.7668C756.815 63.3545 757.548 63.1483 758.357 63.1483V63.1476ZM761.38 68.2168C761.38 67.4629 761.169 66.8683 760.747 66.4329C760.556 66.2226 760.323 66.0554 760.062 65.9426C759.801 65.8299 759.519 65.7741 759.235 65.7791C758.637 65.7791 758.127 65.9976 757.706 66.4329C757.296 66.8568 757.09 67.446 757.09 68.1991C757.09 68.9529 757.296 69.5529 757.706 70.0014C758.128 70.4368 758.637 70.6552 759.235 70.6552C759.833 70.6552 760.337 70.4368 760.747 70.0014C761.169 69.5652 761.38 68.9706 761.38 68.2168ZM770.499 73.2868C769.537 73.2868 768.67 73.0806 767.897 72.6683C767.139 72.2608 766.512 71.6489 766.086 70.9022C765.653 70.1368 765.436 69.2414 765.436 68.2175C765.436 67.2045 765.659 66.3152 766.103 65.5499C766.529 64.7917 767.164 64.1722 767.932 63.7652C768.706 63.3537 769.573 63.1476 770.533 63.1476C771.495 63.1476 772.362 63.3537 773.136 63.766C773.904 64.1729 774.538 64.7921 774.963 65.5499C775.41 66.3152 775.632 67.2037 775.632 68.2168C775.632 69.2299 775.403 70.1245 774.947 70.9014C774.513 71.6553 773.873 72.2687 773.1 72.6683C772.327 73.0806 771.46 73.2868 770.499 73.2868ZM770.499 70.6722C771.073 70.6722 771.56 70.4606 771.958 70.036C772.368 69.6129 772.573 69.006 772.573 68.2168C772.573 67.4283 772.373 66.8214 771.975 66.3975C771.795 66.1931 771.573 66.0302 771.324 65.9204C771.076 65.8105 770.806 65.7563 770.533 65.7614C769.948 65.7614 769.461 65.9737 769.075 66.3975C768.688 66.8099 768.494 67.416 768.494 68.2168C768.494 69.006 768.682 69.6122 769.057 70.036C769.237 70.2404 769.459 70.4032 769.708 70.5131C769.957 70.623 770.227 70.6773 770.499 70.6722ZM778.211 62.2637C777.683 62.2637 777.25 62.1114 776.91 61.8052C776.751 61.656 776.626 61.4751 776.541 61.2743C776.456 61.0734 776.414 60.8571 776.418 60.6391C776.418 60.1683 776.582 59.7799 776.91 59.4737C777.25 59.1552 777.683 58.9968 778.21 58.9968C778.727 58.9968 779.149 59.1552 779.477 59.4737C779.817 59.7799 779.987 60.1683 779.987 60.6391C779.987 61.0983 779.817 61.4876 779.477 61.8052C779.149 62.1114 778.727 62.2645 778.211 62.2645V62.2637ZM779.705 63.2891V73.1452H776.699V63.2891H779.705ZM784.363 64.6845C784.665 64.2163 785.083 63.8331 785.575 63.5714C786.09 63.2891 786.695 63.1476 787.387 63.1476C788.195 63.1476 788.927 63.3537 789.583 63.766C790.24 64.1783 790.756 64.7668 791.13 65.5322C791.518 66.2976 791.711 67.186 791.711 68.1991C791.711 69.2122 791.518 70.1068 791.13 70.8837C790.756 71.6499 790.24 72.2445 789.583 72.6683C788.927 73.0806 788.195 73.2868 787.387 73.2868C786.707 73.2868 786.103 73.1452 785.575 72.8629C785.06 72.5799 784.656 72.2152 784.363 71.7675V77.8445H781.357V63.2883H784.363V64.6837V64.6845ZM788.652 68.1999C788.652 67.446 788.441 66.8568 788.019 66.4329C787.609 65.9976 787.099 65.7791 786.49 65.7791C785.892 65.7791 785.382 65.9976 784.96 66.4329C784.55 66.8683 784.345 67.4637 784.345 68.2175C784.345 68.9714 784.55 69.5652 784.96 70.0014C785.382 70.4368 785.891 70.6552 786.49 70.6552C787.088 70.6552 787.597 70.4368 788.019 70.0014C788.441 69.5537 788.652 68.9529 788.652 68.1991V68.1999ZM796.751 73.2868C795.895 73.2868 795.133 73.1391 794.466 72.8452C793.797 72.5506 793.27 72.1499 792.884 71.6437C792.503 71.1427 792.277 70.541 792.233 69.9129H795.204C795.24 70.2545 795.397 70.5306 795.679 70.7437C795.96 70.9552 796.306 71.0606 796.716 71.0606C797.091 71.0606 797.378 70.9906 797.577 70.8491C797.789 70.6952 797.894 70.5014 797.894 70.266C797.894 69.9837 797.747 69.7775 797.454 69.6475C797.161 69.5068 796.686 69.3537 796.03 69.1883C795.327 69.0237 794.741 68.8529 794.272 68.676C793.805 68.4882 793.389 68.1915 793.059 67.8106C792.72 67.4106 792.55 66.8745 792.55 66.2029C792.55 65.6383 792.702 65.126 793.007 64.6668C793.323 64.1952 793.78 63.8245 794.377 63.5537C794.987 63.2829 795.708 63.1476 796.54 63.1476C797.77 63.1476 798.738 63.4537 799.44 64.066C800.156 64.6783 800.566 65.4906 800.671 66.5037H797.894C797.876 66.3446 797.826 66.1907 797.748 66.0511C797.669 65.9116 797.563 65.7893 797.437 65.6914C797.19 65.4914 796.862 65.3914 796.452 65.3914C796.101 65.3914 795.831 65.4614 795.643 65.6029C795.553 65.6623 795.48 65.7439 795.431 65.8399C795.382 65.9359 795.358 66.0429 795.363 66.1506C795.363 66.4329 795.509 66.6452 795.801 66.786C796.106 66.9276 796.576 67.0691 797.208 67.2099C797.935 67.3983 798.527 67.5868 798.983 67.7752C799.44 67.9522 799.84 68.2468 800.179 68.6583C800.531 69.0591 800.712 69.6006 800.724 70.2837C800.73 70.841 800.557 71.3856 800.231 71.8375C799.915 72.286 799.453 72.6391 798.843 72.8983C798.245 73.1568 797.548 73.2868 796.751 73.2868ZM811.722 63.2891V73.1452H808.716V71.8029C808.411 72.2391 807.995 72.5922 807.468 72.8629C806.952 73.1222 806.378 73.2514 805.745 73.2514C804.995 73.2514 804.333 73.0868 803.758 72.7568C803.184 72.4152 802.739 71.926 802.423 71.2906C802.107 70.6545 801.948 69.9068 801.948 69.0475V63.2891H804.937V68.6414C804.937 69.3006 805.107 69.8129 805.446 70.1775C805.786 70.5429 806.243 70.7252 806.817 70.7252C807.403 70.7252 807.866 70.5429 808.206 70.1775C808.547 69.8129 808.716 69.3006 808.716 68.6414V63.2891H811.722ZM825.87 63.1829C827.089 63.1829 828.057 63.5537 828.77 64.2952C829.498 65.0375 829.861 66.0675 829.861 67.3875V73.1452H826.872V67.7929C826.872 67.1575 826.703 66.6683 826.363 66.3268C826.034 65.9737 825.577 65.7968 824.991 65.7968C824.405 65.7968 823.943 65.9737 823.603 66.3275C823.275 66.6683 823.11 67.1575 823.11 67.7929V73.1452H820.122V67.7929C820.122 67.1575 819.952 66.6683 819.612 66.3268C819.283 65.9737 818.827 65.7968 818.241 65.7968C817.655 65.7968 817.192 65.9737 816.852 66.3275C816.524 66.6683 816.36 67.1575 816.36 67.7929V73.1452H813.354V63.2891H816.36V64.5252C816.672 64.1073 817.082 63.7734 817.555 63.5537C818.048 63.3068 818.604 63.1829 819.225 63.1829C819.963 63.1829 820.62 63.3422 821.194 63.6599C821.773 63.9709 822.25 64.4434 822.566 65.0199C822.913 64.4711 823.39 64.0162 823.954 63.6952C824.535 63.3552 825.197 63.1782 825.87 63.1829Z" fill="#626965"/>
</g>
</g>
</g>
<g clip-path="url(#clip6_18_2465)">
<g clip-path="url(#clip7_18_2465)">
<path d="M939.806 65.8135C939.482 66.1407 939.234 66.5353 939.079 66.9692C938.925 67.4031 938.868 67.8657 938.913 68.3241L938.897 68.3087C938.943 68.8481 938.87 69.3908 938.685 69.8995C938.5 70.4081 938.206 70.8705 937.825 71.2547C937.444 71.6371 936.984 71.9317 936.477 72.1178C935.97 72.3039 935.429 72.377 934.891 72.3321L934.907 72.3475C934.263 72.2876 933.617 72.4283 933.057 72.7504C932.496 73.0731 932.048 73.561 931.774 74.1475C931.5 74.7347 931.412 75.3918 931.524 76.0301C931.635 76.6684 931.94 77.2571 932.397 77.7167C932.853 78.1742 933.44 78.4795 934.076 78.5909C934.712 78.7023 935.368 78.6143 935.952 78.339C936.537 78.0622 937.022 77.6117 937.342 77.049C937.662 76.4854 937.801 75.837 937.741 75.1915L937.757 75.207C937.712 74.6675 937.785 74.1246 937.97 73.616C938.155 73.1073 938.449 72.645 938.831 72.261C939.211 71.8786 939.671 71.5841 940.178 71.398C940.685 71.2119 941.226 71.1387 941.764 71.1835L941.747 71.1681C942.273 71.2158 942.803 71.1293 943.286 70.9168C943.77 70.7042 944.191 70.3725 944.512 69.9527C944.833 69.5328 945.043 69.0389 945.123 68.5165C945.204 67.994 945.152 67.4598 944.971 66.9628C944.791 66.4658 944.489 66.0221 944.093 65.6724C943.697 65.3227 943.219 65.0783 942.703 64.9615C942.188 64.8473 941.652 64.8656 941.146 65.0146C940.64 65.1636 940.18 65.4385 939.809 65.8135H939.806ZM933.509 70.3264L933.492 70.311C933.95 70.3576 934.412 70.3015 934.845 70.1467C935.278 69.9918 935.671 69.7422 935.995 69.4161C936.32 69.0896 936.569 68.6949 936.723 68.2606C936.878 67.8263 936.934 67.3632 936.887 66.9047L936.905 66.9201C936.859 66.3808 936.932 65.8381 937.117 65.3294C937.302 64.8208 937.595 64.3584 937.976 63.9741C938.357 63.5917 938.817 63.2971 939.324 63.111C939.831 62.9249 940.372 62.8517 940.91 62.8967L940.894 62.8812C941.537 62.9419 942.184 62.8018 942.744 62.4801C943.306 62.1579 943.754 61.6703 944.028 61.0838C944.303 60.4967 944.391 59.8394 944.28 59.2007C944.169 58.5621 943.864 57.973 943.408 57.513C942.951 57.0551 942.365 56.7495 941.728 56.638C941.092 56.5264 940.436 56.6144 939.851 56.8898C939.266 57.1663 938.781 57.6165 938.461 58.179C938.141 58.7428 938.001 59.3915 938.062 60.0372L938.047 60.021C938.092 60.5604 938.02 61.1032 937.834 61.6119C937.649 62.1205 937.355 62.5829 936.974 62.967C936.593 63.3495 936.133 63.6441 935.626 63.8302C935.119 64.0163 934.578 64.0894 934.04 64.0444L934.055 64.0607C933.598 64.0143 933.136 64.0705 932.704 64.2254C932.271 64.3802 931.878 64.6296 931.554 64.9555C931.229 65.2819 930.98 65.6765 930.825 66.1109C930.671 66.5452 930.615 67.0083 930.661 67.467L930.646 67.4515C930.691 67.991 930.618 68.5338 930.433 69.0425C930.248 69.5511 929.954 70.0134 929.573 70.3975C929.191 70.7798 928.732 71.0742 928.225 71.2603C927.718 71.4464 927.177 71.5197 926.639 71.475L926.655 71.4904C926.011 71.4297 925.365 71.5699 924.804 71.8915C924.243 72.2138 923.794 72.7014 923.52 73.2878C923.245 73.8749 923.158 74.5322 923.269 75.1709C923.38 75.8095 923.684 76.3987 924.141 76.8587C924.597 77.3165 925.184 77.6221 925.82 77.7337C926.457 77.8452 927.112 77.7573 927.697 77.4818C928.282 77.2054 928.768 76.7552 929.087 76.1927C929.408 75.6288 929.547 74.9801 929.487 74.3344L929.503 74.3498C929.458 73.8104 929.53 73.2676 929.715 72.7589C929.901 72.2503 930.194 71.7879 930.575 71.4038C930.956 71.0214 931.416 70.7268 931.923 70.5407C932.43 70.3546 932.971 70.2814 933.509 70.3264ZM927.789 68.6061C928.113 68.2788 928.361 67.884 928.515 67.4499C928.669 67.0158 928.725 66.5531 928.68 66.0947L928.697 66.111C928.652 65.5714 928.725 65.0284 928.91 64.5195C929.095 64.0107 929.389 63.5482 929.771 63.1641C930.152 62.7817 930.612 62.4872 931.119 62.3013C931.626 62.1153 932.167 62.0424 932.705 62.0875L932.688 62.0721C933.332 62.1322 933.978 61.9921 934.539 61.671C935.1 61.3486 935.548 60.861 935.822 60.2747C936.096 59.6878 936.184 59.0308 936.073 58.3925C935.962 57.7542 935.658 57.1653 935.201 56.7055C934.745 56.2479 934.159 55.9424 933.523 55.8307C932.887 55.719 932.231 55.8066 931.647 56.0815C931.062 56.3579 930.576 56.8081 930.257 57.3707C929.936 57.9343 929.797 58.5827 929.857 59.2281L929.842 59.2127C929.887 59.7521 929.814 60.295 929.629 60.8037C929.444 61.3123 929.15 61.7747 928.769 62.1587C928.388 62.5411 927.928 62.8357 927.421 63.0218C926.914 63.2079 926.373 63.281 925.835 63.2361L925.851 63.2515C925.325 63.2036 924.795 63.29 924.311 63.5026C923.828 63.7151 923.406 64.047 923.086 64.467C922.764 64.8868 922.554 65.3807 922.473 65.9032C922.393 66.4257 922.445 66.96 922.625 67.4571C922.805 67.9541 923.107 68.3979 923.504 68.7476C923.9 69.0972 924.379 69.3416 924.894 69.4581C925.41 69.5725 925.945 69.5543 926.452 69.4053C926.958 69.2563 927.418 68.9813 927.789 68.6061ZM954.229 60.057H956.764V72.4452H954.229V60.057ZM958.199 68.2041C958.195 67.314 958.455 66.4426 958.945 65.6995C959.434 64.9585 960.133 64.3794 960.952 64.0358C961.77 63.6921 962.671 63.6001 963.542 63.7716C964.412 63.9431 965.212 64.3702 965.838 64.9984C966.466 65.6283 966.894 66.4297 967.068 67.3019C967.242 68.1742 967.155 69.0785 966.817 69.9012C966.48 70.7238 965.906 71.4278 965.168 71.9241C964.432 72.4186 963.565 72.6827 962.678 72.6827C962.089 72.6896 961.505 72.5784 960.959 72.3558C960.414 72.1332 959.919 71.8037 959.503 71.3867C959.085 70.9691 958.755 70.4725 958.532 69.926C958.308 69.3794 958.195 68.7938 958.2 68.2032L958.199 68.2041ZM964.622 68.2041C964.615 67.9179 964.545 67.6368 964.417 67.3808C964.288 67.1248 964.105 66.9002 963.88 66.7232C963.655 66.5461 963.394 66.4208 963.115 66.3563C962.836 66.2919 962.546 66.2897 962.267 66.3501C961.892 66.431 961.549 66.6211 961.282 66.8962C961.016 67.1714 960.836 67.5194 960.767 67.8964C960.696 68.2733 960.738 68.6626 960.887 69.016C961.035 69.3695 961.285 69.6716 961.603 69.885C961.922 70.0967 962.296 70.2107 962.678 70.2107C962.94 70.2177 963.201 70.17 963.444 70.0707C963.686 69.9714 963.906 69.8226 964.088 69.6338C964.271 69.4451 964.413 69.2206 964.505 68.9744C964.596 68.7282 964.636 68.4665 964.622 68.2041ZM977.26 63.9612V72.0184C977.26 74.8684 975.046 76.0735 972.798 76.0735C972.007 76.1329 971.215 75.9724 970.509 75.6098C969.802 75.2462 969.209 74.6949 968.795 74.0164L970.956 72.7607C971.129 73.1147 971.407 73.407 971.752 73.5982C972.096 73.7894 972.491 73.8701 972.883 73.8295C973.133 73.8644 973.388 73.8424 973.628 73.7651C973.869 73.6877 974.089 73.5571 974.272 73.383C974.455 73.2084 974.598 72.9947 974.688 72.7578C974.778 72.5209 974.814 72.2667 974.793 72.0141V71.2384C974.496 71.6024 974.118 71.8919 973.69 72.0835C973.261 72.275 972.793 72.3634 972.324 72.3415C971.208 72.3059 970.151 71.8363 969.376 71.0327C968.598 70.2271 968.164 69.1513 968.164 68.0318C968.164 66.9123 968.598 65.8366 969.376 65.031C970.15 64.227 971.208 63.7571 972.324 63.7212C972.793 63.6984 973.261 63.7863 973.69 63.978C974.119 64.1696 974.497 64.4596 974.793 64.8244V63.9587L977.26 63.9604V63.9612ZM974.794 68.0327C974.81 67.6231 974.704 67.2178 974.49 66.8685C974.275 66.5192 973.961 66.2418 973.589 66.0715C973.216 65.9025 972.801 65.8494 972.398 65.9193C971.994 65.9892 971.621 66.1787 971.327 66.4632C971.033 66.748 970.831 67.114 970.745 67.5144C970.66 67.9148 970.696 68.3316 970.849 68.7115C971.001 69.0914 971.263 69.4172 971.602 69.6475C971.941 69.8777 972.34 70.0018 972.749 70.0041C973.016 70.0228 973.283 69.9852 973.534 69.8938C973.785 69.8024 974.014 69.6592 974.207 69.4735C974.399 69.2877 974.551 69.0636 974.652 68.8156C974.753 68.5676 974.802 68.3012 974.794 68.0335V68.0327ZM978.695 68.2041C978.691 67.314 978.951 66.4425 979.441 65.6995C979.93 64.9585 980.629 64.3794 981.448 64.0358C982.266 63.6921 983.167 63.6001 984.038 63.7716C984.908 63.9431 985.708 64.3702 986.334 64.9984C986.962 65.6283 987.39 66.4297 987.564 67.3019C987.738 68.1742 987.651 69.0785 987.313 69.9012C986.976 70.7238 986.402 71.4278 985.664 71.9241C984.928 72.4186 984.061 72.6827 983.174 72.6827C982.585 72.6896 982.001 72.5784 981.455 72.3558C980.91 72.1332 980.415 71.8037 979.999 71.3867C979.581 70.9691 979.251 70.4725 979.028 69.926C978.804 69.3794 978.691 68.7938 978.696 68.2032L978.695 68.2041ZM985.118 68.2041C985.111 67.9179 985.041 67.6368 984.913 67.3808C984.784 67.1248 984.601 66.9002 984.376 66.7232C984.151 66.5461 983.89 66.4208 983.611 66.3563C983.332 66.2919 983.042 66.2897 982.763 66.3501C982.388 66.4313 982.047 66.6213 981.78 66.8961C981.581 67.1021 981.429 67.3494 981.335 67.6206C981.242 67.8918 981.209 68.1802 981.24 68.4654C981.27 68.7506 981.363 69.0256 981.512 69.2709C981.661 69.5163 981.861 69.7259 982.1 69.885C982.418 70.0967 982.792 70.2107 983.174 70.2107C983.436 70.2177 983.697 70.1701 983.94 70.0707C984.182 69.9714 984.402 69.8226 984.584 69.6338C984.767 69.4451 984.909 69.2206 985.001 68.9744C985.092 68.7282 985.132 68.4665 985.118 68.2041ZM988.835 61.6864C988.835 61.3849 988.924 61.0901 989.091 60.8392C989.258 60.5882 989.496 60.3921 989.774 60.2755C990.052 60.1598 990.358 60.1294 990.653 60.1883C990.948 60.2473 991.219 60.3928 991.432 60.6064C991.644 60.8202 991.788 61.0919 991.846 61.3874C991.905 61.6828 991.875 61.9889 991.76 62.2674C991.645 62.5458 991.45 62.7841 991.201 62.9525C990.951 63.1208 990.657 63.2117 990.356 63.2138C989.953 63.2097 989.569 63.0475 989.285 62.7621C989 62.476 988.838 62.0899 988.835 61.6864ZM989.092 63.9604H991.627V72.4461H989.087L989.092 63.9604ZM1002.57 68.2032C1002.63 69.3351 1002.24 70.444 1001.48 71.2864C1001.11 71.7019 1000.65 72.0391 1000.15 72.2787C999.641 72.5184 999.093 72.6556 998.534 72.6827C998.064 72.7086 997.594 72.6291 997.158 72.45C996.722 72.2708 996.332 71.9966 996.017 71.6472V75.8395H993.482V63.9604H996.017V64.7575C996.333 64.4091 996.723 64.1354 997.159 63.9565C997.594 63.7775 998.064 63.6978 998.534 63.723C999.093 63.7491 999.642 63.8861 1000.15 64.1259C1000.65 64.3657 1001.11 64.7037 1001.48 65.1201C1001.86 65.5369 1002.15 66.0238 1002.33 66.5529C1002.52 67.082 1002.6 67.6428 1002.57 68.2032ZM1000.04 68.2032C1000.03 67.8063 999.902 67.4209 999.675 67.095C999.448 66.7704 999.131 66.5199 998.762 66.3749C998.394 66.2299 997.991 66.1969 997.604 66.2798C997.217 66.3635 996.863 66.5597 996.587 66.8438C996.311 67.1287 996.124 67.4886 996.051 67.8788C995.977 68.269 996.02 68.6722 996.174 69.0381C996.327 69.4034 996.585 69.7154 996.915 69.9351C997.244 70.1548 997.631 70.2724 998.027 70.2732C998.299 70.2856 998.571 70.24 998.824 70.1395C999.077 70.039 999.305 69.8859 999.495 69.6904C999.685 69.4946 999.831 69.261 999.925 69.0047C1000.02 68.7485 1000.06 68.4753 1000.04 68.2032ZM1010.4 69.8995C1010.4 71.8512 1008.71 72.6827 1006.88 72.6827C1006.14 72.7498 1005.4 72.5933 1004.76 72.2335C1004.11 71.8728 1003.58 71.3258 1003.25 70.6632L1005.44 69.4075C1005.53 69.7139 1005.72 69.9809 1005.98 70.1632C1006.24 70.3456 1006.56 70.4323 1006.88 70.4087C1007.49 70.4087 1007.79 70.2218 1007.79 69.8832C1007.79 68.949 1003.63 69.4418 1003.63 66.5061C1003.63 64.6555 1005.19 63.723 1006.95 63.723C1007.61 63.7029 1008.26 63.8608 1008.84 64.1801C1009.42 64.4995 1009.9 64.9685 1010.24 65.5384L1008.08 66.7092C1007.98 66.4878 1007.82 66.2991 1007.62 66.1666C1007.42 66.034 1007.19 65.9634 1006.95 65.9635C1006.51 65.9635 1006.24 66.135 1006.24 66.4375C1006.24 67.4061 1010.4 66.759 1010.4 69.8995ZM1019.66 63.9604V72.4461H1017.12V71.6481C1016.83 72.0002 1016.46 72.2778 1016.04 72.4579C1015.62 72.6379 1015.16 72.7153 1014.7 72.6835C1013 72.6835 1011.55 71.4621 1011.55 69.1692V63.9604H1014.08V68.7964C1014.06 68.9984 1014.08 69.2026 1014.15 69.3947C1014.21 69.5871 1014.32 69.7629 1014.46 69.9098C1014.6 70.0568 1014.77 70.1712 1014.96 70.245C1015.15 70.3195 1015.35 70.3512 1015.55 70.3392C1016.48 70.3392 1017.12 69.7967 1017.12 68.5915V63.963L1019.66 63.9604ZM1034.19 67.2355V72.4452H1031.66V67.4558C1031.66 66.6072 1031.25 66.0647 1030.44 66.0647C1029.6 66.0647 1029.12 66.6587 1029.12 67.6598V72.4452H1026.59V67.4558C1026.59 66.6072 1026.18 66.0647 1025.37 66.0647C1024.53 66.0647 1024.05 66.6587 1024.05 67.6598V72.4452H1021.52V63.9595H1024.05V64.7395C1024.31 64.3937 1024.66 64.1192 1025.05 63.9414C1025.45 63.7636 1025.88 63.6882 1026.32 63.7221C1026.75 63.7008 1027.18 63.7927 1027.57 63.989C1027.96 64.1852 1028.29 64.479 1028.53 64.8415C1028.81 64.462 1029.18 64.1601 1029.61 63.9642C1030.04 63.7683 1030.51 63.685 1030.98 63.7221C1032.92 63.723 1034.19 65.1141 1034.19 67.2355ZM1036.34 63.9081C1036.84 63.9067 1037.31 63.707 1037.67 63.3528C1038.02 62.9985 1038.22 62.5188 1038.22 62.019C1038.22 61.5191 1038.02 61.0394 1037.67 60.6852C1037.31 60.3309 1036.84 60.1312 1036.34 60.1298C1035.84 60.131 1035.36 60.3306 1035 60.6849C1034.65 61.0391 1034.45 61.519 1034.45 62.019C1034.45 62.5189 1034.65 62.9988 1035 63.3531C1035.36 63.7073 1035.84 63.907 1036.34 63.9081Z" fill="#626965"/>
</g>
</g>
<g clip-path="url(#clip8_18_2465)">
<g clip-path="url(#clip9_18_2465)">
<g clip-path="url(#clip10_18_2465)">
<mask id="mask0_18_2465" style="mask-type:luminance" maskUnits="userSpaceOnUse" x="1130" y="52" width="121" height="30">
<path d="M1130.67 52.4558H1250.44V81.964H1130.67V52.4558Z" fill="white"/>
</mask>
<g mask="url(#mask0_18_2465)">
<path d="M1165.55 73.1793H1174.12V70.5875H1168.59V60.8281H1165.55V73.1793ZM1179.2 71.4511C1177.97 71.4511 1177.34 70.3809 1177.34 68.7737C1177.34 67.1675 1177.97 66.0786 1179.2 66.0786C1180.42 66.0786 1181.07 67.1675 1181.07 68.7737C1181.07 70.3809 1180.42 71.4511 1179.2 71.4511ZM1179.21 73.4547C1182.05 73.4547 1183.91 71.4344 1183.91 68.7737C1183.91 66.114 1182.05 64.0927 1179.21 64.0927C1176.39 64.0927 1174.5 66.114 1174.5 68.7747C1174.5 71.4344 1176.39 73.4547 1179.21 73.4547ZM1188.83 76.2363C1190.14 76.2363 1191.29 75.9422 1192.06 75.2517C1192.77 74.6124 1193.24 73.6455 1193.24 72.3157V64.3347H1190.55V65.2848H1190.52C1190 64.5422 1189.21 64.076 1188.04 64.076C1185.85 64.076 1184.34 65.9065 1184.34 68.4983C1184.34 71.2101 1186.18 72.6953 1188.16 72.6953C1189.23 72.6953 1189.9 72.2626 1190.41 71.6763H1190.48V72.5567C1190.48 73.6288 1189.98 74.2494 1188.79 74.2494C1187.86 74.2494 1187.4 73.8521 1187.25 73.3858H1184.53C1184.8 75.235 1186.4 76.2363 1188.83 76.2363ZM1188.81 70.6052C1187.76 70.6052 1187.07 69.7416 1187.07 68.4117C1187.07 67.0642 1187.76 66.2006 1188.81 66.2006C1189.98 66.2006 1190.6 67.2019 1190.6 68.394C1190.6 69.6383 1190.03 70.6052 1188.81 70.6052ZM1198.76 71.4511C1197.53 71.4511 1196.9 70.3809 1196.9 68.7737C1196.9 67.1675 1197.53 66.0786 1198.76 66.0786C1199.98 66.0786 1200.63 67.1675 1200.63 68.7737C1200.63 70.3809 1199.98 71.4511 1198.76 71.4511ZM1198.77 73.4547C1201.61 73.4547 1203.47 71.4344 1203.47 68.7737C1203.47 66.114 1201.61 64.0927 1198.77 64.0927C1195.95 64.0927 1194.06 66.114 1194.06 68.7747C1194.06 71.4344 1195.95 73.4547 1198.77 73.4547ZM1204.29 73.1793H1207.1V64.3347H1204.29L1204.29 73.1793ZM1204.29 63.1091H1207.1V60.8281H1204.29L1204.29 63.1091ZM1208.32 76.0976H1211.12V72.2635H1211.15C1211.71 73.0062 1212.51 73.4557 1213.65 73.4557C1215.96 73.4557 1217.49 71.6242 1217.49 68.757C1217.49 66.0973 1216.06 64.076 1213.72 64.076C1212.51 64.076 1211.65 64.6111 1211.05 65.4058H1211V64.3347H1208.31V76.0986L1208.32 76.0976ZM1212.93 71.278C1211.72 71.278 1211.03 70.2944 1211.03 68.8603C1211.03 67.4271 1211.65 66.3383 1212.88 66.3383C1214.08 66.3383 1214.65 67.3406 1214.65 68.8603C1214.65 70.3632 1213.99 71.2789 1212.93 71.2789L1212.93 71.278ZM1222.06 73.4557C1224.36 73.4557 1226.07 72.4534 1226.07 70.5186C1226.07 68.2563 1224.24 67.8589 1222.69 67.5993C1221.58 67.3927 1220.58 67.3062 1220.58 66.6845C1220.58 66.1317 1221.11 65.8721 1221.8 65.8721C1222.57 65.8721 1223.11 66.114 1223.21 66.9088H1225.79C1225.65 65.1639 1224.31 64.076 1221.82 64.076C1219.73 64.076 1218.01 65.0429 1218.01 66.9088C1218.01 68.9812 1219.65 69.3963 1221.18 69.655C1222.35 69.8616 1223.42 69.9491 1223.42 70.7439C1223.42 71.3134 1222.88 71.6242 1222.04 71.6242C1221.11 71.6242 1220.53 71.1924 1220.42 70.3121H1217.77C1217.86 72.2635 1219.48 73.4557 1222.06 73.4557ZM1229.88 73.438C1231.1 73.438 1231.87 72.954 1232.51 72.0904H1232.56V73.1783H1235.25V64.3357H1232.44V69.2753C1232.44 70.3278 1231.86 71.0537 1230.89 71.0537C1230 71.0537 1229.57 70.5186 1229.57 69.5517V64.3347H1226.78V70.138C1226.78 72.1081 1227.85 73.438 1229.88 73.438ZM1236.47 73.1793H1239.27V68.2219C1239.27 67.1675 1239.79 66.4248 1240.67 66.4248C1241.51 66.4248 1241.91 66.9776 1241.91 67.9278V73.1793H1244.71V68.2219C1244.71 67.1675 1245.21 66.4248 1246.11 66.4248C1246.95 66.4248 1247.35 66.9776 1247.35 67.9278V73.1793H1250.15V67.4262C1250.15 65.4393 1249.15 64.075 1247.16 64.075C1246.02 64.075 1245.08 64.5589 1244.39 65.6291H1244.35C1243.9 64.6799 1243.03 64.075 1241.87 64.075C1240.6 64.075 1239.76 64.6799 1239.21 65.5947H1239.15V64.3337H1236.47V73.1793Z" fill="#626965"/>
<path fill-rule="evenodd" clip-rule="evenodd" d="M1136.88 55.2561C1135.85 55.9764 1134.92 56.8272 1134.12 57.7869C1137.41 57.48 1141.59 57.9807 1146.45 60.4171C1151.63 63.0177 1155.8 63.1063 1158.71 62.5436C1158.45 61.749 1158.12 60.9789 1157.72 60.242C1154.39 60.5931 1150.13 60.1269 1145.16 57.6345C1142.01 56.0508 1139.23 55.3987 1136.88 55.2571V55.2561ZM1155.78 57.4653C1154.44 55.9551 1152.79 54.7465 1150.95 53.9195C1149.1 53.0924 1147.11 52.6656 1145.09 52.6672C1143.87 52.6664 1142.65 52.8211 1141.47 53.1276C1143.19 53.6053 1144.86 54.2521 1146.45 55.0584C1150.08 56.884 1153.22 57.4712 1155.78 57.4653ZM1159.33 65.3538C1155.82 66.0502 1150.97 65.9066 1145.16 62.9912C1139.73 60.2646 1135.4 60.299 1132.49 60.9492C1132.34 60.9827 1132.19 61.0181 1132.05 61.0554C1131.66 61.8973 1131.36 62.7745 1131.14 63.6748C1131.38 63.6118 1131.62 63.5528 1131.87 63.4977C1135.41 62.7079 1140.41 62.7423 1146.45 65.7738C1151.88 68.5004 1156.2 68.4659 1159.12 67.8148C1159.22 67.7931 1159.32 67.7695 1159.42 67.7459C1159.45 66.9476 1159.42 66.1476 1159.33 65.3538ZM1158.95 70.7833C1155.47 71.3931 1150.76 71.16 1145.16 68.3489C1139.73 65.6223 1135.4 65.6567 1132.49 66.3069C1131.84 66.4515 1131.26 66.6276 1130.75 66.8135L1130.74 67.0613C1130.74 75.0108 1137.17 81.4554 1145.09 81.4554C1151.73 81.4554 1157.31 76.9289 1158.95 70.7833Z" fill="#626965"/>
</g>
</g>
</g>
</g>
<g clip-path="url(#clip11_18_2465)">
<g clip-path="url(#clip12_18_2465)">
<g clip-path="url(#clip13_18_2465)">
<mask id="mask1_18_2465" style="mask-type:luminance" maskUnits="userSpaceOnUse" x="1340" y="52" width="121" height="30">
<path d="M1340.67 52.6938H1460.21V81.7261H1340.67V52.6938Z" fill="white"/>
</mask>
<g mask="url(#mask1_18_2465)">
<path d="M1377.14 72.6185H1385.54V70.0695H1380.13V60.4675H1377.14L1377.14 72.6185ZM1390.52 70.9191C1389.32 70.9191 1388.7 69.8653 1388.7 68.2849C1388.7 66.7046 1389.32 65.6333 1390.52 65.6333C1391.72 65.6333 1392.36 66.7046 1392.36 68.2849C1392.36 69.8653 1391.72 70.9191 1390.52 70.9191ZM1390.54 72.8904C1393.32 72.8904 1395.15 70.9017 1395.15 68.284C1395.15 65.6672 1393.32 63.6795 1390.54 63.6795C1387.77 63.6795 1385.92 65.6672 1385.92 68.2849C1385.92 70.9017 1387.77 72.8904 1390.54 72.8904H1390.54ZM1399.97 75.6262C1401.25 75.6262 1402.38 75.3379 1403.14 74.6585C1403.83 74.0295 1404.29 73.0772 1404.29 71.7688V63.9175H1401.66V64.8514H1401.62C1401.11 64.1208 1400.34 63.662 1399.19 63.662C1397.05 63.662 1395.56 65.464 1395.56 68.013C1395.56 70.6811 1397.37 72.1424 1399.31 72.1424C1400.35 72.1424 1401.01 71.7175 1401.52 71.1398H1401.59V72.0069C1401.59 73.0598 1401.1 73.6714 1399.93 73.6714C1399.02 73.6714 1398.57 73.2814 1398.41 72.8227H1395.75C1396.02 74.6411 1397.59 75.6262 1399.97 75.6262ZM1399.95 70.0859C1398.92 70.0859 1398.25 69.2362 1398.25 67.9279C1398.25 66.602 1398.92 65.7524 1399.95 65.7524C1401.1 65.7524 1401.7 66.7385 1401.7 67.9104C1401.7 69.1346 1401.15 70.0859 1399.95 70.0859ZM1409.7 70.9191C1408.5 70.9191 1407.88 69.8653 1407.88 68.2849C1407.88 66.7046 1408.5 65.6333 1409.7 65.6333C1410.9 65.6333 1411.54 66.7046 1411.54 68.2849C1411.54 69.8653 1410.9 70.9191 1409.7 70.9191ZM1409.72 72.8904C1412.5 72.8904 1414.33 70.9017 1414.33 68.284C1414.33 65.6672 1412.5 63.6795 1409.72 63.6795C1406.95 63.6795 1405.09 65.6672 1405.09 68.2849C1405.09 70.9017 1406.95 72.8904 1409.72 72.8904ZM1415.13 72.6185H1417.88V63.9175H1415.13V72.6175V72.6185ZM1415.13 62.7108H1417.88V60.4675H1415.13V62.7108ZM1419.07 75.4908H1421.82V71.7175H1421.86C1422.4 72.4482 1423.19 72.8904 1424.31 72.8904C1426.57 72.8904 1428.07 71.0885 1428.07 68.2675C1428.07 65.6508 1426.67 63.662 1424.37 63.662C1423.19 63.662 1422.35 64.1895 1421.76 64.9704H1421.71V63.9175H1419.07L1419.07 75.4908ZM1423.6 70.7488C1422.42 70.7488 1421.74 69.7811 1421.74 68.3701C1421.74 66.9591 1422.35 65.8888 1423.55 65.8888C1424.73 65.8888 1425.28 66.874 1425.28 68.3701C1425.28 69.8479 1424.64 70.7488 1423.6 70.7488ZM1432.55 72.8904C1434.81 72.8904 1436.48 71.9043 1436.48 70.0008C1436.48 67.7749 1434.69 67.384 1433.17 67.1295C1432.07 66.9253 1431.1 66.8401 1431.1 66.2285C1431.1 65.6846 1431.62 65.4301 1432.29 65.4301C1433.05 65.4301 1433.58 65.6672 1433.68 66.4491H1436.21C1436.07 64.7333 1434.76 63.662 1432.31 63.662C1430.27 63.662 1428.58 64.6143 1428.58 66.4491C1428.58 68.4882 1430.18 68.8966 1431.69 69.1511C1432.83 69.3553 1433.88 69.4404 1433.88 70.2224C1433.88 70.7837 1433.36 71.0885 1432.53 71.0885C1431.62 71.0885 1431.05 70.6637 1430.94 69.7975H1428.34C1428.43 71.7175 1430.02 72.8904 1432.55 72.8904ZM1440.22 72.873C1441.42 72.873 1442.17 72.3979 1442.8 71.5472H1442.85V72.6185H1445.48V63.9175H1442.73V68.7775C1442.73 69.814 1442.16 70.5282 1441.21 70.5282C1440.34 70.5282 1439.91 70.0017 1439.91 69.0495V63.9175H1437.18V69.6272C1437.18 71.5646 1438.23 72.873 1440.22 72.873ZM1446.68 72.6185H1449.43V67.7411C1449.43 66.7046 1449.94 65.974 1450.8 65.974C1451.62 65.974 1452.01 66.5169 1452.01 67.4517V72.6185H1454.76V67.7411C1454.76 66.7046 1455.25 65.974 1456.13 65.974C1456.96 65.974 1457.34 66.5169 1457.34 67.4517V72.6185H1460.1V66.9582C1460.1 65.0033 1459.12 63.6611 1457.16 63.6611C1456.04 63.6611 1455.12 64.1372 1454.44 65.1901H1454.41C1453.97 64.2562 1453.11 63.6611 1451.98 63.6611C1450.73 63.6611 1449.9 64.2562 1449.36 65.1572H1449.31V63.9166H1446.68V72.6166V72.6185Z" fill="#626965"/>
<path fill-rule="evenodd" clip-rule="evenodd" d="M1355.22 81.1163C1362.98 81.1163 1369.28 74.7747 1369.28 66.9534C1369.28 59.1321 1362.98 52.7915 1355.22 52.7915C1347.45 52.7915 1341.15 59.1321 1341.15 66.9534C1341.15 74.7747 1347.45 81.1163 1355.22 81.1163ZM1359.6 59.3886C1359.82 58.6241 1359.08 58.1731 1358.41 58.656L1349.02 65.3886C1348.29 65.9112 1348.41 66.9534 1349.2 66.9534H1351.67V66.9341H1356.48L1352.56 68.3286L1350.83 74.5183C1350.61 75.2828 1351.35 75.7338 1352.02 75.2518L1361.41 68.5192C1362.14 67.9967 1362.02 66.9534 1361.24 66.9534H1357.49L1359.6 59.3886Z" fill="#626965"/>
</g>
</g>
</g>
</g>
<g clip-path="url(#clip14_18_2465)">
<g clip-path="url(#clip15_18_2465)">
<g clip-path="url(#clip16_18_2465)">
<path d="M1552.27 56.4314L1568.51 72.7483V56.4314H1564.12V61.5829L1558.99 56.4314H1552.27ZM1550.67 56.9976V73.3591H1555.07V68.2068L1560.19 73.3591H1566.95L1550.67 56.9976ZM1579.12 70.8137H1583.06V73.1445H1576.11V60.7452H1579.12V70.8145V70.8137ZM1588.43 73.2868C1587.47 73.2868 1586.6 73.0806 1585.83 72.6683C1585.07 72.2608 1584.44 71.6489 1584.02 70.9022C1583.58 70.1368 1583.37 69.2414 1583.37 68.2175C1583.37 67.2045 1583.59 66.3152 1584.03 65.5499C1584.46 64.7919 1585.09 64.1723 1585.86 63.7652C1586.64 63.3537 1587.5 63.1476 1588.46 63.1476C1589.43 63.1476 1590.29 63.3537 1591.07 63.766C1591.83 64.1728 1592.47 64.792 1592.89 65.5499C1593.34 66.3152 1593.56 67.2037 1593.56 68.2168C1593.56 69.2299 1593.33 70.1245 1592.88 70.9014C1592.44 71.6553 1591.8 72.2687 1591.03 72.6683C1590.26 73.0806 1589.39 73.2868 1588.43 73.2868ZM1588.43 70.6722C1589 70.6722 1589.49 70.4606 1589.89 70.036C1590.3 69.6129 1590.5 69.006 1590.5 68.2168C1590.5 67.4283 1590.3 66.8214 1589.91 66.3975C1589.73 66.1931 1589.5 66.0303 1589.26 65.9204C1589.01 65.8106 1588.74 65.7563 1588.46 65.7614C1587.88 65.7614 1587.39 65.9737 1587.01 66.3975C1586.62 66.8099 1586.43 67.416 1586.43 68.2168C1586.43 69.006 1586.61 69.6122 1586.99 70.036C1587.17 70.2404 1587.39 70.4032 1587.64 70.5131C1587.89 70.623 1588.16 70.6773 1588.43 70.6722ZM1598.36 63.1476C1599.05 63.1476 1599.65 63.2891 1600.17 63.5714C1600.69 63.8537 1601.1 64.2252 1601.38 64.6845V63.2891H1604.39V73.1276C1604.39 74.0345 1604.2 74.8529 1603.84 75.5829C1603.49 76.3245 1602.94 76.9137 1602.21 77.3491C1601.48 77.7852 1600.57 78.0029 1599.48 78.0029C1598.03 78.0029 1596.85 77.6552 1595.95 76.9606C1595.05 76.2775 1594.53 75.3475 1594.4 74.1699H1597.37C1597.47 74.5468 1597.69 74.8406 1598.04 75.0529C1598.39 75.276 1598.83 75.3883 1599.34 75.3883C1599.96 75.3883 1600.45 75.206 1600.82 74.8406C1601.19 74.4875 1601.38 73.9168 1601.38 73.1276V71.7329C1601.09 72.1922 1600.68 72.5691 1600.17 72.8637C1599.65 73.146 1599.05 73.2868 1598.36 73.2868C1597.55 73.2868 1596.82 73.0814 1596.16 72.6691C1595.5 72.2452 1594.98 71.6506 1594.59 70.8845C1594.22 70.1075 1594.03 69.2129 1594.03 68.1999C1594.03 67.1876 1594.22 66.2983 1594.59 65.5329C1594.98 64.7675 1595.5 64.1791 1596.16 63.7668C1596.82 63.3545 1597.55 63.1483 1598.36 63.1483V63.1476ZM1601.38 68.2168C1601.38 67.4629 1601.17 66.8683 1600.75 66.4329C1600.56 66.2226 1600.32 66.0554 1600.06 65.9426C1599.8 65.8299 1599.52 65.7741 1599.24 65.7791C1598.64 65.7791 1598.13 65.9976 1597.71 66.4329C1597.3 66.8568 1597.09 67.446 1597.09 68.1991C1597.09 68.9529 1597.3 69.5529 1597.71 70.0014C1598.13 70.4368 1598.64 70.6552 1599.24 70.6552C1599.83 70.6552 1600.34 70.4368 1600.75 70.0014C1601.17 69.5652 1601.38 68.9706 1601.38 68.2168ZM1610.5 73.2868C1609.54 73.2868 1608.67 73.0806 1607.9 72.6683C1607.14 72.2608 1606.51 71.6489 1606.09 70.9022C1605.65 70.1368 1605.44 69.2414 1605.44 68.2175C1605.44 67.2045 1605.66 66.3152 1606.1 65.5499C1606.53 64.7917 1607.16 64.1722 1607.93 63.7652C1608.71 63.3537 1609.57 63.1476 1610.53 63.1476C1611.5 63.1476 1612.36 63.3537 1613.14 63.766C1613.9 64.1729 1614.54 64.7921 1614.96 65.5499C1615.41 66.3152 1615.63 67.2037 1615.63 68.2168C1615.63 69.2299 1615.4 70.1245 1614.95 70.9014C1614.51 71.6553 1613.87 72.2687 1613.1 72.6683C1612.33 73.0806 1611.46 73.2868 1610.5 73.2868ZM1610.5 70.6722C1611.07 70.6722 1611.56 70.4606 1611.96 70.036C1612.37 69.6129 1612.57 69.006 1612.57 68.2168C1612.57 67.4283 1612.37 66.8214 1611.98 66.3975C1611.8 66.1931 1611.57 66.0302 1611.32 65.9204C1611.08 65.8105 1610.81 65.7563 1610.53 65.7614C1609.95 65.7614 1609.46 65.9737 1609.08 66.3975C1608.69 66.8099 1608.49 67.416 1608.49 68.2168C1608.49 69.006 1608.68 69.6122 1609.06 70.036C1609.24 70.2404 1609.46 70.4032 1609.71 70.5131C1609.96 70.623 1610.23 70.6773 1610.5 70.6722ZM1618.21 62.2637C1617.68 62.2637 1617.25 62.1114 1616.91 61.8052C1616.75 61.656 1616.63 61.4751 1616.54 61.2743C1616.46 61.0734 1616.41 60.8571 1616.42 60.6391C1616.42 60.1683 1616.58 59.7799 1616.91 59.4737C1617.25 59.1552 1617.68 58.9968 1618.21 58.9968C1618.73 58.9968 1619.15 59.1552 1619.48 59.4737C1619.82 59.7799 1619.99 60.1683 1619.99 60.6391C1619.99 61.0983 1619.82 61.4876 1619.48 61.8052C1619.15 62.1114 1618.73 62.2645 1618.21 62.2645V62.2637ZM1619.71 63.2891V73.1452H1616.7V63.2891H1619.71ZM1624.36 64.6845C1624.67 64.2163 1625.08 63.8331 1625.58 63.5714C1626.09 63.2891 1626.7 63.1476 1627.39 63.1476C1628.2 63.1476 1628.93 63.3537 1629.58 63.766C1630.24 64.1783 1630.76 64.7668 1631.13 65.5322C1631.52 66.2976 1631.71 67.186 1631.71 68.1991C1631.71 69.2122 1631.52 70.1068 1631.13 70.8837C1630.76 71.6499 1630.24 72.2445 1629.58 72.6683C1628.93 73.0806 1628.2 73.2868 1627.39 73.2868C1626.71 73.2868 1626.1 73.1452 1625.58 72.8629C1625.06 72.5799 1624.66 72.2152 1624.36 71.7675V77.8445H1621.36V63.2883H1624.36V64.6837V64.6845ZM1628.65 68.1999C1628.65 67.446 1628.44 66.8568 1628.02 66.4329C1627.61 65.9976 1627.1 65.7791 1626.49 65.7791C1625.89 65.7791 1625.38 65.9976 1624.96 66.4329C1624.55 66.8683 1624.35 67.4637 1624.35 68.2175C1624.35 68.9714 1624.55 69.5652 1624.96 70.0014C1625.38 70.4368 1625.89 70.6552 1626.49 70.6552C1627.09 70.6552 1627.6 70.4368 1628.02 70.0014C1628.44 69.5537 1628.65 68.9529 1628.65 68.1991V68.1999ZM1636.75 73.2868C1635.9 73.2868 1635.13 73.1391 1634.47 72.8452C1633.8 72.5506 1633.27 72.1499 1632.88 71.6437C1632.5 71.1427 1632.28 70.541 1632.23 69.9129H1635.2C1635.24 70.2545 1635.4 70.5306 1635.68 70.7437C1635.96 70.9552 1636.31 71.0606 1636.72 71.0606C1637.09 71.0606 1637.38 70.9906 1637.58 70.8491C1637.79 70.6952 1637.89 70.5014 1637.89 70.266C1637.89 69.9837 1637.75 69.7775 1637.45 69.6475C1637.16 69.5068 1636.69 69.3537 1636.03 69.1883C1635.33 69.0237 1634.74 68.8529 1634.27 68.676C1633.8 68.4882 1633.39 68.1915 1633.06 67.8106C1632.72 67.4106 1632.55 66.8745 1632.55 66.2029C1632.55 65.6383 1632.7 65.126 1633.01 64.6668C1633.32 64.1952 1633.78 63.8245 1634.38 63.5537C1634.99 63.2829 1635.71 63.1476 1636.54 63.1476C1637.77 63.1476 1638.74 63.4537 1639.44 64.066C1640.16 64.6783 1640.57 65.4906 1640.67 66.5037H1637.89C1637.88 66.3446 1637.83 66.1907 1637.75 66.0511C1637.67 65.9116 1637.56 65.7893 1637.44 65.6914C1637.19 65.4914 1636.86 65.3914 1636.45 65.3914C1636.1 65.3914 1635.83 65.4614 1635.64 65.6029C1635.55 65.6623 1635.48 65.7439 1635.43 65.8399C1635.38 65.9359 1635.36 66.0429 1635.36 66.1506C1635.36 66.4329 1635.51 66.6452 1635.8 66.786C1636.11 66.9276 1636.58 67.0691 1637.21 67.2099C1637.94 67.3983 1638.53 67.5868 1638.98 67.7752C1639.44 67.9522 1639.84 68.2468 1640.18 68.6583C1640.53 69.0591 1640.71 69.6006 1640.72 70.2837C1640.73 70.841 1640.56 71.3856 1640.23 71.8375C1639.92 72.286 1639.45 72.6391 1638.84 72.8983C1638.25 73.1568 1637.55 73.2868 1636.75 73.2868ZM1651.72 63.2891V73.1452H1648.72V71.8029C1648.41 72.2391 1648 72.5922 1647.47 72.8629C1646.95 73.1222 1646.38 73.2514 1645.75 73.2514C1645 73.2514 1644.33 73.0868 1643.76 72.7568C1643.18 72.4152 1642.74 71.926 1642.42 71.2906C1642.11 70.6545 1641.95 69.9068 1641.95 69.0475V63.2891H1644.94V68.6414C1644.94 69.3006 1645.11 69.8129 1645.45 70.1775C1645.79 70.5429 1646.24 70.7252 1646.82 70.7252C1647.4 70.7252 1647.87 70.5429 1648.21 70.1775C1648.55 69.8129 1648.72 69.3006 1648.72 68.6414V63.2891H1651.72ZM1665.87 63.1829C1667.09 63.1829 1668.06 63.5537 1668.77 64.2952C1669.5 65.0375 1669.86 66.0675 1669.86 67.3875V73.1452H1666.87V67.7929C1666.87 67.1575 1666.7 66.6683 1666.36 66.3268C1666.03 65.9737 1665.58 65.7968 1664.99 65.7968C1664.41 65.7968 1663.94 65.9737 1663.6 66.3275C1663.28 66.6683 1663.11 67.1575 1663.11 67.7929V73.1452H1660.12V67.7929C1660.12 67.1575 1659.95 66.6683 1659.61 66.3268C1659.28 65.9737 1658.83 65.7968 1658.24 65.7968C1657.66 65.7968 1657.19 65.9737 1656.85 66.3275C1656.52 66.6683 1656.36 67.1575 1656.36 67.7929V73.1452H1653.35V63.2891H1656.36V64.5252C1656.67 64.1073 1657.08 63.7734 1657.56 63.5537C1658.05 63.3068 1658.6 63.1829 1659.23 63.1829C1659.96 63.1829 1660.62 63.3422 1661.19 63.6599C1661.77 63.9709 1662.25 64.4434 1662.57 65.0199C1662.91 64.4711 1663.39 64.0162 1663.95 63.6952C1664.54 63.3552 1665.2 63.1782 1665.87 63.1829Z" fill="#626965"/>
</g>
</g>
</g>
</g>
</g>
<defs>
<clipPath id="clip0_18_2465">
<rect width="170.29" height="54.41" fill="white" transform="translate(312 40)"/>
</clipPath>
<clipPath id="clip1_18_2465">
<rect width="910.71" height="54.41" fill="white" transform="translate(697.29 40)"/>
</clipPath>
<clipPath id="clip2_18_2465">
<rect width="910.71" height="30" fill="white" transform="translate(697.29 52.21)"/>
</clipPath>
<clipPath id="clip3_18_2465">
<rect width="120" height="30" fill="white" transform="translate(710.67 52.21)"/>
</clipPath>
<clipPath id="clip4_18_2465">
<rect width="120" height="30" fill="white" transform="translate(710.67 52.21)"/>
</clipPath>
<clipPath id="clip5_18_2465">
<rect width="120" height="23.0769" fill="white" transform="translate(710.67 55.6714)"/>
</clipPath>
<clipPath id="clip6_18_2465">
<rect width="120" height="30" fill="white" transform="translate(920.67 52.21)"/>
</clipPath>
<clipPath id="clip7_18_2465">
<rect width="120" height="30" fill="white" transform="translate(920.67 52.21)"/>
</clipPath>
<clipPath id="clip8_18_2465">
<rect width="120" height="30" fill="white" transform="translate(1130.67 52.21)"/>
</clipPath>
<clipPath id="clip9_18_2465">
<rect width="120" height="30" fill="white" transform="translate(1130.67 52.21)"/>
</clipPath>
<clipPath id="clip10_18_2465">
<rect width="120" height="29.5082" fill="white" transform="translate(1130.67 52.4558)"/>
</clipPath>
<clipPath id="clip11_18_2465">
<rect width="120" height="30" fill="white" transform="translate(1340.67 52.21)"/>
</clipPath>
<clipPath id="clip12_18_2465">
<rect width="120" height="30" fill="white" transform="translate(1340.67 52.21)"/>
</clipPath>
<clipPath id="clip13_18_2465">
<rect width="120" height="29.0323" fill="white" transform="translate(1340.67 52.6938)"/>
</clipPath>
<clipPath id="clip14_18_2465">
<rect width="120" height="30" fill="white" transform="translate(1550.67 52.21)"/>
</clipPath>
<clipPath id="clip15_18_2465">
<rect width="120" height="30" fill="white" transform="translate(1550.67 52.21)"/>
</clipPath>
<clipPath id="clip16_18_2465">
<rect width="120" height="23.0769" fill="white" transform="translate(1550.67 55.6714)"/>
</clipPath>
</defs>
</svg>
