<svg width="25" height="25" viewBox="0 0 25 25" fill="none" xmlns="http://www.w3.org/2000/svg">
<g clip-path="url(#clip0_18_2717)">
<path d="M9.896 9.33856C9.896 8.84168 9.896 8.59273 10.0002 8.45418C10.0448 8.39451 10.1018 8.34512 10.1672 8.30936C10.2326 8.2736 10.305 8.2523 10.3793 8.24689C10.5522 8.23439 10.7616 8.36877 11.1804 8.63752L16.097 11.799C16.4606 12.0323 16.6418 12.149 16.7043 12.2969C16.7315 12.3612 16.7456 12.4302 16.7456 12.5C16.7456 12.5698 16.7315 12.6389 16.7043 12.7031C16.6418 12.8511 16.4606 12.9677 16.097 13.2011L11.1804 16.3625C10.7616 16.6313 10.5522 16.7656 10.3793 16.7531C10.3049 16.7476 10.2325 16.7262 10.1671 16.6902C10.1017 16.6543 10.0447 16.6047 10.0002 16.5448C9.896 16.4073 9.896 16.1584 9.896 15.6615V9.33856Z" stroke="#0D1714" stroke-width="1.5625" stroke-linecap="round" stroke-linejoin="round"/>
<path d="M3.125 8.125C3.125 6.375 3.125 5.5 3.46562 4.83125C3.76522 4.24327 4.24327 3.76522 4.83125 3.46562C5.5 3.125 6.375 3.125 8.125 3.125H16.875C18.625 3.125 19.5 3.125 20.1687 3.46562C20.7567 3.76522 21.2348 4.24327 21.5344 4.83125C21.875 5.5 21.875 6.375 21.875 8.125V16.875C21.875 18.625 21.875 19.5 21.5344 20.1687C21.2348 20.7567 20.7567 21.2348 20.1687 21.5344C19.5 21.875 18.625 21.875 16.875 21.875H8.125C6.375 21.875 5.5 21.875 4.83125 21.5344C4.24327 21.2348 3.76522 20.7567 3.46562 20.1687C3.125 19.5 3.125 18.625 3.125 16.875V8.125Z" stroke="#0D1714" stroke-width="1.5625" stroke-linecap="round" stroke-linejoin="round"/>
</g>
<defs>
<clipPath id="clip0_18_2717">
<rect width="25" height="25" fill="white"/>
</clipPath>
</defs>
</svg>
