<svg width="55" height="55" viewBox="0 0 55 55" fill="none" xmlns="http://www.w3.org/2000/svg">
<g clip-path="url(#clip0_18_2796)">
<g clip-path="url(#clip1_18_2796)">
<g clip-path="url(#clip2_18_2796)">
<path d="M55 27.5C55 12.3122 42.6878 0 27.5 0C12.3122 0 0 12.3122 0 27.5C0 42.6878 12.3122 55 27.5 55C42.6878 55 55 42.6878 55 27.5Z" fill="#2E574D"/>
<path d="M18.6611 35.3571C20.9554 32.9243 24.0698 31.4285 27.5004 31.4285C30.931 31.4285 34.0454 32.9243 36.3397 35.3571M31.9201 23.0803C31.9201 23.6607 31.8057 24.2354 31.5836 24.7716C31.3615 25.3078 31.036 25.795 30.6256 26.2054C30.2152 26.6158 29.728 26.9414 29.1917 27.1635C28.6555 27.3856 28.0808 27.4999 27.5004 27.4999C26.92 27.4999 26.3453 27.3856 25.8091 27.1635C25.2729 26.9414 24.7857 26.6158 24.3753 26.2054C23.9649 25.795 23.6393 25.3078 23.4172 24.7716C23.1951 24.2354 23.0808 23.6607 23.0808 23.0803C23.0808 21.9081 23.5464 20.784 24.3753 19.9551C25.2041 19.1263 26.3283 18.6606 27.5004 18.6606C28.6726 18.6606 29.7967 19.1263 30.6256 19.9551C31.4544 20.784 31.9201 21.9081 31.9201 23.0803Z" stroke="white" stroke-width="1.96429" stroke-linecap="round" stroke-linejoin="round"/>
</g>
</g>
</g>
<defs>
<clipPath id="clip0_18_2796">
<rect width="55" height="55" rx="27.5" fill="white"/>
</clipPath>
<clipPath id="clip1_18_2796">
<rect width="55" height="55" fill="white"/>
</clipPath>
<clipPath id="clip2_18_2796">
<rect width="55" height="55" fill="white"/>
</clipPath>
</defs>
</svg>
