<svg width="55" height="55" viewBox="0 0 55 55" fill="none" xmlns="http://www.w3.org/2000/svg">
<g clip-path="url(#clip0_18_2822)">
<g clip-path="url(#clip1_18_2822)">
<path d="M55 27.5C55 12.3122 42.6878 0 27.5 0C12.3122 0 0 12.3122 0 27.5C0 42.6878 12.3122 55 27.5 55C42.6878 55 55 42.6878 55 27.5Z" fill="#2E574D"/>
<path d="M27.5001 36.3392L27.4019 36.1919C26.7193 35.1685 26.3785 34.6568 25.9287 34.2865C25.5296 33.9586 25.0697 33.7126 24.5753 33.5627C24.0165 33.3928 23.4017 33.3928 22.172 33.3928H20.8216C19.7216 33.3928 19.1716 33.3928 18.7512 33.1787C18.3816 32.9904 18.0811 32.6899 17.8928 32.3203C17.6787 31.8999 17.6787 31.3499 17.6787 30.2499V21.8035C17.6787 20.7035 17.6787 20.1535 17.8928 19.7331C18.0811 19.3636 18.3816 19.0631 18.7512 18.8748C19.1716 18.6606 19.7216 18.6606 20.8216 18.6606H21.2144C23.4144 18.6606 24.5144 18.6606 25.3551 19.0889C26.0943 19.4655 26.6953 20.0665 27.0719 20.8056C27.5001 21.6464 27.5001 22.7464 27.5001 24.9464M27.5001 36.3392V24.9464M27.5001 36.3392L27.5984 36.1919C28.2809 35.1685 28.6217 34.6568 29.0716 34.2865C29.4707 33.9586 29.9306 33.7126 30.425 33.5627C30.9838 33.3928 31.5986 33.3928 32.8283 33.3928H34.1787C35.2787 33.3928 35.8287 33.3928 36.2491 33.1787C36.6187 32.9904 36.9191 32.6899 37.1075 32.3203C37.3216 31.8999 37.3216 31.3499 37.3216 30.2499V21.8035C37.3216 20.7035 37.3216 20.1535 37.1075 19.7331C36.9191 19.3636 36.6187 19.0631 36.2491 18.8748C35.8287 18.6606 35.2787 18.6606 34.1787 18.6606H33.7859C31.5859 18.6606 30.4859 18.6606 29.6451 19.0889C28.906 19.4655 28.305 20.0665 27.9284 20.8056C27.5001 21.6464 27.5001 22.7464 27.5001 24.9464" stroke="white" stroke-width="1.96429" stroke-linecap="round" stroke-linejoin="round"/>
</g>
</g>
<defs>
<clipPath id="clip0_18_2822">
<rect width="55" height="55" fill="white"/>
</clipPath>
<clipPath id="clip1_18_2822">
<rect width="55" height="55" fill="white"/>
</clipPath>
</defs>
</svg>
