<svg width="25" height="25" viewBox="0 0 25 25" fill="none" xmlns="http://www.w3.org/2000/svg">
<path d="M21.1417 10.2042L13.3292 18.0167C13.2203 18.1259 13.0909 18.2126 12.9485 18.2718C12.8061 18.3309 12.6533 18.3614 12.4991 18.3614C12.3449 18.3614 12.1921 18.3309 12.0497 18.2718C11.9073 18.2126 11.7779 18.1259 11.669 18.0167L3.85653 10.2042C3.63637 9.98403 3.5127 9.68544 3.5127 9.3741C3.5127 9.06276 3.63637 8.76418 3.85653 8.54402C4.07668 8.32387 4.37526 8.2002 4.6866 8.2002C4.99794 8.2002 5.29653 8.32387 5.51668 8.54402L12.5001 15.5274L19.4835 8.54305C19.7036 8.3229 20.0022 8.19922 20.3136 8.19922C20.6249 8.19922 20.9235 8.3229 21.1436 8.54305C21.3638 8.7632 21.4875 9.06179 21.4875 9.37313C21.4875 9.68447 21.3638 9.98305 21.1436 10.2032L21.1417 10.2042Z" fill="black"/>
</svg>
