<svg width="120" height="30" viewBox="0 0 120 30" fill="none" xmlns="http://www.w3.org/2000/svg">
<g clip-path="url(#clip0_18_2516)">
<g clip-path="url(#clip1_18_2516)">
<mask id="mask0_18_2516" style="mask-type:luminance" maskUnits="userSpaceOnUse" x="0" y="0" width="120" height="30">
<path d="M0 0.24585H119.769V29.754H0V0.24585Z" fill="white"/>
</mask>
<g mask="url(#mask0_18_2516)">
<path d="M34.8765 20.9693H43.4486V18.3775H37.9227V8.61816H34.8765V20.9693ZM48.527 19.2411C47.3043 19.2411 46.6679 18.171 46.6679 16.5637C46.6679 14.9575 47.3043 13.8687 48.527 13.8687C49.7486 13.8687 50.4027 14.9575 50.4027 16.5637C50.4027 18.171 49.7486 19.2411 48.527 19.2411ZM48.5437 21.2447C51.3843 21.2447 53.2434 19.2244 53.2434 16.5637C53.2434 13.9041 51.3843 11.8828 48.5437 11.8828C45.7207 11.8828 43.8283 13.9041 43.8283 16.5647C43.8283 19.2244 45.7207 21.2447 48.5437 21.2447ZM58.1584 24.0264C59.4666 24.0264 60.6204 23.7323 61.3945 23.0418C62.1007 22.4024 62.565 21.4355 62.565 20.1057V12.1247H59.8797V13.0749H59.8453C59.3289 12.3323 58.5371 11.866 57.3666 11.866C55.1811 11.866 53.6663 13.6965 53.6663 16.2883C53.6663 19.0001 55.5076 20.4854 57.4876 20.4854C58.5548 20.4854 59.2256 20.0526 59.742 19.4664H59.8109V20.3467C59.8109 21.4188 59.3122 22.0395 58.124 22.0395C57.1945 22.0395 56.7302 21.6421 56.5748 21.1759H53.8561C54.1315 23.025 55.7319 24.0264 58.1584 24.0264ZM58.1417 18.3952C57.0912 18.3952 56.4027 17.5316 56.4027 16.2018C56.4027 14.8542 57.0912 13.9906 58.1417 13.9906C59.3122 13.9906 59.9319 14.9919 59.9319 16.1841C59.9319 17.4283 59.3633 18.3952 58.1417 18.3952ZM68.086 19.2411C66.8643 19.2411 66.227 18.171 66.227 16.5637C66.227 14.9575 66.8643 13.8687 68.086 13.8687C69.3086 13.8687 69.9627 14.9575 69.9627 16.5637C69.9627 18.171 69.3086 19.2411 68.086 19.2411ZM68.1037 21.2447C70.9433 21.2447 72.8024 19.2244 72.8024 16.5637C72.8024 13.9041 70.9433 11.8828 68.1037 11.8828C65.2807 11.8828 63.3873 13.9041 63.3873 16.5647C63.3873 19.2244 65.2807 21.2447 68.1037 21.2447ZM73.6217 20.9693H76.426V12.1247H73.6227L73.6217 20.9693ZM73.6217 10.8991H76.426V8.61816H73.6227L73.6217 10.8991ZM77.6447 23.8877H80.4499V20.0536H80.4843C81.0352 20.7962 81.8437 21.2457 82.9797 21.2457C85.2863 21.2457 86.8188 19.4142 86.8188 16.547C86.8188 13.8873 85.3896 11.866 83.0486 11.866C81.8437 11.866 80.983 12.4011 80.3811 13.1959H80.3289V12.1247H77.6437V23.8887L77.6447 23.8877ZM82.2578 19.068C81.0519 19.068 80.3634 18.0844 80.3634 16.6503C80.3634 15.2172 80.983 14.1283 82.2056 14.1283C83.4106 14.1283 83.9781 15.1306 83.9781 16.6503C83.9781 18.1532 83.324 19.069 82.2568 19.069L82.2578 19.068ZM91.3866 21.2457C93.6932 21.2457 95.3968 20.2434 95.3968 18.3087C95.3968 16.0464 93.5722 15.649 92.023 15.3893C90.9047 15.1828 89.9063 15.0962 89.9063 14.4746C89.9063 13.9218 90.4404 13.6621 91.1289 13.6621C91.903 13.6621 92.4371 13.9041 92.5404 14.6988H95.1214C94.9837 12.9539 93.642 11.866 91.1456 11.866C89.0634 11.866 87.342 12.8329 87.342 14.6988C87.342 16.7713 88.9768 17.1864 90.5093 17.445C91.6797 17.6516 92.747 17.7391 92.747 18.5339C92.747 19.1034 92.2129 19.4142 91.3699 19.4142C90.4404 19.4142 89.8552 18.9824 89.7519 18.1021H87.1011C87.1866 20.0536 88.8047 21.2457 91.3866 21.2457ZM99.2073 21.228C100.43 21.228 101.204 20.7441 101.841 19.8805H101.893V20.9683H104.578V12.1257H101.773V17.0654C101.773 18.1178 101.187 18.8437 100.223 18.8437C99.3283 18.8437 98.8974 18.3087 98.8974 17.3418V12.1247H96.1089V17.928C96.1089 19.8982 97.1761 21.228 99.2073 21.228ZM105.798 20.9693H108.604V16.0119C108.604 14.9575 109.12 14.2149 109.998 14.2149C110.841 14.2149 111.238 14.7677 111.238 15.7178V20.9693H114.043V16.0119C114.043 14.9575 114.543 14.2149 115.438 14.2149C116.281 14.2149 116.676 14.7677 116.676 15.7178V20.9693H119.482V15.2162C119.482 13.2293 118.484 11.865 116.487 11.865C115.351 11.865 114.405 12.349 113.716 13.4191H113.682C113.235 12.47 112.356 11.865 111.203 11.865C109.93 11.865 109.086 12.47 108.535 13.3847H108.484V12.1237H105.798V20.9693Z" fill="#626965"/>
<path fill-rule="evenodd" clip-rule="evenodd" d="M6.20652 3.04613C5.18096 3.76648 4.2535 4.61723 3.44751 5.57695C6.73866 5.27007 10.92 5.77072 15.775 8.20712C20.9587 10.8078 25.1331 10.8963 28.0387 10.3337C27.777 9.53908 27.4462 8.76892 27.0501 8.03203C23.7246 8.38318 19.4606 7.91695 14.4914 5.42449C11.337 3.84089 8.55538 3.18876 6.20652 3.04712V3.04613ZM25.1075 5.25531C23.7659 3.74509 22.1192 2.53657 20.2762 1.70951C18.4332 0.882442 16.4358 0.455644 14.4157 0.45728C13.1971 0.456432 11.9833 0.611124 10.8039 0.917608C12.5207 1.39537 14.1859 2.04214 15.775 2.84843C19.4124 4.674 22.5541 5.26121 25.1075 5.25531ZM28.6603 13.1438C25.1498 13.8402 20.3036 13.6966 14.4914 10.7812C9.05898 8.05466 4.73407 8.08908 1.81964 8.73925C1.66915 8.77269 1.52161 8.8081 1.378 8.84548C0.992406 9.68729 0.689349 10.5645 0.473082 11.4648C0.706197 11.4019 0.948164 11.3429 1.19702 11.2878C4.73505 10.4979 9.73472 10.5324 15.776 13.5638C21.2085 16.2904 25.5334 16.256 28.4498 15.6048C28.5491 15.5832 28.6485 15.5596 28.7449 15.536C28.7817 14.7376 28.7528 13.9376 28.6603 13.1438ZM28.2757 18.5733C24.7996 19.1832 20.0941 18.9501 14.4914 16.1389C9.05898 13.4124 4.73407 13.4468 1.81866 14.097C1.17046 14.2415 0.589147 14.4176 0.0747211 14.6035L0.0727539 14.8514C0.0727539 22.8009 6.49472 29.2455 14.4157 29.2455C21.055 29.2455 26.6419 24.7189 28.2757 18.5733Z" fill="#626965"/>
</g>
</g>
</g>
<defs>
<clipPath id="clip0_18_2516">
<rect width="120" height="30" fill="white"/>
</clipPath>
<clipPath id="clip1_18_2516">
<rect width="120" height="29.5082" fill="white" transform="translate(0 0.24585)"/>
</clipPath>
</defs>
</svg>
