<svg width="120" height="30" viewBox="0 0 120 30" fill="none" xmlns="http://www.w3.org/2000/svg">
<g clip-path="url(#clip0_18_2508)">
<g clip-path="url(#clip1_18_2508)">
<path d="M1.60308 4.22144L17.8438 20.5384V4.22144H13.4485V9.37297L8.32154 4.22144H1.60308ZM0 4.78759V21.1491H4.39462V15.9968L9.52231 21.1491H16.2831L0 4.78759ZM28.4492 18.6037H32.3869V20.9345H25.4431V8.53528H28.4492V18.6045V18.6037ZM37.7585 21.0768C36.7969 21.0768 35.93 20.8707 35.1569 20.4584C34.3998 20.0509 33.7724 19.4389 33.3462 18.6922C32.9123 17.9268 32.6954 17.0314 32.6954 16.0076C32.6954 14.9945 32.9185 14.1053 33.3638 13.3399C33.7891 12.5819 34.4236 11.9624 35.1915 11.5553C35.9654 11.1437 36.8323 10.9376 37.7938 10.9376C38.7546 10.9376 39.6215 11.1437 40.3954 11.5561C41.1635 11.9628 41.7982 12.5821 42.2238 13.3399C42.6692 14.1053 42.8915 14.9937 42.8915 16.0068C42.8915 17.0199 42.6631 17.9145 42.2062 18.6914C41.7731 19.4454 41.1322 20.0588 40.36 20.4584C39.5869 20.8707 38.7192 21.0768 37.7585 21.0768ZM37.7585 18.4622C38.3331 18.4622 38.8192 18.2507 39.2177 17.826C39.6277 17.403 39.8331 16.7961 39.8331 16.0068C39.8331 15.2184 39.6331 14.6114 39.2354 14.1876C39.0558 13.9832 38.8338 13.8204 38.5848 13.7105C38.3358 13.6006 38.0659 13.5463 37.7938 13.5514C37.2077 13.5514 36.7215 13.7637 36.3346 14.1876C35.9477 14.5999 35.7546 15.206 35.7546 16.0068C35.7546 16.7961 35.9415 17.4022 36.3169 17.826C36.4965 18.0305 36.7186 18.1933 36.9675 18.3032C37.2165 18.413 37.4864 18.4673 37.7585 18.4622ZM47.6862 10.9376C48.3777 10.9376 48.9808 11.0791 49.4969 11.3614C50.0238 11.6437 50.4277 12.0153 50.7092 12.4745V11.0791H53.7154V20.9176C53.7154 21.8245 53.5338 22.643 53.1708 23.373C52.8192 24.1145 52.2738 24.7037 51.5354 25.1391C50.8092 25.5753 49.9008 25.793 48.8108 25.793C47.3577 25.793 46.18 25.4453 45.2777 24.7507C44.3754 24.0676 43.8592 23.1376 43.7308 21.9599H46.7015C46.7954 22.3368 47.0177 22.6307 47.3692 22.843C47.7208 23.066 48.1546 23.1784 48.6708 23.1784C49.2915 23.1784 49.7838 22.996 50.1477 22.6307C50.5223 22.2776 50.7092 21.7068 50.7092 20.9176V19.523C50.4169 19.9822 50.0123 20.3591 49.4969 20.6537C48.9815 20.9361 48.3769 21.0768 47.6862 21.0768C46.8777 21.0768 46.1446 20.8714 45.4885 20.4591C44.8323 20.0353 44.3108 19.4407 43.9238 18.6745C43.5492 17.8976 43.3615 17.003 43.3615 15.9899C43.3615 14.9776 43.5492 14.0884 43.9238 13.323C44.3108 12.5576 44.8315 11.9691 45.4885 11.5568C46.1446 11.1445 46.8777 10.9384 47.6862 10.9384V10.9376ZM50.7092 16.0068C50.7092 15.253 50.4985 14.6584 50.0769 14.223C49.8859 14.0126 49.6522 13.8454 49.3914 13.7327C49.1306 13.6199 48.8487 13.5642 48.5646 13.5691C47.9669 13.5691 47.4569 13.7876 47.0354 14.223C46.6254 14.6468 46.42 15.236 46.42 15.9891C46.42 16.743 46.6254 17.343 47.0354 17.7914C47.4577 18.2268 47.9669 18.4453 48.5646 18.4453C49.1623 18.4453 49.6669 18.2268 50.0769 17.7914C50.4985 17.3553 50.7092 16.7607 50.7092 16.0068ZM59.8285 21.0768C58.8669 21.0768 58 20.8707 57.2262 20.4584C56.4691 20.0509 55.8416 19.4389 55.4154 18.6922C54.9823 17.9268 54.7654 17.0314 54.7654 16.0076C54.7654 14.9945 54.9885 14.1053 55.4331 13.3399C55.8585 12.5818 56.4933 11.9622 57.2615 11.5553C58.0354 11.1437 58.9023 10.9376 59.8631 10.9376C60.8246 10.9376 61.6915 11.1437 62.4654 11.5561C63.2332 11.9629 63.8677 12.5822 64.2931 13.3399C64.7392 14.1053 64.9615 14.9937 64.9615 16.0068C64.9615 17.0199 64.7331 17.9145 64.2762 18.6914C63.8431 19.4453 63.2022 20.0587 62.43 20.4584C61.6562 20.8707 60.7892 21.0768 59.8285 21.0768ZM59.8285 18.4622C60.4023 18.4622 60.8892 18.2507 61.2877 17.826C61.6977 17.403 61.9031 16.7961 61.9031 16.0068C61.9031 15.2184 61.7031 14.6114 61.3046 14.1876C61.125 13.9831 60.903 13.8203 60.6541 13.7104C60.4051 13.6005 60.1352 13.5463 59.8631 13.5514C59.2777 13.5514 58.7908 13.7637 58.4046 14.1876C58.0177 14.5999 57.8238 15.206 57.8238 16.0068C57.8238 16.7961 58.0115 17.4022 58.3869 17.826C58.5665 18.0305 58.7886 18.1933 59.0375 18.3032C59.2865 18.413 59.5564 18.4673 59.8285 18.4622ZM67.5408 10.0537C67.0131 10.0537 66.5792 9.90144 66.24 9.59528C66.0811 9.44604 65.9552 9.26517 65.8704 9.06433C65.7856 8.86348 65.7438 8.6471 65.7477 8.42913C65.7477 7.95836 65.9115 7.5699 66.24 7.26374C66.58 6.94528 67.0131 6.78682 67.54 6.78682C68.0562 6.78682 68.4785 6.94528 68.8062 7.26374C69.1462 7.5699 69.3162 7.95836 69.3162 8.42913C69.3162 8.88836 69.1469 9.27759 68.8062 9.59528C68.4785 9.90144 68.0562 10.0545 67.5408 10.0545V10.0537ZM69.0346 11.0791V20.9353H66.0285V11.0791H69.0346ZM73.6923 12.4745C73.995 12.0063 74.4123 11.6232 74.9046 11.3614C75.42 11.0791 76.0246 10.9376 76.7162 10.9376C77.5246 10.9376 78.2569 11.1437 78.9131 11.5561C79.57 11.9684 80.0854 12.5568 80.46 13.3222C80.8477 14.0876 81.0408 14.976 81.0408 15.9891C81.0408 17.0022 80.8477 17.8968 80.46 18.6737C80.0854 19.4399 79.57 20.0345 78.9131 20.4584C78.2569 20.8707 77.5246 21.0768 76.7162 21.0768C76.0362 21.0768 75.4323 20.9353 74.9046 20.653C74.3892 20.3699 73.9854 20.0053 73.6923 19.5576V25.6345H70.6862V11.0784H73.6923V12.4737V12.4745ZM77.9815 15.9899C77.9815 15.2361 77.7708 14.6468 77.3485 14.223C76.9385 13.7876 76.4285 13.5691 75.8192 13.5691C75.2215 13.5691 74.7115 13.7876 74.29 14.223C73.88 14.6584 73.6746 15.2537 73.6746 16.0076C73.6746 16.7614 73.88 17.3553 74.29 17.7914C74.7115 18.2268 75.2208 18.4453 75.8192 18.4453C76.4177 18.4453 76.9269 18.2268 77.3485 17.7914C77.7708 17.3437 77.9815 16.743 77.9815 15.9891V15.9899ZM86.0808 21.0768C85.2246 21.0768 84.4631 20.9291 83.7954 20.6353C83.1269 20.3407 82.6 19.9399 82.2138 19.4337C81.8326 18.9327 81.6064 18.3311 81.5631 17.703H84.5338C84.5692 18.0445 84.7269 18.3207 85.0085 18.5337C85.2892 18.7453 85.6354 18.8507 86.0454 18.8507C86.4208 18.8507 86.7077 18.7807 86.9069 18.6391C87.1185 18.4853 87.2238 18.2914 87.2238 18.056C87.2238 17.7737 87.0762 17.5676 86.7839 17.4376C86.4908 17.2968 86.0154 17.1437 85.36 16.9784C84.6562 16.8137 84.0708 16.643 83.6015 16.4661C83.1341 16.2782 82.7182 15.9815 82.3885 15.6007C82.0492 15.2007 81.8792 14.6645 81.8792 13.993C81.8792 13.4284 82.0315 12.9161 82.3362 12.4568C82.6523 11.9853 83.11 11.6145 83.7069 11.3437C84.3169 11.073 85.0377 10.9376 85.8692 10.9376C87.1 10.9376 88.0677 11.2437 88.77 11.8561C89.4854 12.4684 89.8954 13.2807 90.0008 14.2937H87.2238C87.2058 14.1346 87.156 13.9807 87.0774 13.8412C86.9988 13.7016 86.8929 13.5793 86.7662 13.4814C86.52 13.2814 86.1915 13.1814 85.7815 13.1814C85.4308 13.1814 85.1608 13.2514 84.9731 13.393C84.8831 13.4524 84.8099 13.534 84.7608 13.6299C84.7116 13.7259 84.688 13.8329 84.6923 13.9407C84.6923 14.223 84.8385 14.4353 85.1308 14.5761C85.4354 14.7176 85.9054 14.8591 86.5377 14.9999C87.2646 15.1884 87.8562 15.3768 88.3131 15.5653C88.77 15.7422 89.1692 16.0368 89.5085 16.4484C89.8608 16.8491 90.0415 17.3907 90.0538 18.0737C90.0598 18.6311 89.887 19.1756 89.5608 19.6276C89.2446 20.076 88.7823 20.4291 88.1731 20.6884C87.5746 20.9468 86.8777 21.0768 86.0808 21.0768ZM101.052 11.0791V20.9353H98.0454V19.593C97.7408 20.0291 97.3246 20.3822 96.7977 20.653C96.2815 20.9122 95.7077 21.0414 95.0746 21.0414C94.3246 21.0414 93.6623 20.8768 93.0877 20.5468C92.5138 20.2053 92.0685 19.716 91.7523 19.0807C91.4362 18.4445 91.2777 17.6968 91.2777 16.8376V11.0791H94.2662V16.4314C94.2662 17.0907 94.4362 17.603 94.7754 17.9676C95.1154 18.333 95.5723 18.5153 96.1469 18.5153C96.7331 18.5153 97.1954 18.333 97.5354 17.9676C97.8762 17.603 98.0454 17.0907 98.0454 16.4314V11.0791H101.052ZM115.2 10.973C116.418 10.973 117.386 11.3437 118.1 12.0853C118.828 12.8276 119.191 13.8576 119.191 15.1776V20.9353H116.202V15.583C116.202 14.9476 116.032 14.4584 115.692 14.1168C115.364 13.7637 114.907 13.5868 114.321 13.5868C113.735 13.5868 113.272 13.7637 112.932 14.1176C112.605 14.4584 112.44 14.9476 112.44 15.583V20.9353H109.452V15.583C109.452 14.9476 109.282 14.4584 108.942 14.1168C108.613 13.7637 108.157 13.5868 107.571 13.5868C106.985 13.5868 106.522 13.7637 106.182 14.1176C105.854 14.4584 105.69 14.9476 105.69 15.583V20.9353H102.684V11.0791H105.69V12.3153C106.001 11.8973 106.412 11.5634 106.885 11.3437C107.378 11.0968 107.934 10.973 108.555 10.973C109.293 10.973 109.95 11.1322 110.524 11.4499C111.103 11.761 111.579 12.2334 111.895 12.8099C112.243 12.2611 112.719 11.8062 113.284 11.4853C113.865 11.1452 114.527 10.9682 115.2 10.973Z" fill="#626965"/>
</g>
</g>
<defs>
<clipPath id="clip0_18_2508">
<rect width="120" height="30" fill="white"/>
</clipPath>
<clipPath id="clip1_18_2508">
<rect width="120" height="23.0769" fill="white" transform="translate(0 3.46143)"/>
</clipPath>
</defs>
</svg>
