<svg width="171" height="55" viewBox="0 0 171 55" fill="none" xmlns="http://www.w3.org/2000/svg">
<g clip-path="url(#clip0_18_2466)">
<path d="M0.704545 9.375V7.86364H9.71023V9.375H6.07955V19.5H4.32955V9.375H0.704545ZM10.6577 19.5V10.7727H12.2997V12.1591H12.3906C12.5497 11.6894 12.83 11.3201 13.2315 11.0511C13.6368 10.7784 14.0952 10.642 14.6065 10.642C14.7126 10.642 14.8376 10.6458 14.9815 10.6534C15.1293 10.661 15.2448 10.6705 15.3281 10.6818V12.3068C15.2599 12.2879 15.1387 12.267 14.9645 12.2443C14.7902 12.2178 14.616 12.2045 14.4418 12.2045C14.0402 12.2045 13.6823 12.2898 13.3679 12.4602C13.0573 12.6269 12.8111 12.8598 12.6293 13.1591C12.4474 13.4545 12.3565 13.7917 12.3565 14.1705V19.5H10.6577ZM22.3267 15.8807V10.7727H24.0312V19.5H22.3608V17.9886H22.2699C22.0691 18.4545 21.7472 18.8428 21.304 19.1534C20.8646 19.4602 20.3172 19.6136 19.6619 19.6136C19.1013 19.6136 18.6051 19.4905 18.1733 19.2443C17.7453 18.9943 17.4081 18.625 17.1619 18.1364C16.9195 17.6477 16.7983 17.0436 16.7983 16.3239V10.7727H18.4972V16.1193C18.4972 16.714 18.6619 17.1875 18.9915 17.5398C19.321 17.892 19.7491 18.0682 20.2756 18.0682C20.5938 18.0682 20.91 17.9886 21.2244 17.8295C21.5426 17.6705 21.8059 17.4299 22.0142 17.108C22.2263 16.786 22.3305 16.3769 22.3267 15.8807ZM32.8537 12.9034L31.3139 13.1761C31.2495 12.9792 31.1473 12.7917 31.0071 12.6136C30.8707 12.4356 30.6851 12.2898 30.4503 12.1761C30.2154 12.0625 29.9219 12.0057 29.5696 12.0057C29.0885 12.0057 28.687 12.1136 28.3651 12.3295C28.0431 12.5417 27.8821 12.8163 27.8821 13.1534C27.8821 13.4451 27.9901 13.6799 28.206 13.858C28.4219 14.036 28.7704 14.1818 29.2514 14.2955L30.6378 14.6136C31.4408 14.7992 32.0393 15.0852 32.4332 15.4716C32.8272 15.858 33.0241 16.3598 33.0241 16.9773C33.0241 17.5 32.8726 17.9659 32.5696 18.375C32.2704 18.7803 31.8518 19.0985 31.3139 19.3295C30.7798 19.5606 30.1605 19.6761 29.456 19.6761C28.4787 19.6761 27.6813 19.4678 27.0639 19.0511C26.4465 18.6307 26.0677 18.0341 25.9276 17.2614L27.5696 17.0114C27.6719 17.4394 27.8821 17.7633 28.2003 17.983C28.5185 18.1989 28.9332 18.3068 29.4446 18.3068C30.0014 18.3068 30.4465 18.1913 30.7798 17.9602C31.1132 17.7254 31.2798 17.4394 31.2798 17.1023C31.2798 16.8295 31.1776 16.6004 30.973 16.4148C30.7723 16.2292 30.4635 16.089 30.0469 15.9943L28.5696 15.6705C27.7552 15.4848 27.1529 15.1894 26.7628 14.7841C26.3764 14.3788 26.1832 13.8655 26.1832 13.2443C26.1832 12.7292 26.3272 12.2784 26.6151 11.892C26.9029 11.5057 27.3007 11.2045 27.8082 10.9886C28.3158 10.7689 28.8973 10.6591 29.5526 10.6591C30.4957 10.6591 31.2382 10.8636 31.7798 11.2727C32.3215 11.678 32.6795 12.2216 32.8537 12.9034ZM38.9659 10.7727V12.1364H34.1989V10.7727H38.9659ZM35.4773 8.68182H37.1761V16.9375C37.1761 17.267 37.2254 17.5152 37.3239 17.6818C37.4223 17.8447 37.5492 17.9564 37.7045 18.017C37.8636 18.0739 38.036 18.1023 38.2216 18.1023C38.358 18.1023 38.4773 18.0928 38.5795 18.0739C38.6818 18.0549 38.7614 18.0398 38.8182 18.0284L39.125 19.4318C39.0265 19.4697 38.8864 19.5076 38.7045 19.5455C38.5227 19.5871 38.2955 19.6098 38.0227 19.6136C37.5758 19.6212 37.1591 19.5417 36.7727 19.375C36.3864 19.2083 36.0739 18.9508 35.8352 18.6023C35.5966 18.2538 35.4773 17.8163 35.4773 17.2898V8.68182ZM44.5128 19.6761C43.6529 19.6761 42.9124 19.4924 42.2912 19.125C41.6738 18.7538 41.1965 18.233 40.8594 17.5625C40.526 16.8883 40.3594 16.0985 40.3594 15.1932C40.3594 14.2992 40.526 13.5114 40.8594 12.8295C41.1965 12.1477 41.6662 11.6155 42.2685 11.233C42.8745 10.8504 43.5829 10.6591 44.3935 10.6591C44.8859 10.6591 45.3632 10.7405 45.8253 10.9034C46.2874 11.0663 46.7022 11.322 47.0696 11.6705C47.437 12.0189 47.7268 12.4716 47.9389 13.0284C48.151 13.5814 48.2571 14.2538 48.2571 15.0455V15.6477H41.3196V14.375H46.5923C46.5923 13.928 46.5014 13.5322 46.3196 13.1875C46.1378 12.839 45.8821 12.5644 45.5526 12.3636C45.2268 12.1629 44.8442 12.0625 44.4048 12.0625C43.9276 12.0625 43.5109 12.1799 43.1548 12.4148C42.8026 12.6458 42.5298 12.9489 42.3366 13.3239C42.1473 13.6951 42.0526 14.0985 42.0526 14.5341V15.5284C42.0526 16.1117 42.1548 16.608 42.3594 17.017C42.5677 17.4261 42.8575 17.7386 43.2287 17.9545C43.5999 18.1667 44.0336 18.2727 44.5298 18.2727C44.8518 18.2727 45.1454 18.2273 45.4105 18.1364C45.6757 18.0417 45.9048 17.9015 46.098 17.7159C46.2912 17.5303 46.4389 17.3011 46.5412 17.0284L48.1491 17.3182C48.0204 17.7917 47.7893 18.2064 47.456 18.5625C47.1264 18.9148 46.7116 19.1894 46.2116 19.3864C45.7154 19.5795 45.1491 19.6761 44.5128 19.6761ZM53.4091 19.6705C52.7045 19.6705 52.0758 19.4905 51.5227 19.1307C50.9735 18.767 50.5417 18.25 50.2273 17.5795C49.9167 16.9053 49.7614 16.0966 49.7614 15.1534C49.7614 14.2102 49.9186 13.4034 50.233 12.733C50.5511 12.0625 50.9867 11.5492 51.5398 11.1932C52.0928 10.8371 52.7197 10.6591 53.4205 10.6591C53.9621 10.6591 54.3977 10.75 54.7273 10.9318C55.0606 11.1098 55.3182 11.3182 55.5 11.5568C55.6856 11.7955 55.8295 12.0057 55.9318 12.1875H56.0341V7.86364H57.733V19.5H56.0739V18.142H55.9318C55.8295 18.3277 55.6818 18.5398 55.4886 18.7784C55.2992 19.017 55.0379 19.2254 54.7045 19.4034C54.3712 19.5814 53.9394 19.6705 53.4091 19.6705ZM53.7841 18.2216C54.2727 18.2216 54.6856 18.0928 55.0227 17.8352C55.3636 17.5739 55.6212 17.2121 55.7955 16.75C55.9735 16.2879 56.0625 15.75 56.0625 15.1364C56.0625 14.5303 55.9754 14 55.8011 13.5455C55.6269 13.0909 55.3712 12.7367 55.0341 12.483C54.697 12.2292 54.2803 12.1023 53.7841 12.1023C53.2727 12.1023 52.8466 12.2348 52.5057 12.5C52.1648 12.7652 51.9072 13.1269 51.733 13.5852C51.5625 14.0436 51.4773 14.5606 51.4773 15.1364C51.4773 15.7197 51.5644 16.2443 51.7386 16.7102C51.9129 17.1761 52.1705 17.5455 52.5114 17.8182C52.8561 18.0871 53.2803 18.2216 53.7841 18.2216ZM64.5284 19.5V7.86364H66.2273V12.1875H66.3295C66.428 12.0057 66.5701 11.7955 66.7557 11.5568C66.9413 11.3182 67.1989 11.1098 67.5284 10.9318C67.858 10.75 68.2936 10.6591 68.8352 10.6591C69.5398 10.6591 70.1686 10.8371 70.7216 11.1932C71.2746 11.5492 71.7083 12.0625 72.0227 12.733C72.3409 13.4034 72.5 14.2102 72.5 15.1534C72.5 16.0966 72.3428 16.9053 72.0284 17.5795C71.714 18.25 71.2822 18.767 70.733 19.1307C70.1837 19.4905 69.5568 19.6705 68.8523 19.6705C68.322 19.6705 67.8883 19.5814 67.5511 19.4034C67.2178 19.2254 66.9564 19.017 66.767 18.7784C66.5777 18.5398 66.4318 18.3277 66.3295 18.142H66.1875V19.5H64.5284ZM66.1932 15.1364C66.1932 15.75 66.2822 16.2879 66.4602 16.75C66.6383 17.2121 66.8958 17.5739 67.233 17.8352C67.5701 18.0928 67.983 18.2216 68.4716 18.2216C68.9792 18.2216 69.4034 18.0871 69.7443 17.8182C70.0852 17.5455 70.3428 17.1761 70.517 16.7102C70.6951 16.2443 70.7841 15.7197 70.7841 15.1364C70.7841 14.5606 70.697 14.0436 70.5227 13.5852C70.3523 13.1269 70.0947 12.7652 69.75 12.5C69.4091 12.2348 68.983 12.1023 68.4716 12.1023C67.9792 12.1023 67.5625 12.2292 67.2216 12.483C66.8845 12.7367 66.6288 13.0909 66.4545 13.5455C66.2803 14 66.1932 14.5303 66.1932 15.1364ZM75.1847 22.7727C74.9309 22.7727 74.6998 22.7519 74.4915 22.7102C74.2831 22.6723 74.1278 22.6307 74.0256 22.5852L74.4347 21.1932C74.7453 21.2765 75.0218 21.3125 75.2642 21.3011C75.5066 21.2898 75.7206 21.1989 75.9062 21.0284C76.0956 20.858 76.2623 20.5795 76.4062 20.1932L76.6165 19.6136L73.4233 10.7727H75.2415L77.4517 17.5455H77.5426L79.7528 10.7727H81.5767L77.9801 20.6648C77.8134 21.1193 77.6013 21.5038 77.3438 21.8182C77.0862 22.1364 76.7794 22.375 76.4233 22.5341C76.0672 22.6932 75.6544 22.7727 75.1847 22.7727ZM91.2259 19.6591C90.5137 19.6591 89.8736 19.5227 89.3054 19.25C88.741 18.9735 88.2902 18.5947 87.9531 18.1136C87.616 17.6326 87.4361 17.0833 87.4134 16.4659H89.1179C89.1596 16.9659 89.3812 17.3769 89.7827 17.6989C90.1842 18.0208 90.6652 18.1818 91.2259 18.1818C91.6728 18.1818 92.0687 18.0795 92.4134 17.875C92.7618 17.6667 93.0346 17.3807 93.2315 17.017C93.4323 16.6534 93.5327 16.2386 93.5327 15.7727C93.5327 15.2992 93.4304 14.8769 93.2259 14.5057C93.0213 14.1345 92.7391 13.8428 92.3793 13.6307C92.0232 13.4186 91.6141 13.3106 91.152 13.3068C90.7997 13.3068 90.4455 13.3674 90.0895 13.4886C89.7334 13.6098 89.4455 13.7689 89.2259 13.9659L87.6179 13.7273L88.2713 7.86364H94.669V9.36932H89.7315L89.3622 12.625H89.4304C89.6577 12.4053 89.9588 12.2216 90.3338 12.0739C90.7126 11.9261 91.1179 11.8523 91.5497 11.8523C92.258 11.8523 92.8887 12.0208 93.4418 12.358C93.9986 12.6951 94.4361 13.1553 94.7543 13.7386C95.0762 14.3182 95.2353 14.9848 95.2315 15.7386C95.2353 16.4924 95.0649 17.1648 94.7202 17.7557C94.3793 18.3466 93.9058 18.8125 93.2997 19.1534C92.6974 19.4905 92.0062 19.6591 91.2259 19.6591ZM101.358 19.6932C100.46 19.6894 99.6932 19.4527 99.0568 18.983C98.4205 18.5133 97.9337 17.8295 97.5966 16.9318C97.2595 16.0341 97.0909 14.9527 97.0909 13.6875C97.0909 12.4261 97.2595 11.3485 97.5966 10.4545C97.9375 9.56061 98.4261 8.87879 99.0625 8.40909C99.7027 7.93939 100.468 7.70455 101.358 7.70455C102.248 7.70455 103.011 7.94129 103.648 8.41477C104.284 8.88447 104.771 9.56629 105.108 10.4602C105.449 11.3504 105.619 12.4261 105.619 13.6875C105.619 14.9564 105.451 16.0398 105.114 16.9375C104.777 17.8314 104.29 18.5152 103.653 18.9886C103.017 19.4583 102.252 19.6932 101.358 19.6932ZM101.358 18.1761C102.146 18.1761 102.761 17.7917 103.205 17.0227C103.652 16.2538 103.875 15.142 103.875 13.6875C103.875 12.7216 103.773 11.9053 103.568 11.2386C103.367 10.5682 103.078 10.0606 102.699 9.71591C102.324 9.36742 101.877 9.19318 101.358 9.19318C100.574 9.19318 99.9583 9.57954 99.5114 10.3523C99.0644 11.125 98.839 12.2367 98.8352 13.6875C98.8352 14.6572 98.9356 15.4773 99.1364 16.1477C99.3409 16.8144 99.6307 17.3201 100.006 17.6648C100.381 18.0057 100.831 18.1761 101.358 18.1761ZM111.686 19.6932C110.788 19.6894 110.021 19.4527 109.385 18.983C108.749 18.5133 108.262 17.8295 107.925 16.9318C107.588 16.0341 107.419 14.9527 107.419 13.6875C107.419 12.4261 107.588 11.3485 107.925 10.4545C108.266 9.56061 108.754 8.87879 109.391 8.40909C110.031 7.93939 110.796 7.70455 111.686 7.70455C112.576 7.70455 113.339 7.94129 113.976 8.41477C114.612 8.88447 115.099 9.56629 115.436 10.4602C115.777 11.3504 115.947 12.4261 115.947 13.6875C115.947 14.9564 115.779 16.0398 115.442 16.9375C115.105 17.8314 114.618 18.5152 113.982 18.9886C113.345 19.4583 112.58 19.6932 111.686 19.6932ZM111.686 18.1761C112.474 18.1761 113.089 17.7917 113.533 17.0227C113.98 16.2538 114.203 15.142 114.203 13.6875C114.203 12.7216 114.101 11.9053 113.896 11.2386C113.696 10.5682 113.406 10.0606 113.027 9.71591C112.652 9.36742 112.205 9.19318 111.686 9.19318C110.902 9.19318 110.286 9.57954 109.839 10.3523C109.393 11.125 109.167 12.2367 109.163 13.6875C109.163 14.6572 109.264 15.4773 109.464 16.1477C109.669 16.8144 109.959 17.3201 110.334 17.6648C110.709 18.0057 111.16 18.1761 111.686 18.1761ZM122.014 19.6932C121.116 19.6894 120.349 19.4527 119.713 18.983C119.077 18.5133 118.59 17.8295 118.253 16.9318C117.916 16.0341 117.747 14.9527 117.747 13.6875C117.747 12.4261 117.916 11.3485 118.253 10.4545C118.594 9.56061 119.082 8.87879 119.719 8.40909C120.359 7.93939 121.124 7.70455 122.014 7.70455C122.904 7.70455 123.668 7.94129 124.304 8.41477C124.94 8.88447 125.427 9.56629 125.764 10.4602C126.105 11.3504 126.276 12.4261 126.276 13.6875C126.276 14.9564 126.107 16.0398 125.77 16.9375C125.433 17.8314 124.946 18.5152 124.31 18.9886C123.673 19.4583 122.908 19.6932 122.014 19.6932ZM122.014 18.1761C122.802 18.1761 123.418 17.7917 123.861 17.0227C124.308 16.2538 124.531 15.142 124.531 13.6875C124.531 12.7216 124.429 11.9053 124.224 11.2386C124.024 10.5682 123.734 10.0606 123.355 9.71591C122.98 9.36742 122.533 9.19318 122.014 9.19318C121.23 9.19318 120.615 9.57954 120.168 10.3523C119.721 11.125 119.495 12.2367 119.491 13.6875C119.491 14.6572 119.592 15.4773 119.793 16.1477C119.997 16.8144 120.287 17.3201 120.662 17.6648C121.037 18.0057 121.488 18.1761 122.014 18.1761ZM131.734 17.5455V9.86364H133.263V17.5455H131.734ZM128.661 14.4659V12.9432H136.342V14.4659H128.661ZM10.9432 38.6477H9.17045C9.10227 38.2689 8.97538 37.9356 8.78977 37.6477C8.60417 37.3598 8.37689 37.1155 8.10795 36.9148C7.83902 36.714 7.53788 36.5625 7.20455 36.4602C6.875 36.358 6.52462 36.3068 6.15341 36.3068C5.48295 36.3068 4.88258 36.4754 4.35227 36.8125C3.82576 37.1496 3.40909 37.6439 3.10227 38.2955C2.79924 38.947 2.64773 39.7424 2.64773 40.6818C2.64773 41.6288 2.79924 42.428 3.10227 43.0795C3.40909 43.7311 3.82765 44.2235 4.35795 44.5568C4.88826 44.8902 5.48485 45.0568 6.14773 45.0568C6.51515 45.0568 6.86364 45.0076 7.19318 44.9091C7.52652 44.8068 7.82765 44.6572 8.09659 44.4602C8.36553 44.2633 8.5928 44.0227 8.77841 43.7386C8.9678 43.4508 9.09848 43.1212 9.17045 42.75L10.9432 42.7557C10.8485 43.3277 10.6648 43.8542 10.392 44.3352C10.1231 44.8125 9.77652 45.2254 9.35227 45.5739C8.93182 45.9186 8.45076 46.1856 7.90909 46.375C7.36742 46.5644 6.77652 46.6591 6.13636 46.6591C5.12879 46.6591 4.23106 46.4205 3.44318 45.9432C2.6553 45.4621 2.03409 44.7746 1.57955 43.8807C1.12879 42.9867 0.903409 41.9205 0.903409 40.6818C0.903409 39.4394 1.13068 38.3731 1.58523 37.483C2.03977 36.589 2.66098 35.9034 3.44886 35.4261C4.23674 34.9451 5.13258 34.7045 6.13636 34.7045C6.75379 34.7045 7.32955 34.7936 7.86364 34.9716C8.40152 35.1458 8.88447 35.4034 9.3125 35.7443C9.74053 36.0814 10.0947 36.4943 10.375 36.983C10.6553 37.4678 10.8447 38.0227 10.9432 38.6477ZM16.5838 46.6761C15.7656 46.6761 15.0516 46.4886 14.4418 46.1136C13.8319 45.7386 13.3584 45.214 13.0213 44.5398C12.6842 43.8655 12.5156 43.0777 12.5156 42.1761C12.5156 41.2708 12.6842 40.4792 13.0213 39.8011C13.3584 39.1231 13.8319 38.5966 14.4418 38.2216C15.0516 37.8466 15.7656 37.6591 16.5838 37.6591C17.402 37.6591 18.116 37.8466 18.7259 38.2216C19.3357 38.5966 19.8092 39.1231 20.1463 39.8011C20.4834 40.4792 20.652 41.2708 20.652 42.1761C20.652 43.0777 20.4834 43.8655 20.1463 44.5398C19.8092 45.214 19.3357 45.7386 18.7259 46.1136C18.116 46.4886 17.402 46.6761 16.5838 46.6761ZM16.5895 45.25C17.1198 45.25 17.5592 45.1098 17.9077 44.8295C18.2562 44.5492 18.5137 44.1761 18.6804 43.7102C18.8509 43.2443 18.9361 42.7311 18.9361 42.1705C18.9361 41.6136 18.8509 41.1023 18.6804 40.6364C18.5137 40.1667 18.2562 39.7898 17.9077 39.5057C17.5592 39.2216 17.1198 39.0795 16.5895 39.0795C16.0554 39.0795 15.6122 39.2216 15.2599 39.5057C14.9115 39.7898 14.652 40.1667 14.4815 40.6364C14.3149 41.1023 14.2315 41.6136 14.2315 42.1705C14.2315 42.7311 14.3149 43.2443 14.4815 43.7102C14.652 44.1761 14.9115 44.5492 15.2599 44.8295C15.6122 45.1098 16.0554 45.25 16.5895 45.25ZM22.5483 46.5V37.7727H24.179V39.1932H24.2869C24.4688 38.7121 24.7661 38.3371 25.179 38.0682C25.5919 37.7955 26.0862 37.6591 26.6619 37.6591C27.2453 37.6591 27.7339 37.7955 28.1278 38.0682C28.5256 38.3409 28.8191 38.7159 29.0085 39.1932H29.0994C29.3078 38.7273 29.6392 38.3561 30.0938 38.0795C30.5483 37.7992 31.09 37.6591 31.7188 37.6591C32.5104 37.6591 33.1562 37.9072 33.6562 38.4034C34.16 38.8996 34.4119 39.6477 34.4119 40.6477V46.5H32.7131V40.8068C32.7131 40.2159 32.5521 39.7879 32.2301 39.5227C31.9081 39.2576 31.5237 39.125 31.0767 39.125C30.5237 39.125 30.0938 39.2955 29.7869 39.6364C29.4801 39.9735 29.3267 40.4072 29.3267 40.9375V46.5H27.6335V40.6989C27.6335 40.2254 27.4858 39.8447 27.1903 39.5568C26.8949 39.2689 26.5104 39.125 26.0369 39.125C25.715 39.125 25.4176 39.2102 25.1449 39.3807C24.8759 39.5473 24.6581 39.7803 24.4915 40.0795C24.3286 40.3788 24.2472 40.7254 24.2472 41.1193V46.5H22.5483ZM36.6889 49.7727V37.7727H38.348V39.1875H38.4901C38.5885 39.0057 38.7306 38.7955 38.9162 38.5568C39.1018 38.3182 39.3594 38.1098 39.6889 37.9318C40.0185 37.75 40.4541 37.6591 40.9957 37.6591C41.7003 37.6591 42.3291 37.8371 42.8821 38.1932C43.4351 38.5492 43.8688 39.0625 44.1832 39.733C44.5014 40.4034 44.6605 41.2102 44.6605 42.1534C44.6605 43.0966 44.5033 43.9053 44.1889 44.5795C43.8745 45.25 43.4427 45.767 42.8935 46.1307C42.3442 46.4905 41.7173 46.6705 41.0128 46.6705C40.4825 46.6705 40.0488 46.5814 39.7116 46.4034C39.3783 46.2254 39.117 46.017 38.9276 45.7784C38.7382 45.5398 38.5923 45.3277 38.4901 45.142H38.3878V49.7727H36.6889ZM38.3537 42.1364C38.3537 42.75 38.4427 43.2879 38.6207 43.75C38.7988 44.2121 39.0563 44.5739 39.3935 44.8352C39.7306 45.0928 40.1435 45.2216 40.6321 45.2216C41.1397 45.2216 41.5639 45.0871 41.9048 44.8182C42.2457 44.5455 42.5033 44.1761 42.6776 43.7102C42.8556 43.2443 42.9446 42.7197 42.9446 42.1364C42.9446 41.5606 42.8575 41.0436 42.6832 40.5852C42.5128 40.1269 42.2552 39.7652 41.9105 39.5C41.5696 39.2348 41.1435 39.1023 40.6321 39.1023C40.1397 39.1023 39.723 39.2292 39.3821 39.483C39.045 39.7367 38.7893 40.0909 38.6151 40.5455C38.4408 41 38.3537 41.5303 38.3537 42.1364ZM49.1037 46.6932C48.5507 46.6932 48.0507 46.5909 47.6037 46.3864C47.1567 46.178 46.8026 45.8769 46.5412 45.483C46.2836 45.089 46.1548 44.6061 46.1548 44.0341C46.1548 43.5417 46.2495 43.1364 46.4389 42.8182C46.6283 42.5 46.884 42.2481 47.206 42.0625C47.5279 41.8769 47.8878 41.7367 48.2855 41.642C48.6832 41.5473 49.0885 41.4754 49.5014 41.4261C50.0241 41.3655 50.4484 41.3163 50.7741 41.2784C51.0999 41.2367 51.3366 41.1705 51.4844 41.0795C51.6321 40.9886 51.706 40.8409 51.706 40.6364V40.5966C51.706 40.1004 51.5658 39.7159 51.2855 39.4432C51.009 39.1705 50.5961 39.0341 50.0469 39.0341C49.4749 39.0341 49.0241 39.161 48.6946 39.4148C48.3688 39.6648 48.1435 39.9432 48.0185 40.25L46.4219 39.8864C46.6113 39.3561 46.8878 38.928 47.2514 38.6023C47.6188 38.2727 48.0412 38.0341 48.5185 37.8864C48.9957 37.7348 49.4976 37.6591 50.0241 37.6591C50.3726 37.6591 50.742 37.7008 51.1321 37.7841C51.526 37.8636 51.8935 38.0114 52.2344 38.2273C52.5791 38.4432 52.8613 38.7519 53.081 39.1534C53.3007 39.5511 53.4105 40.0682 53.4105 40.7045V46.5H51.7514V45.3068H51.6832C51.5734 45.5265 51.4086 45.7424 51.1889 45.9545C50.9692 46.1667 50.687 46.3428 50.3423 46.483C49.9976 46.6231 49.5848 46.6932 49.1037 46.6932ZM49.473 45.3295C49.9427 45.3295 50.3442 45.2367 50.6776 45.0511C51.0147 44.8655 51.2704 44.6231 51.4446 44.3239C51.6226 44.0208 51.7116 43.697 51.7116 43.3523V42.2273C51.651 42.2879 51.5336 42.3447 51.3594 42.3977C51.1889 42.447 50.9938 42.4905 50.7741 42.5284C50.5545 42.5625 50.3404 42.5947 50.1321 42.625C49.9238 42.6515 49.7495 42.6742 49.6094 42.6932C49.2798 42.7348 48.9787 42.8049 48.706 42.9034C48.437 43.0019 48.2211 43.1439 48.0582 43.3295C47.8991 43.5114 47.8196 43.7538 47.8196 44.0568C47.8196 44.4773 47.9749 44.7955 48.2855 45.0114C48.5961 45.2235 48.992 45.3295 49.473 45.3295ZM57.3722 41.3182V46.5H55.6733V37.7727H57.304V39.1932H57.4119C57.6127 38.7311 57.9271 38.3598 58.3551 38.0795C58.7869 37.7992 59.3305 37.6591 59.9858 37.6591C60.5805 37.6591 61.1013 37.7841 61.5483 38.0341C61.9953 38.2803 62.3419 38.6477 62.5881 39.1364C62.8343 39.625 62.9574 40.2292 62.9574 40.9489V46.5H61.2585V41.1534C61.2585 40.5208 61.0938 40.0265 60.7642 39.6705C60.4347 39.3106 59.982 39.1307 59.4062 39.1307C59.0123 39.1307 58.6619 39.2159 58.3551 39.3864C58.0521 39.5568 57.8116 39.8068 57.6335 40.1364C57.4593 40.4621 57.3722 40.8561 57.3722 41.3182ZM65.2358 46.5V37.7727H66.9347V46.5H65.2358ZM66.0938 36.4261C65.7983 36.4261 65.5445 36.3277 65.3324 36.1307C65.1241 35.9299 65.0199 35.6913 65.0199 35.4148C65.0199 35.1345 65.1241 34.8958 65.3324 34.6989C65.5445 34.4981 65.7983 34.3977 66.0938 34.3977C66.3892 34.3977 66.6411 34.4981 66.8494 34.6989C67.0616 34.8958 67.1676 35.1345 67.1676 35.4148C67.1676 35.6913 67.0616 35.9299 66.8494 36.1307C66.6411 36.3277 66.3892 36.4261 66.0938 36.4261ZM72.9815 46.6761C72.1217 46.6761 71.3812 46.4924 70.7599 46.125C70.1425 45.7538 69.6652 45.233 69.3281 44.5625C68.9948 43.8883 68.8281 43.0985 68.8281 42.1932C68.8281 41.2992 68.9948 40.5114 69.3281 39.8295C69.6652 39.1477 70.1349 38.6155 70.7372 38.233C71.3433 37.8504 72.0516 37.6591 72.8622 37.6591C73.3546 37.6591 73.8319 37.7405 74.294 37.9034C74.7562 38.0663 75.1709 38.322 75.5384 38.6705C75.9058 39.0189 76.1955 39.4716 76.4077 40.0284C76.6198 40.5814 76.7259 41.2538 76.7259 42.0455V42.6477H69.7884V41.375H75.0611C75.0611 40.928 74.9702 40.5322 74.7884 40.1875C74.6065 39.839 74.3509 39.5644 74.0213 39.3636C73.6955 39.1629 73.313 39.0625 72.8736 39.0625C72.3963 39.0625 71.9796 39.1799 71.6236 39.4148C71.2713 39.6458 70.9986 39.9489 70.8054 40.3239C70.616 40.6951 70.5213 41.0985 70.5213 41.5341V42.5284C70.5213 43.1117 70.6236 43.608 70.8281 44.017C71.0365 44.4261 71.3262 44.7386 71.6974 44.9545C72.0687 45.1667 72.5024 45.2727 72.9986 45.2727C73.3205 45.2727 73.6141 45.2273 73.8793 45.1364C74.1444 45.0417 74.3736 44.9015 74.5668 44.7159C74.7599 44.5303 74.9077 44.3011 75.0099 44.0284L76.6179 44.3182C76.4891 44.7917 76.258 45.2064 75.9247 45.5625C75.5952 45.9148 75.1804 46.1894 74.6804 46.3864C74.1842 46.5795 73.6179 46.6761 72.9815 46.6761ZM85.1506 39.9034L83.6108 40.1761C83.5464 39.9792 83.4441 39.7917 83.304 39.6136C83.1676 39.4356 82.982 39.2898 82.7472 39.1761C82.5123 39.0625 82.2188 39.0057 81.8665 39.0057C81.3854 39.0057 80.9839 39.1136 80.6619 39.3295C80.34 39.5417 80.179 39.8163 80.179 40.1534C80.179 40.4451 80.2869 40.6799 80.5028 40.858C80.7188 41.036 81.0672 41.1818 81.5483 41.2955L82.9347 41.6136C83.7377 41.7992 84.3362 42.0852 84.7301 42.4716C85.1241 42.858 85.321 43.3598 85.321 43.9773C85.321 44.5 85.1695 44.9659 84.8665 45.375C84.5672 45.7803 84.1487 46.0985 83.6108 46.3295C83.0767 46.5606 82.4574 46.6761 81.7528 46.6761C80.7756 46.6761 79.9782 46.4678 79.3608 46.0511C78.7434 45.6307 78.3646 45.0341 78.2244 44.2614L79.8665 44.0114C79.9688 44.4394 80.179 44.7633 80.4972 44.983C80.8153 45.1989 81.2301 45.3068 81.7415 45.3068C82.2983 45.3068 82.7434 45.1913 83.0767 44.9602C83.41 44.7254 83.5767 44.4394 83.5767 44.1023C83.5767 43.8295 83.4744 43.6004 83.2699 43.4148C83.0691 43.2292 82.7604 43.089 82.3438 42.9943L80.8665 42.6705C80.0521 42.4848 79.4498 42.1894 79.0597 41.7841C78.6733 41.3788 78.4801 40.8655 78.4801 40.2443C78.4801 39.7292 78.6241 39.2784 78.9119 38.892C79.1998 38.5057 79.5975 38.2045 80.1051 37.9886C80.6127 37.7689 81.1941 37.6591 81.8494 37.6591C82.7926 37.6591 83.535 37.8636 84.0767 38.2727C84.6184 38.678 84.9763 39.2216 85.1506 39.9034ZM93.3153 46.5L90.7472 37.7727H92.5028L94.2131 44.1818H94.2983L96.0142 37.7727H97.7699L99.4744 44.1534H99.5597L101.259 37.7727H103.014L100.452 46.5H98.7188L96.946 40.1989H96.8153L95.0426 46.5H93.3153ZM108.037 46.6761C107.219 46.6761 106.505 46.4886 105.895 46.1136C105.285 45.7386 104.812 45.214 104.474 44.5398C104.137 43.8655 103.969 43.0777 103.969 42.1761C103.969 41.2708 104.137 40.4792 104.474 39.8011C104.812 39.1231 105.285 38.5966 105.895 38.2216C106.505 37.8466 107.219 37.6591 108.037 37.6591C108.855 37.6591 109.569 37.8466 110.179 38.2216C110.789 38.5966 111.262 39.1231 111.599 39.8011C111.937 40.4792 112.105 41.2708 112.105 42.1761C112.105 43.0777 111.937 43.8655 111.599 44.5398C111.262 45.214 110.789 45.7386 110.179 46.1136C109.569 46.4886 108.855 46.6761 108.037 46.6761ZM108.043 45.25C108.573 45.25 109.012 45.1098 109.361 44.8295C109.709 44.5492 109.967 44.1761 110.134 43.7102C110.304 43.2443 110.389 42.7311 110.389 42.1705C110.389 41.6136 110.304 41.1023 110.134 40.6364C109.967 40.1667 109.709 39.7898 109.361 39.5057C109.012 39.2216 108.573 39.0795 108.043 39.0795C107.509 39.0795 107.065 39.2216 106.713 39.5057C106.365 39.7898 106.105 40.1667 105.935 40.6364C105.768 41.1023 105.685 41.6136 105.685 42.1705C105.685 42.7311 105.768 43.2443 105.935 43.7102C106.105 44.1761 106.365 44.5492 106.713 44.8295C107.065 45.1098 107.509 45.25 108.043 45.25ZM114.001 46.5V37.7727H115.643V39.1591H115.734C115.893 38.6894 116.174 38.3201 116.575 38.0511C116.981 37.7784 117.439 37.642 117.95 37.642C118.056 37.642 118.181 37.6458 118.325 37.6534C118.473 37.661 118.589 37.6705 118.672 37.6818V39.3068C118.604 39.2879 118.482 39.267 118.308 39.2443C118.134 39.2178 117.96 39.2045 117.786 39.2045C117.384 39.2045 117.026 39.2898 116.712 39.4602C116.401 39.6269 116.155 39.8598 115.973 40.1591C115.791 40.4545 115.7 40.7917 115.7 41.1705V46.5H114.001ZM121.841 34.8636V46.5H120.142V34.8636H121.841ZM127.393 46.6705C126.689 46.6705 126.06 46.4905 125.507 46.1307C124.958 45.767 124.526 45.25 124.212 44.5795C123.901 43.9053 123.746 43.0966 123.746 42.1534C123.746 41.2102 123.903 40.4034 124.217 39.733C124.536 39.0625 124.971 38.5492 125.524 38.1932C126.077 37.8371 126.704 37.6591 127.405 37.6591C127.946 37.6591 128.382 37.75 128.712 37.9318C129.045 38.1098 129.303 38.3182 129.484 38.5568C129.67 38.7955 129.814 39.0057 129.916 39.1875H130.018V34.8636H131.717V46.5H130.058V45.142H129.916C129.814 45.3277 129.666 45.5398 129.473 45.7784C129.284 46.017 129.022 46.2254 128.689 46.4034C128.356 46.5814 127.924 46.6705 127.393 46.6705ZM127.768 45.2216C128.257 45.2216 128.67 45.0928 129.007 44.8352C129.348 44.5739 129.606 44.2121 129.78 43.75C129.958 43.2879 130.047 42.75 130.047 42.1364C130.047 41.5303 129.96 41 129.786 40.5455C129.611 40.0909 129.356 39.7367 129.018 39.483C128.681 39.2292 128.265 39.1023 127.768 39.1023C127.257 39.1023 126.831 39.2348 126.49 39.5C126.149 39.7652 125.892 40.1269 125.717 40.5852C125.547 41.0436 125.462 41.5606 125.462 42.1364C125.462 42.7197 125.549 43.2443 125.723 43.7102C125.897 44.1761 126.155 44.5455 126.496 44.8182C126.84 45.0871 127.265 45.2216 127.768 45.2216ZM136.034 46.5L133.466 37.7727H135.222L136.932 44.1818H137.017L138.733 37.7727H140.489L142.193 44.1534H142.278L143.977 37.7727H145.733L143.17 46.5H141.438L139.665 40.1989H139.534L137.761 46.5H136.034ZM147.345 46.5V37.7727H149.044V46.5H147.345ZM148.203 36.4261C147.908 36.4261 147.654 36.3277 147.442 36.1307C147.233 35.9299 147.129 35.6913 147.129 35.4148C147.129 35.1345 147.233 34.8958 147.442 34.6989C147.654 34.4981 147.908 34.3977 148.203 34.3977C148.499 34.3977 148.75 34.4981 148.959 34.6989C149.171 34.8958 149.277 35.1345 149.277 35.4148C149.277 35.6913 149.171 35.9299 148.959 36.1307C148.75 36.3277 148.499 36.4261 148.203 36.4261ZM154.597 46.6705C153.892 46.6705 153.263 46.4905 152.71 46.1307C152.161 45.767 151.729 45.25 151.415 44.5795C151.104 43.9053 150.949 43.0966 150.949 42.1534C150.949 41.2102 151.106 40.4034 151.42 39.733C151.739 39.0625 152.174 38.5492 152.727 38.1932C153.28 37.8371 153.907 37.6591 154.608 37.6591C155.15 37.6591 155.585 37.75 155.915 37.9318C156.248 38.1098 156.506 38.3182 156.688 38.5568C156.873 38.7955 157.017 39.0057 157.119 39.1875H157.222V34.8636H158.92V46.5H157.261V45.142H157.119C157.017 45.3277 156.869 45.5398 156.676 45.7784C156.487 46.017 156.225 46.2254 155.892 46.4034C155.559 46.5814 155.127 46.6705 154.597 46.6705ZM154.972 45.2216C155.46 45.2216 155.873 45.0928 156.21 44.8352C156.551 44.5739 156.809 44.2121 156.983 43.75C157.161 43.2879 157.25 42.75 157.25 42.1364C157.25 41.5303 157.163 41 156.989 40.5455C156.814 40.0909 156.559 39.7367 156.222 39.483C155.884 39.2292 155.468 39.1023 154.972 39.1023C154.46 39.1023 154.034 39.2348 153.693 39.5C153.352 39.7652 153.095 40.1269 152.92 40.5852C152.75 41.0436 152.665 41.5606 152.665 42.1364C152.665 42.7197 152.752 43.2443 152.926 43.7102C153.1 44.1761 153.358 44.5455 153.699 44.8182C154.044 45.0871 154.468 45.2216 154.972 45.2216ZM165.107 46.6761C164.247 46.6761 163.506 46.4924 162.885 46.125C162.268 45.7538 161.79 45.233 161.453 44.5625C161.12 43.8883 160.953 43.0985 160.953 42.1932C160.953 41.2992 161.12 40.5114 161.453 39.8295C161.79 39.1477 162.26 38.6155 162.862 38.233C163.468 37.8504 164.177 37.6591 164.987 37.6591C165.48 37.6591 165.957 37.7405 166.419 37.9034C166.881 38.0663 167.296 38.322 167.663 38.6705C168.031 39.0189 168.321 39.4716 168.533 40.0284C168.745 40.5814 168.851 41.2538 168.851 42.0455V42.6477H161.913V41.375H167.186C167.186 40.928 167.095 40.5322 166.913 40.1875C166.732 39.839 166.476 39.5644 166.146 39.3636C165.821 39.1629 165.438 39.0625 164.999 39.0625C164.521 39.0625 164.105 39.1799 163.749 39.4148C163.396 39.6458 163.124 39.9489 162.93 40.3239C162.741 40.6951 162.646 41.0985 162.646 41.5341V42.5284C162.646 43.1117 162.749 43.608 162.953 44.017C163.161 44.4261 163.451 44.7386 163.822 44.9545C164.194 45.1667 164.627 45.2727 165.124 45.2727C165.446 45.2727 165.739 45.2273 166.004 45.1364C166.269 45.0417 166.499 44.9015 166.692 44.7159C166.885 44.5303 167.033 44.3011 167.135 44.0284L168.743 44.3182C168.614 44.7917 168.383 45.2064 168.05 45.5625C167.72 45.9148 167.305 46.1894 166.805 46.3864C166.309 46.5795 165.743 46.6761 165.107 46.6761Z" fill="#626965"/>
</g>
<defs>
<clipPath id="clip0_18_2466">
<rect width="170.29" height="54.41" fill="white"/>
</clipPath>
</defs>
</svg>
