<svg width="32" height="32" viewBox="0 0 32 32" fill="none" xmlns="http://www.w3.org/2000/svg">
<g clip-path="url(#clip0_18_3053)">
<path d="M19.167 12.8335C20.4268 12.8335 21.635 13.3339 22.5258 14.2247C23.4165 15.1155 23.917 16.3237 23.917 17.5835V23.1252H20.7503V17.5835C20.7503 17.1636 20.5835 16.7608 20.2866 16.4639C19.9896 16.167 19.5869 16.0002 19.167 16.0002C18.7471 16.0002 18.3443 16.167 18.0474 16.4639C17.7505 16.7608 17.5837 17.1636 17.5837 17.5835V23.1252H14.417V17.5835C14.417 16.3237 14.9174 15.1155 15.8082 14.2247C16.699 13.3339 17.9072 12.8335 19.167 12.8335Z" stroke="#0D1714" stroke-width="1.58333" stroke-linecap="round" stroke-linejoin="round"/>
<path d="M11.2497 13.625H8.08301V23.125H11.2497V13.625Z" stroke="#0D1714" stroke-width="1.58333" stroke-linecap="round" stroke-linejoin="round"/>
<path d="M9.66634 11.2502C10.5408 11.2502 11.2497 10.5413 11.2497 9.66683C11.2497 8.79238 10.5408 8.0835 9.66634 8.0835C8.79189 8.0835 8.08301 8.79238 8.08301 9.66683C8.08301 10.5413 8.79189 11.2502 9.66634 11.2502Z" stroke="#0D1714" stroke-width="1.58333" stroke-linecap="round" stroke-linejoin="round"/>
<rect x="0.5" y="0.5" width="31" height="31" rx="15.5" stroke="#626965" stroke-opacity="0.5"/>
</g>
<defs>
<clipPath id="clip0_18_3053">
<rect width="32" height="32" rx="16" fill="white"/>
</clipPath>
</defs>
</svg>
