<svg width="32" height="32" viewBox="0 0 32 32" fill="none" xmlns="http://www.w3.org/2000/svg">
<g clip-path="url(#clip0_18_3059)">
<path d="M24.7087 8.87515C23.9505 9.4099 23.1112 9.8189 22.2228 10.0864C21.746 9.53818 21.1124 9.14961 20.4076 8.97326C19.7027 8.7969 18.9608 8.84126 18.282 9.10034C17.6032 9.35942 17.0203 9.82072 16.6123 10.4218C16.2042 11.023 15.9906 11.7349 16.0003 12.4614V13.2531C14.6091 13.2891 13.2305 12.9806 11.9874 12.3549C10.7442 11.7292 9.67516 10.8057 8.87533 9.66681C8.87533 9.66681 5.70866 16.7918 12.8337 19.9585C11.2032 21.0652 9.26099 21.6201 7.29199 21.5418C14.417 25.5001 23.1253 21.5418 23.1253 12.4376C23.1246 12.2171 23.1034 11.9972 23.062 11.7806C23.87 10.9837 24.4401 9.97771 24.7087 8.87515Z" stroke="#0D1714" stroke-width="1.58333" stroke-linecap="round" stroke-linejoin="round"/>
<rect x="0.5" y="0.5" width="31" height="31" rx="15.5" stroke="#626965" stroke-opacity="0.5"/>
</g>
<defs>
<clipPath id="clip0_18_3059">
<rect width="32" height="32" rx="16" fill="white"/>
</clipPath>
</defs>
</svg>
